<?xml version="1.0" encoding="UTF-8" standalone="no"?>
<!-- Created with Inkscape (http://www.inkscape.org/) -->

<svg
   width="155.43866mm"
   height="26.840801mm"
   viewBox="0 0 155.43866 26.840801"
   version="1.1"
   id="svg10337"
   xml:space="preserve"
   inkscape:version="1.2.2 (732a01da63, 2022-12-09)"
   sodipodi:docname="bank2.svg"
   xmlns:inkscape="http://www.inkscape.org/namespaces/inkscape"
   xmlns:sodipodi="http://sodipodi.sourceforge.net/DTD/sodipodi-0.dtd"
   xmlns:xlink="http://www.w3.org/1999/xlink"
   xmlns="http://www.w3.org/2000/svg"
   xmlns:svg="http://www.w3.org/2000/svg"><sodipodi:namedview
     id="namedview10339"
     pagecolor="#ffffff"
     bordercolor="#000000"
     borderopacity="0.25"
     inkscape:showpageshadow="2"
     inkscape:pageopacity="0.0"
     inkscape:pagecheckerboard="0"
     inkscape:deskcolor="#d1d1d1"
     inkscape:document-units="mm"
     showgrid="false"
     inkscape:zoom="1.4503086"
     inkscape:cx="258.56565"
     inkscape:cy="132.04086"
     inkscape:window-width="1920"
     inkscape:window-height="1001"
     inkscape:window-x="-9"
     inkscape:window-y="-9"
     inkscape:window-maximized="1"
     inkscape:current-layer="layer1" /><defs
     id="defs10334"><radialGradient
       inkscape:collect="always"
       xlink:href="#linearGradient2016"
       id="radialGradient2018"
       cx="50.240032"
       cy="137.28624"
       fx="50.240032"
       fy="137.28624"
       r="18.575886"
       gradientTransform="matrix(0.73327788,0,0,0.70962134,-14.859392,61.787619)"
       gradientUnits="userSpaceOnUse" /><linearGradient
       inkscape:collect="always"
       id="linearGradient2016"><stop
         style="stop-color:#72cbaa;stop-opacity:1;"
         offset="0"
         id="stop2012" /><stop
         style="stop-color:#72cbaa;stop-opacity:1;"
         offset="0.49776787"
         id="stop2020" /><stop
         style="stop-color:#51a587;stop-opacity:1;"
         offset="1"
         id="stop2014" /></linearGradient><radialGradient
       inkscape:collect="always"
       xlink:href="#linearGradient2016"
       id="radialGradient2018-1"
       cx="50.240032"
       cy="137.28624"
       fx="50.240032"
       fy="137.28624"
       r="18.575886"
       gradientTransform="matrix(0.73327788,0,0,0.70962134,16.923611,62.07212)"
       gradientUnits="userSpaceOnUse" /><radialGradient
       inkscape:collect="always"
       xlink:href="#linearGradient2016"
       id="radialGradient2018-4"
       cx="50.240032"
       cy="137.28624"
       fx="50.240032"
       fy="137.28624"
       r="18.575886"
       gradientTransform="matrix(0.73327788,0,0,0.70962134,49.179574,62.261787)"
       gradientUnits="userSpaceOnUse" /><radialGradient
       inkscape:collect="always"
       xlink:href="#linearGradient2016"
       id="radialGradient2018-18"
       cx="50.240032"
       cy="137.28624"
       fx="50.240032"
       fy="137.28624"
       r="18.575886"
       gradientTransform="matrix(0.73327788,0,0,0.70962134,81.553687,61.784697)"
       gradientUnits="userSpaceOnUse" /><radialGradient
       inkscape:collect="always"
       xlink:href="#linearGradient2016"
       id="radialGradient2018-1-2"
       cx="50.240032"
       cy="137.28624"
       fx="50.240032"
       fy="137.28624"
       r="18.575886"
       gradientTransform="matrix(0.73327788,0,0,0.70962134,113.33669,62.069198)"
       gradientUnits="userSpaceOnUse" /></defs><g
     inkscape:label="Слой 1"
     inkscape:groupmode="layer"
     id="layer1"
     transform="translate(-8.3592253,-146.02409)"><ellipse
       style="fill:url(#radialGradient2018);fill-opacity:1;stroke-width:0.241679"
       id="path32340-2"
       cx="21.980511"
       cy="159.20886"
       rx="13.621285"
       ry="13.181845" /><path
       style="fill:#ffffff;fill-opacity:1;stroke-width:0.0421317"
       d="m 14.532598,165.96693 c -0.149262,-0.0413 -0.399548,-0.13734 -0.556193,-0.21365 -0.174358,-0.085 -0.394558,-0.24416 -0.567797,-0.41059 -0.171873,-0.16511 -0.336849,-0.37475 -0.42016,-0.53392 -0.07544,-0.14414 -0.172558,-0.37891 -0.215812,-0.52171 -0.04325,-0.1428 -0.09016,-0.40374 -0.104225,-0.5799 -0.01987,-0.24868 -0.0051,-0.41194 0.06614,-0.73031 0.06285,-0.28099 0.140127,-0.49114 0.245558,-0.66781 0.08461,-0.1418 0.235123,-0.34545 0.334473,-0.45256 0.09935,-0.10713 0.295675,-0.27048 0.436275,-0.36301 0.140596,-0.0925 0.416279,-0.21886 0.612626,-0.28072 0.299773,-0.0944 0.437298,-0.11277 0.858009,-0.11428 0.404857,-0.002 0.559025,0.0165 0.803318,0.0936 0.166267,0.0524 0.410742,0.16005 0.543274,0.23914 0.132532,0.0791 0.274175,0.18118 0.314761,0.22685 0.07183,0.0808 0.06436,0.09 -0.278935,0.34402 -0.194004,0.14355 -0.37078,0.26098 -0.392834,0.26098 -0.02204,0 -0.142622,-0.0478 -0.267923,-0.10621 -0.125306,-0.0584 -0.340954,-0.11825 -0.479217,-0.13297 -0.138268,-0.0147 -0.374191,-0.005 -0.524278,0.0216 -0.150085,0.0266 -0.362885,0.0996 -0.472893,0.16223 -0.110008,0.0626 -0.271161,0.18849 -0.358121,0.27974 -0.08696,0.0913 -0.210327,0.27419 -0.274147,0.40654 -0.104855,0.21743 -0.115931,0.28366 -0.114892,0.68704 8.8e-4,0.40338 0.01227,0.4681 0.116275,0.67116 0.06332,0.12361 0.179887,0.29773 0.259033,0.38694 0.07914,0.0892 0.261668,0.22723 0.405606,0.30672 0.256693,0.14174 0.271317,0.14449 0.762723,0.14352 0.476659,-0.002 0.514895,-0.008 0.786722,-0.13817 0.157138,-0.0754 0.304152,-0.1372 0.326695,-0.1372 0.02254,0 0.180039,0.10045 0.349993,0.22321 0.169953,0.12277 0.309575,0.24235 0.310275,0.26573 6.33e-4,0.0234 -0.06931,0.10492 -0.155566,0.18119 -0.08626,0.0762 -0.267151,0.19618 -0.401981,0.26649 -0.134826,0.0703 -0.387306,0.16574 -0.561063,0.21209 -0.214471,0.0572 -0.444112,0.0835 -0.715128,0.0817 -0.243044,-0.002 -0.505371,-0.0319 -0.670589,-0.0775 z m 3.381729,0.0269 c -4.1e-5,-0.006 -0.0025,-1.09161 -0.0056,-2.4128 l -0.0056,-2.40215 2.030608,-0.0111 c 1.11684,-0.006 2.030613,0.005 2.030613,0.0232 0,0.0188 -0.08924,0.10178 -0.198317,0.1844 -0.109074,0.0827 -0.320437,0.24439 -0.469699,0.3595 l -0.271381,0.20928 -1.022898,0.0212 -1.022896,0.0212 v 0.51019 0.51019 l 0.91852,0.0247 c 0.743707,0.0199 0.958251,0.0394 1.127274,0.10265 0.114816,0.0429 0.276464,0.12113 0.359218,0.17389 0.08276,0.0527 0.214664,0.1723 0.293134,0.26565 0.07847,0.0934 0.175243,0.26229 0.215061,0.37541 0.0404,0.1148 0.0723,0.32655 0.0722,0.47923 -1.23e-4,0.15047 -0.03197,0.38963 -0.07079,0.53147 -0.0576,0.21046 -0.113274,0.30133 -0.302693,0.49414 -0.16564,0.1686 -0.309819,0.26776 -0.503489,0.34627 -0.149257,0.0605 -0.440471,0.13111 -0.647136,0.1569 -0.206669,0.0258 -0.859548,0.047 -1.450848,0.047 -0.591295,9e-5 -1.075128,-0.005 -1.075182,-0.0105 z m 2.693117,-0.95115 c 0.0892,-0.0471 0.197175,-0.13343 0.239944,-0.19176 0.05119,-0.0698 0.07832,-0.17979 0.0794,-0.32182 8.79e-4,-0.11868 -0.02168,-0.26017 -0.05022,-0.31443 -0.0285,-0.0542 -0.09137,-0.13159 -0.139662,-0.1718 -0.0483,-0.0402 -0.170723,-0.097 -0.272063,-0.12616 -0.108593,-0.0312 -0.451485,-0.0543 -0.835018,-0.0562 l -0.650766,-0.004 -0.01167,0.59317 c -0.0065,0.32626 -0.0013,0.62042 0.01112,0.65372 0.01888,0.0502 0.146899,0.0574 0.744765,0.0423 0.620127,-0.0157 0.74483,-0.0303 0.88414,-0.10393 z m 2.303172,0.93343 c -0.01532,-0.0156 -0.02784,-1.10569 -0.02784,-2.42244 v -2.39409 l 1.613658,-0.0116 c 0.887511,-0.006 1.695395,-0.005 1.795295,0.004 0.09989,0.008 0.181632,0.0278 0.181632,0.0435 0,0.0158 -0.232304,0.19767 -0.516242,0.40428 l -0.516237,0.37566 -0.725854,0.006 -0.725853,0.006 -0.01163,0.56334 -0.01163,0.56333 h 1.086736 1.086733 v 0.42517 0.42516 h -1.085527 -1.085523 v 0.59523 0.59523 h 1.273404 1.273404 l 0.0062,0.0957 c 0.0036,0.0526 0.0094,0.22002 0.0133,0.37202 0.004,0.15198 -0.0012,0.30027 -0.01071,0.32949 -0.01382,0.0414 -0.411796,0.0532 -1.801594,0.0532 -0.981127,0 -1.796391,-0.0128 -1.811702,-0.0283 z m 4.564016,0.019 c -3.17e-4,-0.007 -0.0017,-1.09021 -0.0023,-2.40811 -0.0012,-1.3179 0.0068,-2.40475 0.01709,-2.41527 0.01031,-0.0105 0.541397,-0.0175 1.180172,-0.0155 0.83744,0.002 1.231759,0.0203 1.413622,0.0632 0.13872,0.0327 0.30858,0.0895 0.377471,0.12615 0.06889,0.0365 0.141522,0.0666 0.16141,0.0668 0.01991,1.4e-4 0.123616,0.0657 0.230497,0.14555 0.106894,0.0799 0.252808,0.22817 0.324266,0.3295 0.07146,0.10132 0.169699,0.31538 0.218322,0.47568 0.04864,0.16031 0.0882,0.39946 0.08795,0.53145 -2.47e-4,0.132 -0.02786,0.33202 -0.06138,0.44449 -0.0335,0.11248 -0.112522,0.30103 -0.175576,0.41902 -0.06306,0.11799 -0.196379,0.28777 -0.296256,0.3773 -0.09988,0.0895 -0.324917,0.22353 -0.500072,0.29779 -0.235592,0.0999 -0.422312,0.14447 -0.717452,0.17135 -0.21944,0.02 -0.581684,0.037 -0.804992,0.0378 l -0.40601,0.002 -0.01151,0.66964 -0.01151,0.66962 -0.511447,0.012 c -0.281301,0.007 -0.511786,0.007 -0.512207,0 z m 2.466126,-2.30745 c 0.07923,-0.0409 0.178398,-0.10509 0.220366,-0.14262 0.04197,-0.0376 0.11242,-0.14897 0.156564,-0.24763 0.04917,-0.10993 0.07904,-0.26678 0.07709,-0.40497 -0.0017,-0.12404 -0.02567,-0.28881 -0.05318,-0.36616 -0.02752,-0.0774 -0.111688,-0.20483 -0.187049,-0.28331 -0.09187,-0.0957 -0.208463,-0.16077 -0.353865,-0.19756 -0.119269,-0.0302 -0.451697,-0.0557 -0.738738,-0.0568 l -0.521883,-0.003 -0.01128,0.90959 -0.01128,0.90961 0.639616,-0.0219 c 0.4945,-0.0169 0.672293,-0.0387 0.783676,-0.0963 z m -8.498382,-5.00018 c -0.137778,-0.0199 -0.377656,-0.0675 -0.533062,-0.10587 -0.155406,-0.0383 -0.409044,-0.12047 -0.56364,-0.18264 -0.154592,-0.0622 -0.412596,-0.18451 -0.573337,-0.27188 -0.160741,-0.0874 -0.414379,-0.25286 -0.563636,-0.36775 -0.14926,-0.11489 -0.375225,-0.31086 -0.502146,-0.43549 -0.126921,-0.12464 -0.335703,-0.37009 -0.463959,-0.54547 -0.128253,-0.1754 -0.293237,-0.42987 -0.366627,-0.56553 -0.07339,-0.13564 -0.196141,-0.41306 -0.272785,-0.61648 -0.07664,-0.20341 -0.169569,-0.51334 -0.206502,-0.68871 -0.03693,-0.17538 -0.084,-0.5102 -0.104588,-0.74403 -0.03021,-0.34295 -0.02241,-0.53023 0.04019,-0.96843 0.0427,-0.29878 0.08878,-0.56163 0.102406,-0.58409 0.01362,-0.0224 0.0506,-0.1415 0.08215,-0.26455 0.03155,-0.12304 0.08683,-0.28111 0.122838,-0.35126 0.03601,-0.0702 0.06559,-0.14103 0.06574,-0.15749 1.26e-4,-0.0164 0.09308,-0.19422 0.206533,-0.39499 0.113451,-0.20077 0.285227,-0.46472 0.381726,-0.58655 0.0965,-0.12182 0.318372,-0.36119 0.493053,-0.53193 0.174679,-0.17073 0.440071,-0.39301 0.589757,-0.49398 0.149683,-0.10095 0.388379,-0.24331 0.530437,-0.31632 0.142056,-0.073 0.376555,-0.17805 0.521113,-0.23339 0.144556,-0.0554 0.477766,-0.14412 0.740468,-0.19733 0.407536,-0.0825 0.560732,-0.0933 1.043774,-0.0734 0.311372,0.0128 0.697652,0.0557 0.858393,0.0954 0.16074,0.0397 0.42377,0.12065 0.584511,0.18 0.160743,0.0593 0.386197,0.15513 0.501013,0.21287 0.114815,0.0577 0.354359,0.20223 0.532323,0.32109 0.177963,0.11886 0.322683,0.23619 0.321599,0.26074 -8.8e-4,0.0246 -0.206047,0.19292 -0.455473,0.37415 l -0.453499,0.32954 -0.294179,-0.16976 c -0.161801,-0.0934 -0.431235,-0.21647 -0.598741,-0.27357 -0.167507,-0.0571 -0.434399,-0.12671 -0.59309,-0.15469 -0.172741,-0.0305 -0.482705,-0.0421 -0.772391,-0.0292 -0.405531,0.0183 -0.552175,0.0453 -0.905841,0.16734 -0.232091,0.0801 -0.569119,0.23061 -0.748954,0.33454 -0.208771,0.12066 -0.457207,0.31962 -0.687248,0.55036 -0.213798,0.21446 -0.43223,0.48504 -0.537242,0.6655 -0.09733,0.16727 -0.233331,0.44074 -0.302224,0.60773 -0.0689,0.16697 -0.152383,0.44794 -0.185529,0.62434 -0.03314,0.17642 -0.06027,0.52076 -0.06027,0.76523 0,0.24446 0.02971,0.59194 0.06598,0.77218 0.03628,0.18024 0.119776,0.45872 0.185528,0.61883 0.06575,0.1601 0.197179,0.42416 0.292056,0.58678 0.09487,0.16263 0.335476,0.46294 0.534673,0.66736 0.251897,0.25849 0.459059,0.42553 0.680361,0.5486 0.175,0.0973 0.419245,0.21621 0.542762,0.26421 0.123518,0.048 0.346699,0.12014 0.495957,0.1603 0.191629,0.0516 0.430889,0.0726 0.814145,0.0718 0.427056,-0.002 0.616604,-0.0215 0.889146,-0.096 0.190509,-0.0521 0.450679,-0.14176 0.578158,-0.19916 0.127475,-0.0574 0.35883,-0.1904 0.514119,-0.29553 0.155294,-0.10512 0.389326,-0.29092 0.520076,-0.41287 0.130751,-0.12196 0.31892,-0.3376 0.418154,-0.47921 0.09924,-0.14162 0.245791,-0.39131 0.325678,-0.55487 0.07988,-0.16356 0.166017,-0.35479 0.191399,-0.42495 0.02538,-0.0702 0.07352,-0.24234 0.106969,-0.38264 0.03345,-0.14029 0.07383,-0.41414 0.08974,-0.60854 0.02283,-0.27878 0.04725,-0.37084 0.11572,-0.4358 0.04774,-0.0452 0.100696,-0.0823 0.11769,-0.0823 0.01698,0 0.05572,-0.0249 0.08606,-0.0555 0.03034,-0.0305 0.201624,-0.16736 0.38062,-0.3042 0.219008,-0.16744 0.339232,-0.23479 0.367593,-0.20591 0.0232,0.0237 0.05319,0.2812 0.06672,0.57246 0.0152,0.3273 0.0052,0.66656 -0.02602,0.88839 -0.0278,0.19737 -0.0786,0.4641 -0.11284,0.59272 -0.03425,0.1286 -0.102041,0.34862 -0.150668,0.48894 -0.04864,0.14029 -0.16243,0.39859 -0.252878,0.57396 -0.09045,0.17538 -0.231872,0.41453 -0.314273,0.53145 -0.0824,0.11692 -0.230508,0.29868 -0.329124,0.40391 -0.09861,0.10522 -0.179311,0.20294 -0.179324,0.21713 -9e-6,0.0142 -0.136416,0.13981 -0.303118,0.27914 -0.166707,0.13934 -0.414795,0.3261 -0.551312,0.41503 -0.136517,0.0889 -0.38976,0.22737 -0.562763,0.30766 -0.173002,0.0803 -0.478406,0.19289 -0.678681,0.25022 -0.200272,0.0573 -0.538668,0.12298 -0.751989,0.14586 -0.213321,0.0229 -0.500584,0.0396 -0.638362,0.0372 -0.137779,-0.003 -0.363232,-0.0208 -0.501011,-0.0408 z m 0.375677,-3.68792 c -0.0919,-0.0649 -0.279779,-0.18547 -0.417513,-0.26798 -0.13773,-0.0825 -0.461784,-0.28944 -0.72012,-0.45991 l -0.469696,-0.30995 v -0.69623 c 0,-0.3964 0.01658,-0.69623 0.03848,-0.69623 0.02116,0 0.159829,0.0813 0.308143,0.1807 0.148313,0.0994 0.323573,0.2121 0.389465,0.25052 0.06589,0.0385 0.33482,0.20807 0.597624,0.37707 0.426765,0.27444 0.486985,0.30146 0.563634,0.25301 0.0472,-0.0298 0.367638,-0.26498 0.712084,-0.52252 0.344447,-0.25755 0.945658,-0.70958 1.336031,-1.0045 0.390371,-0.29493 0.756734,-0.56905 0.814142,-0.60916 0.05741,-0.0402 0.264011,-0.19553 0.459118,-0.34536 0.195103,-0.14986 0.367346,-0.26453 0.382762,-0.25482 0.01543,0.01 0.102777,0.12916 0.194145,0.26546 0.09137,0.13631 0.205643,0.32672 0.253943,0.42313 0.0483,0.0964 0.0874,0.20952 0.08689,0.25137 -5.76e-4,0.0474 -0.174448,0.20442 -0.460873,0.41623 -0.252971,0.18707 -0.501498,0.37225 -0.552277,0.41152 -0.05078,0.0393 -0.233236,0.17744 -0.405459,0.30707 -0.172223,0.12963 -0.33192,0.25114 -0.354883,0.27004 -0.02296,0.0189 -0.210843,0.15804 -0.417508,0.30926 -0.206669,0.1512 -0.396042,0.29411 -0.420826,0.31758 -0.02479,0.0234 -0.237891,0.18616 -0.473568,0.36153 -0.235672,0.17538 -0.600499,0.44803 -0.810727,0.60586 -0.210225,0.15784 -0.401064,0.28639 -0.424079,0.28565 -0.02302,-5.8e-4 -0.117038,-0.0544 -0.208935,-0.11934 z"
       id="path1987" /><ellipse
       style="fill:url(#radialGradient2018-1);fill-opacity:1;stroke-width:0.241679"
       id="path32340-2-2"
       cx="53.763515"
       cy="159.49338"
       rx="13.621285"
       ry="13.181845" /><ellipse
       style="fill:url(#radialGradient2018-4);fill-opacity:1;stroke-width:0.241679"
       id="path32340-2-7"
       cx="86.019493"
       cy="159.68304"
       rx="13.621285"
       ry="13.181845" /><path
       style="fill:#ffffff;fill-opacity:1;stroke-width:0.0222857"
       d="m 49.7825,162.97924 c -0.0061,-0.0106 -0.0091,-1.49446 -0.0067,-3.2975 l 0.0044,-3.27825 1.154282,-0.007 c 0.682406,-0.004 1.239335,0.003 1.362335,0.0169 0.11443,0.0129 0.294043,0.0447 0.399143,0.0707 0.111454,0.0275 0.281008,0.0942 0.406845,0.15997 0.118665,0.0621 0.26235,0.15445 0.3193,0.20531 0.05695,0.0509 0.142483,0.14219 0.190073,0.20295 0.04759,0.0608 0.125509,0.19569 0.173153,0.29986 0.06154,0.13455 0.09617,0.2512 0.119584,0.40284 0.02211,0.14317 0.02905,0.28922 0.02109,0.44363 -0.0074,0.14238 -0.02875,0.28201 -0.0561,0.366 -0.02433,0.0746 -0.07986,0.20417 -0.123422,0.28775 -0.04355,0.0835 -0.147951,0.22544 -0.231986,0.31529 -0.09768,0.10445 -0.213945,0.1991 -0.322326,0.26241 l -0.169534,0.099 0.185004,0.0983 c 0.101753,0.054 0.257883,0.15679 0.346955,0.22832 0.08907,0.0716 0.206329,0.1889 0.260569,0.26084 0.05424,0.0719 0.136149,0.21364 0.18202,0.31493 0.04588,0.10129 0.09884,0.25871 0.117711,0.34983 0.01887,0.0911 0.03431,0.26328 0.03431,0.38256 0,0.11928 -0.01454,0.30586 -0.03232,0.41461 -0.01778,0.10877 -0.04783,0.24737 -0.06678,0.30803 -0.01895,0.0607 -0.06343,0.17175 -0.09883,0.24688 -0.03539,0.0752 -0.108695,0.19682 -0.162887,0.2704 -0.05419,0.0736 -0.152945,0.18161 -0.219453,0.24003 -0.06651,0.0585 -0.179179,0.13762 -0.250378,0.176 -0.0712,0.0384 -0.196688,0.0942 -0.278864,0.12403 l -0.149413,0.0542 h -1.548374 c -0.851605,0 -1.553392,-0.009 -1.559525,-0.0193 z m 2.394114,-1.01862 c 0.07041,-0.0137 0.182619,-0.0559 0.249351,-0.0937 0.06673,-0.0378 0.150685,-0.10164 0.186561,-0.14187 0.03588,-0.0403 0.09293,-0.13013 0.126787,-0.19976 0.05845,-0.12021 0.06155,-0.14171 0.06155,-0.42585 0,-0.2829 -0.0033,-0.30591 -0.06009,-0.42093 -0.03304,-0.0669 -0.09554,-0.16354 -0.13887,-0.21471 -0.04333,-0.0512 -0.126183,-0.11867 -0.184115,-0.15 -0.06649,-0.0359 -0.170422,-0.0649 -0.28185,-0.0786 -0.09708,-0.0119 -0.298813,-0.0217 -0.448287,-0.0218 -0.149475,-9e-5 -0.360644,0.007 -0.469264,0.0148 l -0.197494,0.015 v 0.85594 c 0,0.47076 0.0065,0.86283 0.01438,0.87128 0.0079,0.009 0.239141,0.0153 0.513846,0.0153 0.274704,0 0.557072,-0.0113 0.627483,-0.025 z m 0.09085,-2.97661 c 0.05605,-0.0305 0.13648,-0.0924 0.17875,-0.1377 0.04227,-0.0453 0.100524,-0.13179 0.129452,-0.1922 0.04449,-0.0929 0.0537,-0.1493 0.05977,-0.36569 0.0069,-0.24581 0.0047,-0.26115 -0.05729,-0.39132 -0.03547,-0.0745 -0.09209,-0.16207 -0.125844,-0.19458 -0.03376,-0.0325 -0.08787,-0.0767 -0.120262,-0.0981 -0.03239,-0.0215 -0.122007,-0.0546 -0.199149,-0.0737 -0.101783,-0.0252 -0.272065,-0.0349 -0.620734,-0.0358 l -0.480473,-0.002 -0.0056,0.78363 -0.0056,0.78362 0.415608,0.006 c 0.228585,0.004 0.486263,-0.002 0.572618,-0.0109 0.09577,-0.0105 0.196754,-0.0388 0.258904,-0.0725 z m 3.780492,1.27545 v -2.73903 l -0.900766,-0.006 -0.900775,-0.006 -0.0058,-0.55822 -0.0058,-0.55821 h 2.503126 c 1.988303,0 2.50305,0.006 2.502771,0.0287 -1.9e-4,0.0158 -0.07648,0.26702 -0.169519,0.55822 l -0.16916,0.52944 -0.801375,0.006 -0.801378,0.006 v 2.739 2.739 h -0.625684 -0.625684 z m 3.603084,-0.56423 v -3.30324 h 2.036019 2.036027 l -0.150418,0.46614 c -0.08273,0.25638 -0.162612,0.50757 -0.177519,0.5582 l -0.02706,0.0921 -1.238322,0.0114 -1.238324,0.0115 1.1e-4,0.72511 1.02e-4,0.7251 0.733565,0.0137 c 0.403464,0.008 0.791815,0.0256 0.863016,0.04 0.0712,0.0144 0.184969,0.0416 0.25282,0.0606 0.06783,0.0189 0.182198,0.0599 0.25408,0.091 0.07187,0.0312 0.197487,0.10404 0.279108,0.16194 0.08163,0.0579 0.204496,0.16986 0.273044,0.24881 0.06856,0.079 0.160924,0.20343 0.205273,0.27662 0.04436,0.0731 0.110073,0.20845 0.146033,0.30064 0.03593,0.0922 0.0853,0.26488 0.109625,0.3838 0.03117,0.15247 0.04421,0.29958 0.04421,0.49895 0,0.1555 -0.01077,0.33207 -0.02383,0.3924 -0.01312,0.0604 -0.04854,0.19596 -0.07863,0.30143 -0.03007,0.10547 -0.100041,0.27219 -0.155418,0.37049 -0.05536,0.0983 -0.143781,0.23269 -0.196459,0.29864 -0.05265,0.0659 -0.158887,0.16991 -0.236021,0.23101 -0.07712,0.0611 -0.193637,0.13972 -0.258905,0.17472 -0.06526,0.0349 -0.185901,0.088 -0.268079,0.11785 l -0.149398,0.0541 h -1.517285 -1.517283 z m 2.53511,2.21742 c 0.04744,-0.0126 0.125941,-0.0473 0.174403,-0.0772 0.04847,-0.0299 0.123366,-0.096 0.166446,-0.14692 0.04312,-0.0509 0.104266,-0.14707 0.135928,-0.21375 0.04253,-0.0896 0.0613,-0.17214 0.07179,-0.31628 0.0077,-0.10727 0.0076,-0.25533 -5.35e-4,-0.32899 -0.0081,-0.0737 -0.0404,-0.18978 -0.07171,-0.25804 -0.03131,-0.0682 -0.09742,-0.16733 -0.146942,-0.22016 -0.0495,-0.0528 -0.134168,-0.11982 -0.188115,-0.14886 -0.05397,-0.029 -0.151466,-0.065 -0.216735,-0.0799 -0.07885,-0.0181 -0.30327,-0.0247 -0.668838,-0.02 l -0.55017,0.007 -0.0059,0.91459 -0.0059,0.91458 0.491091,0.007 c 0.270095,0.004 0.544481,0.004 0.609742,-0.002 0.06526,-0.004 0.157501,-0.019 0.204974,-0.0315 z m -20.162173,-2.85988 c 0,-0.0635 0.03567,-0.20372 0.09513,-0.37407 0.05232,-0.14989 0.119153,-0.34505 0.148516,-0.43367 l 0.05339,-0.16113 2.634423,-0.006 2.634424,-0.006 -0.03919,0.10943 c -0.02155,0.0602 -0.10638,0.30356 -0.188502,0.54083 l -0.149315,0.43138 -2.594437,2.3e-4 -2.594437,2.1e-4 z m 0.61536,-1.89539 c 0.06227,-0.18675 0.145904,-0.43276 0.185836,-0.54671 l 0.0726,-0.20718 2.6268,-0.006 c 1.44474,-0.004 2.6268,5.6e-4 2.6268,0.009 0,0.008 -0.07695,0.23866 -0.170986,0.51227 -0.09404,0.27359 -0.177607,0.51557 -0.185699,0.53773 -0.0139,0.0381 -0.159794,0.0403 -2.641651,0.0403 H 42.5261 Z m 0.463779,-1.33503 c 2.11e-4,-0.01 0.08164,-0.2556 0.180963,-0.54679 l 0.180591,-0.52944 2.623833,-0.006 c 1.568646,-0.004 2.623834,0.003 2.623834,0.0151 0,0.0115 -0.05894,0.19544 -0.130989,0.40869 -0.07204,0.21323 -0.153546,0.44986 -0.181118,0.52583 l -0.05013,0.1381 -2.623678,0.006 c -1.443023,0.004 -2.623511,-0.002 -2.623306,-0.0115 z m 20.431498,-4.57514 c 0,-0.007 0.0052,-0.0115 0.01077,-0.0115 0.0059,0 0.01078,0.005 0.01078,0.0115 0,0.007 -0.0052,0.0115 -0.01078,0.0115 -0.0059,0 -0.01077,-0.005 -0.01077,-0.0115 z"
       id="path2913" /><path
       style="fill:#ffffff;fill-opacity:1;stroke-width:0.00845019"
       d="m 83.31956,167.34422 v -0.32467 l -0.0247,0.0127 c -0.0135,0.007 -0.0584,0.0229 -0.0996,0.0355 -0.0702,0.0214 -0.0853,0.0229 -0.24016,0.0234 -0.16021,5.8e-4 -0.16728,-2.3e-4 -0.23302,-0.0233 -0.0373,-0.0131 -0.0883,-0.0355 -0.11325,-0.0496 -0.025,-0.0142 -0.0673,-0.0439 -0.094,-0.066 -0.0267,-0.0221 -0.0669,-0.0643 -0.0892,-0.0936 -0.0223,-0.0294 -0.0571,-0.0876 -0.0773,-0.12928 -0.0202,-0.0417 -0.0465,-0.10994 -0.0585,-0.1516 -0.0119,-0.0416 -0.0281,-0.11181 -0.0357,-0.15589 -0.01,-0.057 -0.014,-0.13239 -0.0143,-0.26136 -2e-4,-0.10865 0.004,-0.20818 0.0106,-0.2486 0.006,-0.0371 0.0203,-0.10345 0.0317,-0.14748 0.0119,-0.046 0.0409,-0.12045 0.0679,-0.17488 0.0373,-0.0751 0.0602,-0.10861 0.10988,-0.16113 0.0345,-0.0365 0.0868,-0.082 0.11632,-0.10106 0.0294,-0.019 0.0774,-0.0444 0.1066,-0.0561 0.0292,-0.0119 0.0861,-0.0297 0.12662,-0.0396 0.0618,-0.0153 0.0982,-0.0182 0.22612,-0.0182 0.13238,0 0.15924,0.003 0.20337,0.0174 0.028,0.01 0.0575,0.0203 0.0657,0.0237 0.014,0.006 0.0148,-0.0157 0.0148,-0.3824 v -0.38855 h 0.24572 0.24572 v 0.38765 c 0,0.21321 0.002,0.38765 0.003,0.38765 0.002,0 0.0182,-0.008 0.0373,-0.0166 0.0189,-0.009 0.0627,-0.021 0.0969,-0.0264 0.0385,-0.006 0.10915,-0.008 0.18514,-0.004 0.0902,0.004 0.14421,0.0103 0.20336,0.0254 0.0443,0.0113 0.10213,0.0302 0.12857,0.0419 0.0265,0.0117 0.0706,0.0364 0.0981,0.055 0.0275,0.0185 0.0777,0.0632 0.11142,0.0992 0.0483,0.0515 0.0711,0.0852 0.10706,0.15869 0.0251,0.0513 0.0535,0.12172 0.0632,0.15649 0.01,0.0348 0.0232,0.0973 0.0302,0.13905 0.007,0.0417 0.0151,0.13463 0.0179,0.20648 0.003,0.0799 0.002,0.16657 -0.005,0.22331 -0.006,0.051 -0.0178,0.12873 -0.0272,0.17277 -0.009,0.044 -0.0306,0.11418 -0.0472,0.1559 -0.0165,0.0417 -0.0445,0.10049 -0.0622,0.13062 -0.0177,0.0301 -0.0495,0.0748 -0.0706,0.0993 -0.0212,0.0246 -0.0586,0.0618 -0.0833,0.0828 -0.0247,0.021 -0.0791,0.055 -0.12107,0.0757 -0.0419,0.0207 -0.10296,0.043 -0.13556,0.0498 -0.0327,0.007 -0.1037,0.0123 -0.15794,0.0125 -0.0545,9e-5 -0.12973,-0.006 -0.16802,-0.0129 -0.0382,-0.007 -0.0996,-0.0237 -0.1365,-0.0367 l -0.0671,-0.0236 v 0.32325 0.32324 h -0.24572 -0.24573 z m -0.0594,-0.66171 c 0.0303,-0.004 0.0618,-0.0107 0.0699,-0.0132 0.0141,-0.004 0.0148,-0.0336 0.0127,-0.50317 l -0.002,-0.49868 -0.0508,-0.0206 c -0.0424,-0.0171 -0.0692,-0.0211 -0.16238,-0.0242 -0.10524,-0.004 -0.11416,-0.003 -0.15807,0.0176 -0.0256,0.0117 -0.0621,0.0371 -0.0811,0.0568 -0.0189,0.0195 -0.0461,0.0587 -0.0601,0.0872 -0.014,0.0284 -0.0332,0.0821 -0.0427,0.11913 -0.009,0.0371 -0.0214,0.11433 -0.0265,0.17167 -0.006,0.0769 -0.006,0.13321 2.6e-4,0.2149 0.005,0.0608 0.0157,0.13316 0.0229,0.16067 0.007,0.0275 0.024,0.0711 0.0373,0.0969 0.0132,0.0258 0.039,0.0613 0.0571,0.0787 0.0182,0.0175 0.0519,0.0392 0.0749,0.0481 0.0331,0.0128 0.0639,0.0163 0.14767,0.0165 0.0582,1.8e-4 0.1307,-0.004 0.161,-0.009 z m 0.94222,-0.019 c 0.0266,-0.013 0.066,-0.0415 0.0876,-0.0632 0.0234,-0.0236 0.0524,-0.0669 0.0717,-0.10704 0.0179,-0.0372 0.0394,-0.0978 0.048,-0.13483 0.012,-0.0521 0.0154,-0.10084 0.015,-0.2149 -2.6e-4,-0.12301 -0.004,-0.15989 -0.0191,-0.22226 -0.0103,-0.0412 -0.0326,-0.10091 -0.0494,-0.13284 -0.0169,-0.032 -0.0464,-0.0738 -0.0656,-0.0929 -0.0192,-0.0192 -0.054,-0.0437 -0.0772,-0.0546 -0.0364,-0.0169 -0.0556,-0.0197 -0.13558,-0.0197 -0.0516,0 -0.1121,0.005 -0.13557,0.0114 -0.0232,0.007 -0.0567,0.0174 -0.0741,0.0248 l -0.0318,0.0134 v 0.49706 0.49704 l 0.0445,0.009 c 0.0245,0.004 0.0521,0.0105 0.0615,0.0127 0.009,0.003 0.0608,0.004 0.11441,0.003 0.0878,-0.002 0.10221,-0.004 0.14573,-0.0252 z m 2.12829,0.48402 c -0.0274,-0.0177 -0.0705,-0.0541 -0.0957,-0.0809 l -0.046,-0.0487 -0.0856,0.0435 c -0.0687,0.035 -0.10549,0.0475 -0.18705,0.0641 -0.0559,0.0114 -0.13965,0.0229 -0.18626,0.0259 -0.0615,0.004 -0.10669,0.002 -0.16456,-0.009 -0.0439,-0.008 -0.10217,-0.0228 -0.12947,-0.0337 -0.0273,-0.011 -0.0708,-0.0327 -0.0968,-0.0482 -0.0259,-0.0156 -0.0695,-0.0503 -0.0968,-0.0771 -0.0273,-0.0269 -0.0629,-0.0705 -0.0791,-0.097 -0.0162,-0.0265 -0.04,-0.0784 -0.0531,-0.11547 -0.0217,-0.0618 -0.0237,-0.0774 -0.0236,-0.18953 9e-5,-0.0906 0.004,-0.13634 0.0151,-0.17698 0.008,-0.0301 0.029,-0.0832 0.046,-0.11797 0.0231,-0.0471 0.0482,-0.0805 0.099,-0.13096 0.0532,-0.053 0.0838,-0.0755 0.14052,-0.1033 0.0398,-0.0195 0.1104,-0.0455 0.15676,-0.0577 0.0725,-0.019 0.10672,-0.0226 0.24528,-0.0261 0.12288,-0.003 0.17353,-5.9e-4 0.21396,0.009 l 0.0529,0.0122 v -0.0828 c 0,-0.0455 -0.004,-0.10218 -0.009,-0.12595 -0.006,-0.0263 -0.0193,-0.0545 -0.0347,-0.072 -0.0161,-0.0182 -0.0414,-0.0339 -0.069,-0.0428 -0.0332,-0.0106 -0.0873,-0.015 -0.22512,-0.0178 -0.11985,-0.003 -0.21475,0 -0.27961,0.007 -0.054,0.006 -0.10164,0.0113 -0.10584,0.0114 -0.004,1.2e-4 -0.0257,-0.0776 -0.0479,-0.17253 -0.0222,-0.095 -0.039,-0.17416 -0.0373,-0.17585 0.002,-0.002 0.0343,-0.0104 0.0725,-0.0192 0.0382,-0.009 0.11567,-0.0236 0.17203,-0.0327 0.0564,-0.009 0.16455,-0.0208 0.24043,-0.026 0.10041,-0.007 0.17083,-0.007 0.25865,-8e-5 0.0664,0.005 0.1511,0.0172 0.18826,0.0269 0.0372,0.01 0.0933,0.031 0.12477,0.0474 0.037,0.0194 0.0752,0.049 0.10811,0.084 0.028,0.0297 0.0623,0.0767 0.0763,0.10419 0.014,0.0276 0.0316,0.0739 0.0391,0.10286 0.0114,0.0437 0.0148,0.13042 0.0201,0.50362 0.005,0.36836 0.009,0.46161 0.0201,0.5096 0.007,0.0323 0.0273,0.0873 0.0439,0.12221 0.0166,0.0349 0.0457,0.0872 0.0648,0.11636 0.019,0.0291 0.0331,0.0541 0.0313,0.0555 -0.002,0.002 -0.072,0.0593 -0.1558,0.12872 -0.0839,0.0694 -0.1568,0.12876 -0.16204,0.13191 -0.005,0.003 -0.0319,-0.009 -0.0593,-0.0266 z m -0.31246,-0.43005 c 0.0719,-0.0196 0.0844,-0.0256 0.0828,-0.0394 -0.002,-0.009 -0.0115,-0.073 -0.0232,-0.14233 -0.0118,-0.0694 -0.0214,-0.15358 -0.0214,-0.18721 0,-0.051 -0.002,-0.0626 -0.0157,-0.0695 -0.009,-0.004 -0.0401,-0.0108 -0.0698,-0.0137 -0.0298,-0.003 -0.0905,-0.002 -0.13473,0.004 -0.0443,0.005 -0.0979,0.015 -0.1191,0.0221 -0.0213,0.007 -0.0528,0.0247 -0.0701,0.0389 -0.0173,0.0143 -0.04,0.0416 -0.0504,0.0609 -0.0159,0.0295 -0.0188,0.0482 -0.0188,0.11927 9e-5,0.0773 0.002,0.0879 0.0248,0.12873 0.0139,0.0249 0.0373,0.0522 0.0536,0.0622 0.0158,0.01 0.0447,0.0226 0.0642,0.0287 0.0198,0.006 0.0746,0.011 0.12435,0.011 0.0707,-1e-4 0.10642,-0.004 0.17371,-0.0232 z m 5.65087,0.43039 c -0.0275,-0.0177 -0.0704,-0.0544 -0.0953,-0.0815 l -0.0452,-0.0493 -0.0836,0.0432 c -0.066,0.0342 -0.10553,0.048 -0.1878,0.0658 -0.0833,0.018 -0.12792,0.0226 -0.2228,0.0232 -0.0868,5.9e-4 -0.13452,-0.003 -0.17794,-0.014 -0.0327,-0.008 -0.0917,-0.0303 -0.13134,-0.0492 -0.0573,-0.0275 -0.0862,-0.0487 -0.14167,-0.10367 -0.0561,-0.0556 -0.0763,-0.0829 -0.10344,-0.13998 -0.0193,-0.0404 -0.0399,-0.10158 -0.048,-0.14234 -0.0105,-0.0527 -0.0129,-0.0937 -0.009,-0.15591 0.003,-0.0464 0.011,-0.10718 0.0182,-0.13499 0.007,-0.0278 0.0285,-0.0816 0.0472,-0.11958 0.0188,-0.0381 0.0536,-0.0903 0.0777,-0.11656 0.024,-0.0262 0.0662,-0.0627 0.0937,-0.0813 0.0275,-0.0185 0.0716,-0.0433 0.0981,-0.055 0.0265,-0.0116 0.0844,-0.0307 0.12859,-0.0423 0.0679,-0.0178 0.10563,-0.0217 0.24148,-0.0252 0.12368,-0.003 0.17327,-0.002 0.21395,0.008 l 0.0529,0.0123 v -0.09 c 0,-0.0558 -0.004,-0.10637 -0.0128,-0.13293 -0.008,-0.0281 -0.0227,-0.0515 -0.0415,-0.0679 -0.016,-0.014 -0.0487,-0.0301 -0.074,-0.0366 -0.0331,-0.009 -0.10635,-0.0115 -0.26994,-0.0113 -0.14271,1.6e-4 -0.24283,0.004 -0.2747,0.0105 -0.0276,0.006 -0.052,0.009 -0.0544,0.006 -0.002,-0.003 -0.0221,-0.081 -0.044,-0.17484 -0.0278,-0.11884 -0.037,-0.17238 -0.0304,-0.17622 0.005,-0.003 0.057,-0.0152 0.11535,-0.0271 0.0582,-0.0119 0.14977,-0.0271 0.20336,-0.0338 0.0537,-0.007 0.14701,-0.0148 0.2076,-0.0177 0.0611,-0.003 0.15981,-0.002 0.22165,0.004 0.0613,0.005 0.14063,0.0165 0.17625,0.0256 0.0357,0.009 0.0912,0.0303 0.12355,0.0473 0.039,0.0203 0.0767,0.0497 0.11184,0.0868 0.0292,0.0309 0.0634,0.0768 0.0761,0.10222 0.0127,0.0254 0.0294,0.0688 0.0373,0.0967 0.0122,0.043 0.0152,0.11761 0.0206,0.50143 0.004,0.27247 0.0101,0.46753 0.0157,0.49299 0.005,0.0232 0.0156,0.0611 0.0231,0.0843 0.007,0.0231 0.0244,0.063 0.0371,0.0885 0.0128,0.0255 0.0373,0.0668 0.0542,0.0919 0.017,0.0251 0.0298,0.0483 0.0285,0.0517 -0.002,0.004 -0.0738,0.0653 -0.16102,0.13779 -0.0873,0.0724 -0.16005,0.13164 -0.1618,0.13164 -0.002,0 -0.0257,-0.0145 -0.0532,-0.0323 z m -0.33814,-0.43037 0.0847,-0.0231 -0.002,-0.0458 c -5.8e-4,-0.0252 -0.0114,-0.0869 -0.0232,-0.13712 -0.0137,-0.0577 -0.0218,-0.11577 -0.0218,-0.15771 0,-0.0567 -0.002,-0.0676 -0.0161,-0.075 -0.009,-0.004 -0.0423,-0.011 -0.0741,-0.0139 -0.0319,-0.003 -0.0926,-0.002 -0.13483,0.004 -0.0423,0.005 -0.0939,0.0151 -0.11486,0.0223 -0.0209,0.007 -0.0522,0.0246 -0.0696,0.0387 -0.0173,0.0142 -0.0397,0.0416 -0.0496,0.0608 -0.0115,0.0222 -0.0195,0.057 -0.022,0.0952 -0.002,0.0332 5.1e-4,0.0792 0.006,0.1025 0.006,0.0232 0.0192,0.0544 0.0302,0.0693 0.011,0.0149 0.0288,0.0332 0.0395,0.0407 0.0108,0.008 0.0386,0.0203 0.0619,0.0283 0.0301,0.0104 0.0682,0.0145 0.13134,0.0143 0.0699,-2.7e-4 0.10709,-0.005 0.1737,-0.0234 z m -10.16367,0.4069 c -0.0256,-0.002 -0.0847,-0.007 -0.13134,-0.0122 -0.0466,-0.005 -0.11333,-0.0147 -0.14828,-0.0216 -0.035,-0.007 -0.0902,-0.0203 -0.12287,-0.0297 -0.0327,-0.009 -0.0869,-0.0285 -0.12074,-0.0423 l -0.0615,-0.0252 v -0.86301 -0.86301 h 0.24573 0.24572 v 0.29405 0.29405 l 0.0826,-0.0222 c 0.0757,-0.0203 0.0958,-0.0221 0.23937,-0.0217 0.13365,2.9e-4 0.16674,0.003 0.22454,0.0188 0.0373,0.0101 0.10211,0.0352 0.14405,0.0558 0.0419,0.0206 0.098,0.0568 0.12448,0.0804 0.0265,0.0236 0.0653,0.0685 0.0862,0.0998 0.0209,0.0312 0.0457,0.0763 0.0552,0.10019 0.009,0.0238 0.0236,0.0746 0.0314,0.11284 0.0109,0.0533 0.0131,0.0962 0.01,0.18399 -0.002,0.0654 -0.0106,0.138 -0.0188,0.1693 -0.008,0.0301 -0.0316,0.0908 -0.0528,0.13484 -0.0328,0.0684 -0.049,0.0905 -0.11149,0.15185 -0.0504,0.0495 -0.0923,0.0818 -0.13476,0.10381 -0.034,0.0176 -0.0892,0.0414 -0.12287,0.0528 -0.0336,0.0114 -0.0922,0.0262 -0.13013,0.0328 -0.0379,0.007 -0.11798,0.0136 -0.17793,0.0157 -0.06,0.002 -0.12998,0.002 -0.1556,2.9e-4 z m 0.23245,-0.39686 c 0.0394,-0.011 0.0603,-0.0233 0.09,-0.0527 0.0266,-0.0265 0.0423,-0.0513 0.0508,-0.0805 0.007,-0.026 0.0123,-0.0794 0.0123,-0.13902 0,-0.0606 -0.004,-0.10919 -0.0117,-0.12962 -0.006,-0.018 -0.0246,-0.047 -0.0403,-0.0644 -0.0157,-0.0174 -0.0487,-0.0403 -0.0731,-0.051 -0.0355,-0.0154 -0.0645,-0.0201 -0.14423,-0.0232 -0.0585,-0.003 -0.12159,2.8e-4 -0.15251,0.006 -0.029,0.005 -0.0594,0.0119 -0.0677,0.0143 -0.014,0.004 -0.0148,0.0218 -0.0127,0.2586 l 0.002,0.25426 0.0423,0.01 c 0.0232,0.005 0.0898,0.0101 0.14773,0.0106 0.0755,5.8e-4 0.1199,-0.004 0.15674,-0.0136 z m 7.80867,0.36858 c -0.0816,-0.004 -0.19023,-0.0129 -0.24148,-0.0208 -0.0512,-0.008 -0.12944,-0.0233 -0.17371,-0.0343 -0.0443,-0.011 -0.111,-0.0302 -0.14828,-0.0426 -0.0373,-0.0124 -0.0745,-0.0261 -0.0827,-0.0303 -0.0141,-0.007 -0.0148,-0.0706 -0.0127,-1.19356 l 0.002,-1.18582 0.072,-0.0188 c 0.0396,-0.0104 0.12732,-0.0281 0.19488,-0.0394 0.0676,-0.0114 0.18578,-0.027 0.26268,-0.0349 0.10878,-0.0112 0.18117,-0.0131 0.32621,-0.009 0.10254,0.003 0.23217,0.0105 0.2881,0.0172 0.056,0.007 0.13857,0.0182 0.18365,0.0259 0.0451,0.008 0.10037,0.0185 0.12286,0.0239 l 0.0409,0.01 0.002,0.18871 0.002,0.18869 -0.0488,-0.005 c -0.0269,-0.003 -0.13849,-0.01 -0.248,-0.0145 -0.10953,-0.005 -0.24299,-0.007 -0.29658,-0.004 -0.0536,0.003 -0.15273,0.009 -0.2203,0.0139 -0.0676,0.004 -0.13144,0.0106 -0.14193,0.0127 l -0.019,0.004 v 0.31585 c 0,0.17373 0.002,0.31587 0.004,0.31587 0.002,0 0.0337,-0.009 0.0698,-0.0189 0.0608,-0.0175 0.0821,-0.0189 0.28183,-0.0185 0.20713,2.9e-4 0.21956,0.002 0.3002,0.0231 0.0463,0.0124 0.11871,0.0394 0.16099,0.0601 0.0424,0.0207 0.1002,0.0564 0.12872,0.0797 0.0286,0.0232 0.07,0.0661 0.0923,0.0953 0.0222,0.0292 0.0551,0.0836 0.073,0.12059 0.0179,0.0371 0.041,0.0978 0.0512,0.13484 0.0163,0.059 0.0186,0.0885 0.0187,0.23596 0,0.15576 -0.002,0.17479 -0.0223,0.25086 -0.0123,0.0452 -0.0381,0.11348 -0.0572,0.15158 -0.0191,0.0381 -0.0506,0.0895 -0.0699,0.11426 -0.0192,0.0247 -0.0585,0.0666 -0.0874,0.0928 -0.0289,0.0263 -0.0817,0.0644 -0.11733,0.0847 -0.0357,0.0203 -0.0962,0.0476 -0.13453,0.0607 -0.0383,0.0131 -0.10208,0.0294 -0.14169,0.0362 -0.0396,0.007 -0.11587,0.0142 -0.16946,0.0164 -0.0536,0.002 -0.16418,0.002 -0.24573,-0.003 z m 0.31561,-0.37836 c 0.0278,-0.011 0.0683,-0.0371 0.0947,-0.061 0.0252,-0.0229 0.056,-0.0588 0.0682,-0.0796 0.0123,-0.0208 0.0303,-0.069 0.0399,-0.10709 0.0144,-0.0569 0.0168,-0.085 0.0129,-0.15785 -0.002,-0.0488 -0.0106,-0.10758 -0.0178,-0.13076 -0.007,-0.0232 -0.0256,-0.063 -0.041,-0.0885 -0.0176,-0.0292 -0.0431,-0.0564 -0.0691,-0.0738 -0.0227,-0.0151 -0.0625,-0.0336 -0.0885,-0.0412 -0.0377,-0.0109 -0.0713,-0.0127 -0.16628,-0.009 -0.0654,0.002 -0.15616,0.01 -0.20161,0.0154 l -0.0826,0.0109 v 0.36414 0.36415 l 0.0529,0.009 c 0.0291,0.004 0.11969,0.008 0.20125,0.007 0.13204,-0.002 0.15361,-0.004 0.19697,-0.0209 z m -10.90709,0.24342 -0.0677,-0.13465 0.0232,-0.0121 c 0.0128,-0.007 0.0373,-0.0267 0.0545,-0.0444 0.0173,-0.0178 0.043,-0.0573 0.0574,-0.0879 0.0143,-0.0305 0.0317,-0.0817 0.0384,-0.11377 0.0102,-0.048 0.0125,-0.16342 0.0125,-0.65388 l 1.5e-4,-0.59563 0.0452,-0.0131 c 0.0248,-0.007 0.0849,-0.0224 0.13347,-0.0341 0.0486,-0.0115 0.12264,-0.0269 0.16458,-0.0342 0.0419,-0.007 0.14774,-0.0176 0.23513,-0.023 0.12105,-0.008 0.19669,-0.008 0.31774,0 0.0874,0.005 0.1932,0.0158 0.23514,0.023 0.0419,0.007 0.116,0.0226 0.16458,0.0342 0.0486,0.0116 0.10863,0.0269 0.13346,0.0341 l 0.0452,0.0131 v 0.87584 0.87584 H 79.96418 79.7185 l -0.002,-0.71387 -0.002,-0.71388 -0.0509,-0.0105 c -0.028,-0.006 -0.10828,-0.0107 -0.17849,-0.0109 -0.0703,-2e-4 -0.1503,0.004 -0.17794,0.009 -0.0277,0.004 -0.057,0.0108 -0.0651,0.0132 -0.0139,0.004 -0.0148,0.0308 -0.0148,0.40765 0,0.23862 -0.004,0.43025 -0.009,0.46924 -0.004,0.0363 -0.0166,0.0963 -0.026,0.13335 -0.009,0.0371 -0.0309,0.0959 -0.0481,0.13063 -0.0224,0.0456 -0.0488,0.081 -0.0948,0.12697 -0.0489,0.049 -0.0814,0.0727 -0.13996,0.10227 -0.0419,0.0212 -0.1055,0.0483 -0.14124,0.0605 -0.0357,0.0121 -0.069,0.0221 -0.0741,0.0221 -0.005,0 -0.0396,-0.0606 -0.0769,-0.13464 z m 16.57901,0.082 c -0.012,-0.029 -0.0548,-0.13041 -0.0949,-0.22543 -0.0402,-0.095 -0.0954,-0.21856 -0.12284,-0.27454 -0.0274,-0.056 -0.0649,-0.11882 -0.0833,-0.13964 -0.0215,-0.0242 -0.0456,-0.0415 -0.0669,-0.0479 -0.0183,-0.005 -0.0586,-0.01 -0.0896,-0.01 h -0.0562 v 0.36236 0.36238 h -0.24573 -0.24573 v -0.88908 -0.88908 h 0.24573 0.24573 v 0.33834 0.33833 l 0.0755,-0.004 c 0.0423,-0.003 0.0867,-0.0106 0.101,-0.018 0.014,-0.007 0.0337,-0.0246 0.0438,-0.0386 0.0101,-0.0141 0.047,-0.0852 0.082,-0.15815 0.0351,-0.0729 0.0819,-0.16286 0.10399,-0.19994 0.0222,-0.0371 0.0564,-0.0951 0.076,-0.12886 0.0239,-0.0412 0.0488,-0.071 0.0754,-0.0903 0.0219,-0.0159 0.0607,-0.0401 0.0863,-0.0537 0.0256,-0.0137 0.0692,-0.0289 0.0969,-0.034 0.0277,-0.005 0.10296,-0.009 0.16736,-0.009 0.11578,0 0.11706,2.1e-4 0.11695,0.0189 -8e-5,0.0105 -0.006,0.0815 -0.0126,0.15802 -0.006,0.0765 -0.0126,0.14229 -0.0126,0.14628 -8e-5,0.004 -0.01,0.004 -0.0213,0.002 -0.0117,-0.003 -0.0336,-9e-5 -0.0489,0.007 -0.0153,0.007 -0.0463,0.032 -0.0688,0.0568 -0.0263,0.0291 -0.0574,0.0798 -0.0872,0.14237 -0.0255,0.0534 -0.0603,0.12553 -0.0775,0.16024 -0.0202,0.0408 -0.0491,0.0813 -0.082,0.11438 -0.031,0.0313 -0.0665,0.0577 -0.091,0.0675 -0.0221,0.009 -0.0402,0.0191 -0.0403,0.0225 0,0.004 0.004,0.007 0.0106,0.007 0.006,9e-5 0.0297,0.009 0.0529,0.0199 0.0232,0.0109 0.0588,0.0364 0.0789,0.0568 0.0201,0.0203 0.0531,0.0619 0.0733,0.0923 0.0202,0.0305 0.0595,0.1006 0.0874,0.15591 0.0278,0.0553 0.10639,0.21686 0.17455,0.35899 0.0682,0.14213 0.12394,0.26254 0.12394,0.26756 0,0.007 -0.0828,0.009 -0.27443,0.009 h -0.27443 z m -19.053301,0.0192 c 0,-0.004 0.187132,-0.57242 0.415851,-1.26199 0.22872,-0.68959 0.41857,-1.2566 0.42188,-1.26002 0.004,-0.004 0.0383,-0.0165 0.0777,-0.0291 0.0657,-0.0209 0.083,-0.0229 0.20726,-0.0229 0.11245,0 0.14877,0.004 0.21299,0.019 0.0426,0.0106 0.0832,0.0236 0.0903,0.0291 0.007,0.005 0.20007,0.57533 0.42886,1.26622 0.22879,0.69089 0.41597,1.25879 0.41597,1.26199 0,0.003 -0.12175,0.006 -0.27057,0.006 -0.2504,0 -0.27089,-0.002 -0.27486,-0.0148 -0.002,-0.008 -0.0198,-0.083 -0.0387,-0.16644 -0.019,-0.0834 -0.0411,-0.18393 -0.0493,-0.22333 l -0.0148,-0.0716 h -0.46003 -0.46002 l -0.0749,0.22333 c -0.0412,0.12283 -0.07768,0.22996 -0.08097,0.23808 -0.0062,0.0136 -0.02687,0.0148 -0.276329,0.0148 -0.169631,0 -0.270235,-0.003 -0.270235,-0.008 z m 1.479771,-0.92934 c -0.003,-0.0105 -0.0356,-0.13083 -0.0732,-0.26757 -0.0376,-0.13673 -0.099,-0.36806 -0.13636,-0.51406 -0.0374,-0.14601 -0.0718,-0.27969 -0.0763,-0.29707 -0.004,-0.0173 -0.0132,-0.0316 -0.0192,-0.0316 -0.006,0 -0.0294,0.0578 -0.0587,0.14958 -0.0263,0.0823 -0.0618,0.19888 -0.0787,0.25914 -0.017,0.0603 -0.073,0.24229 -0.12437,0.40452 -0.0514,0.16222 -0.0953,0.2997 -0.0974,0.30549 -0.003,0.008 0.067,0.0105 0.33263,0.0105 h 0.33653 z m 14.67027,0.0358 v -0.90173 h 0.24573 0.24572 v 0.3371 0.3371 h 0.26692 0.2669 v -0.3371 -0.3371 h 0.24572 0.24572 v 0.90173 0.90172 h -0.24572 -0.24572 v -0.36237 -0.36238 h -0.2669 -0.26692 v 0.36238 0.36237 h -0.24572 -0.24573 z m -4.80132,0.27777 c -0.0193,-0.004 -0.0537,-0.0163 -0.0764,-0.0277 -0.0227,-0.0114 -0.0596,-0.0403 -0.082,-0.0641 -0.0224,-0.0238 -0.0489,-0.0612 -0.059,-0.083 -0.0144,-0.0313 -0.0183,-0.0559 -0.0184,-0.1156 -1e-4,-0.0648 0.003,-0.0828 0.0225,-0.12386 0.0125,-0.0264 0.0402,-0.0656 0.0619,-0.0871 0.0215,-0.0215 0.061,-0.0492 0.0876,-0.0615 0.0406,-0.0189 0.0598,-0.0225 0.12029,-0.0224 0.0622,1.1e-4 0.0782,0.004 0.11681,0.0234 0.0246,0.0128 0.0596,0.0367 0.0778,0.053 0.0181,0.0163 0.0446,0.0475 0.0587,0.0695 0.0142,0.022 0.0318,0.0634 0.0392,0.0921 0.0106,0.041 0.0116,0.0622 0.004,0.098 -0.004,0.0252 -0.014,0.0585 -0.0206,0.0739 -0.006,0.0154 -0.024,0.0442 -0.0385,0.0638 -0.0145,0.0196 -0.0465,0.0489 -0.0709,0.065 -0.0245,0.0161 -0.0673,0.0351 -0.095,0.0423 -0.0277,0.007 -0.0602,0.0126 -0.072,0.0121 -0.0119,-5.9e-4 -0.0373,-0.004 -0.0567,-0.008 z m -5.18069,-4.41308 c -0.015,-0.0125 -0.0324,-0.0352 -0.0387,-0.0503 -0.009,-0.0224 -0.0116,-0.15013 -0.0116,-0.69382 0,-0.54368 0.002,-0.67136 0.0116,-0.6938 0.006,-0.0151 0.0237,-0.0377 0.0387,-0.0503 0.0149,-0.0125 0.0365,-0.0228 0.0477,-0.0228 0.0126,0 0.0206,0.004 0.0206,0.0126 0,0.0112 0.41134,0.0128 3.60906,0.0148 l 3.60905,0.002 0.0254,0.0242 c 0.014,0.0133 0.0294,0.0341 0.0346,0.0464 0.006,0.0156 0.009,0.22281 0.007,0.69216 -0.002,0.65505 -0.003,0.67047 -0.0193,0.69243 -0.009,0.0123 -0.027,0.0284 -0.0394,0.0358 -0.0205,0.0122 -0.35434,0.0133 -3.64497,0.0133 H 82.3379 Z m 0.86901,-3.95156 c -0.49211,-0.1894 -0.6058,-0.23606 -0.62472,-0.25643 -0.0127,-0.0137 -0.0257,-0.0351 -0.0289,-0.0477 -0.003,-0.0125 -0.002,-0.0401 0.003,-0.0612 0.004,-0.0211 0.49937,-1.36379 1.09944,-2.98373 0.60006,-1.61994 1.11105,-3.00223 1.13553,-3.07176 0.0245,-0.0696 0.0644,-0.17381 0.0888,-0.23175 0.0244,-0.0579 0.0616,-0.13757 0.0827,-0.17697 0.0211,-0.0394 0.0627,-0.10828 0.0925,-0.15307 0.0298,-0.0448 0.0837,-0.11276 0.11986,-0.15106 0.0361,-0.0383 0.0961,-0.0921 0.13329,-0.11958 0.0372,-0.0275 0.10009,-0.0661 0.13981,-0.0858 0.0398,-0.0197 0.097,-0.0444 0.12723,-0.0546 0.0302,-0.0103 0.0894,-0.0262 0.13133,-0.0355 0.0503,-0.011 0.12465,-0.0183 0.21745,-0.0216 0.0906,-0.003 0.17099,-0.002 0.22454,0.006 0.0459,0.006 0.11777,0.0193 0.15973,0.0301 0.0419,0.0108 0.10678,0.0328 0.14405,0.0486 0.0373,0.0159 0.0906,0.0426 0.11842,0.0594 0.0279,0.0167 0.0825,0.0555 0.12134,0.0864 0.0389,0.0307 0.0972,0.0867 0.12957,0.12445 0.0324,0.0377 0.0794,0.0989 0.10425,0.13606 0.0249,0.0371 0.0625,0.0983 0.0835,0.13599 0.021,0.0377 0.0594,0.11428 0.0856,0.17021 0.0261,0.0559 0.0682,0.15211 0.0934,0.21373 0.0253,0.0616 0.54054,1.44842 1.14507,3.08174 0.98307,2.65599 1.09873,2.97356 1.09501,3.00639 -0.002,0.0208 -0.0133,0.0486 -0.0253,0.0642 -0.0193,0.0252 -0.075,0.0477 -0.65824,0.26669 -0.62703,0.23544 -0.63772,0.23909 -0.67097,0.22918 -0.0227,-0.007 -0.0392,-0.0189 -0.0503,-0.037 -0.009,-0.0149 -0.0165,-0.0327 -0.0165,-0.0395 8e-5,-0.007 -0.11521,-0.32076 -0.25615,-0.69736 l -0.25626,-0.68471 h -1.51709 -1.51708 l -0.25827,0.70427 c -0.22287,0.60777 -0.26197,0.70792 -0.28532,0.73087 -0.0148,0.0146 -0.0397,0.0311 -0.0551,0.0367 -0.0154,0.006 -0.0337,0.0101 -0.0407,0.0102 -0.007,5e-5 -0.28343,-0.10409 -0.61431,-0.23143 z m 3.79179,-2.61061 c 0,-0.007 -0.22814,-0.68616 -0.50698,-1.51059 -0.27885,-0.82443 -0.50859,-1.50368 -0.51052,-1.50948 -0.002,-0.006 -0.23334,0.66923 -0.51423,1.50005 -0.28088,0.83083 -0.51062,1.51534 -0.51051,1.52113 1.3e-4,0.009 0.21013,0.0105 1.02121,0.0105 0.86302,0 1.02103,-0.002 1.02103,-0.0116 z"
       id="path3653" /><ellipse
       style="fill:url(#radialGradient2018-18);fill-opacity:1;stroke-width:0.241679"
       id="path32340-2-0"
       cx="118.39359"
       cy="159.20593"
       rx="13.621285"
       ry="13.181845" /><ellipse
       style="fill:url(#radialGradient2018-1-2);fill-opacity:1;stroke-width:0.241679"
       id="path32340-2-2-1"
       cx="150.17661"
       cy="159.49045"
       rx="13.621285"
       ry="13.181845" /><path
       style="fill:#ffffff;fill-opacity:1;stroke-width:0.00897549"
       d="m 108.8222,165.46047 c -0.10084,-0.0146 -0.26019,-0.0719 -0.35615,-0.12824 -0.1423,-0.0835 -0.24872,-0.18166 -0.33863,-0.3124 -0.0706,-0.10265 -0.10942,-0.18477 -0.148,-0.31302 -0.0258,-0.0857 -0.0289,-0.10905 -0.0328,-0.2439 -0.004,-0.1475 1.8e-4,-0.19149 0.0326,-0.32297 0.0315,-0.12716 0.14851,-0.32984 0.25168,-0.43567 0.0538,-0.0551 0.18823,-0.16309 0.20317,-0.16309 0.003,0 0.0301,-0.014 0.0584,-0.0313 0.17269,-0.10541 0.46315,-0.14996 0.68194,-0.10467 0.16895,0.035 0.34037,0.11357 0.45112,0.20676 l 0.0598,0.0503 -0.12356,0.12013 c -0.0679,0.0661 -0.12508,0.12014 -0.12696,0.12014 -0.002,0 -0.0262,-0.0178 -0.0539,-0.0395 -0.13639,-0.10658 -0.35144,-0.15536 -0.52653,-0.11939 -0.16079,0.033 -0.26199,0.0879 -0.37535,0.20355 -0.10927,0.11147 -0.16993,0.23839 -0.18794,0.39309 -0.0213,0.18284 0.0239,0.35715 0.12969,0.4997 0.0896,0.12087 0.20408,0.20026 0.36137,0.25069 0.0656,0.0211 0.0913,0.0244 0.19166,0.0247 0.0817,2.7e-4 0.13302,-0.004 0.17384,-0.015 0.0719,-0.019 0.17034,-0.0651 0.22919,-0.10702 l 0.0446,-0.0317 0.12342,0.12535 c 0.0678,0.0689 0.12162,0.12707 0.1194,0.12919 -0.009,0.009 -0.0869,0.0663 -0.11995,0.0889 -0.0645,0.0439 -0.2035,0.10552 -0.29417,0.13017 -0.0779,0.0212 -0.10876,0.0246 -0.24515,0.0267 -0.0859,8.7e-4 -0.16804,7.8e-4 -0.18275,-0.002 z m 1.95236,-0.009 c -0.25692,-0.0487 -0.50409,-0.20102 -0.65491,-0.40349 -0.0715,-0.0959 -0.14527,-0.24954 -0.17499,-0.36425 -0.0346,-0.13352 -0.0398,-0.31821 -0.0129,-0.45311 0.0249,-0.12456 0.0499,-0.19508 0.10552,-0.29659 0.18528,-0.33833 0.53427,-0.54671 0.91564,-0.54671 0.19818,0 0.37493,0.0516 0.54817,0.15981 0.2288,0.14302 0.39431,0.37099 0.4578,0.63056 0.0371,0.15159 0.0427,0.27356 0.0191,0.41116 -0.0375,0.21809 -0.12844,0.39708 -0.28405,0.55904 -0.14399,0.14989 -0.3032,0.23926 -0.52705,0.29589 -0.0792,0.0201 -0.30391,0.0245 -0.39226,0.007 z m 0.37889,-0.36603 c 0.11789,-0.0368 0.20433,-0.0882 0.28151,-0.16718 0.09,-0.0922 0.13158,-0.15792 0.1709,-0.27067 0.0618,-0.1772 0.0399,-0.39621 -0.0571,-0.57266 -0.0399,-0.0725 -0.15615,-0.19219 -0.2322,-0.23902 -0.29779,-0.18336 -0.69145,-0.11858 -0.90737,0.14935 -0.068,0.0845 -0.0903,0.12545 -0.12608,0.23308 -0.0235,0.0706 -0.0256,0.0874 -0.0256,0.20785 0,0.11988 0.003,0.13742 0.0251,0.20611 0.025,0.0748 0.0651,0.1575 0.0971,0.20053 0.009,0.0124 0.0434,0.05 0.0759,0.0835 0.17462,0.18002 0.44974,0.24668 0.69785,0.16911 z m 5.98764,0.37065 c -0.26037,-0.0416 -0.50218,-0.18337 -0.67028,-0.39283 -0.0708,-0.0881 -0.15725,-0.25972 -0.18226,-0.36146 -0.0581,-0.23597 -0.0413,-0.48306 0.0459,-0.67522 0.11006,-0.24269 0.23445,-0.38067 0.45981,-0.51003 0.10776,-0.0618 0.18715,-0.0902 0.3136,-0.11181 0.22583,-0.0386 0.43196,-0.0117 0.62227,0.0813 0.13006,0.0636 0.2316,0.13525 0.31192,0.22021 0.0817,0.0864 0.12936,0.15703 0.19018,0.28166 0.0391,0.08 0.0533,0.12525 0.0889,0.28251 0.0157,0.069 0.0106,0.26087 -0.009,0.35499 -0.0256,0.12064 -0.0404,0.16362 -0.0912,0.26458 -0.0571,0.1136 -0.10707,0.18196 -0.20108,0.27506 -0.13649,0.13516 -0.27754,0.21392 -0.48306,0.26975 -0.0675,0.0183 -0.11096,0.0236 -0.21397,0.0263 -0.0711,0.002 -0.15274,-4e-4 -0.18146,-0.005 z m 0.3289,-0.36069 c 0.26899,-0.0757 0.45086,-0.27301 0.50455,-0.54723 0.0178,-0.0908 0.0185,-0.10693 0.009,-0.18733 -0.018,-0.1474 -0.045,-0.22019 -0.12401,-0.33524 -0.0928,-0.13512 -0.25053,-0.24004 -0.41635,-0.27698 -0.2515,-0.0561 -0.5223,0.0353 -0.68653,0.23156 -0.0596,0.0713 -0.1255,0.20366 -0.14323,0.28787 -0.027,0.12829 -0.0144,0.29951 0.0308,0.41902 0.0242,0.0641 0.096,0.17126 0.1511,0.22584 0.17765,0.1758 0.44348,0.24767 0.67499,0.18249 z m -5.12195,-0.66469 v -0.9624 l 0.58615,1.5e-4 c 0.47455,1.4e-4 0.59764,0.002 0.64648,0.0131 0.2039,0.0438 0.36667,0.20394 0.42222,0.4154 0.0272,0.10329 0.007,0.27427 -0.0422,0.36387 -0.0294,0.0532 -0.0784,0.12635 -0.093,0.1385 -0.0203,0.0171 -0.0155,0.0391 0.0145,0.0681 0.0396,0.0382 0.0929,0.13411 0.11437,0.20597 0.022,0.0734 0.0251,0.2108 0.006,0.28145 -0.0493,0.1864 -0.18253,0.33621 -0.35376,0.39786 -0.1055,0.038 -0.14959,0.0403 -0.73728,0.0403 l -0.56386,1e-5 z m 1.19859,0.62825 c 0.10323,-0.0449 0.16145,-0.13029 0.16026,-0.23516 -7.8e-4,-0.0688 -0.0209,-0.11522 -0.0718,-0.16533 -0.0687,-0.0676 -0.0464,-0.0648 -0.536,-0.0676 l -0.43905,-0.002 v 0.24423 0.24424 h 0.42272 c 0.40132,0 0.42479,-7.9e-4 0.46384,-0.0179 z m 0.0273,-0.81949 c 0.10414,-0.0571 0.15303,-0.17807 0.11879,-0.29396 -0.0145,-0.0488 -0.0697,-0.1096 -0.12509,-0.13756 l -0.0461,-0.0233 h -0.43063 -0.43062 v 0.23979 0.23979 l 0.43906,-0.002 c 0.43067,-0.002 0.43975,-0.003 0.47471,-0.022 z m 7.59698,1.13813 c -0.008,-0.0279 -0.005,-1.89956 0.003,-1.9043 0.004,-0.002 0.33973,-0.005 0.74614,-0.005 l 0.73893,-7.9e-4 0.003,0.15864 0.003,0.15863 h -0.58264 c -0.32046,0 -0.58432,0.002 -0.58636,0.003 -0.002,0.002 -0.003,0.11084 -8.7e-4,0.24173 l 0.003,0.23797 0.43431,3.9e-4 c 0.41782,4.1e-4 0.43697,8.9e-4 0.50413,0.0201 0.18116,0.0511 0.34273,0.20881 0.39517,0.38599 0.0221,0.0745 0.0218,0.23257 -3.8e-4,0.30725 -0.0534,0.17935 -0.20824,0.33352 -0.38807,0.38643 -0.0661,0.0195 -0.0801,0.0199 -0.66637,0.0225 -0.56831,0.002 -0.59905,0.002 -0.60319,-0.0134 z m 1.2154,-0.32426 c 0.0958,-0.0453 0.14885,-0.13653 0.14052,-0.24185 -0.005,-0.0694 -0.0305,-0.12045 -0.0797,-0.16313 -0.0671,-0.0582 -0.0784,-0.0596 -0.53944,-0.0596 h -0.41294 v 0.24446 0.24447 l 0.4257,-0.002 c 0.41068,-0.002 0.42709,-0.003 0.4658,-0.0217 z m 0.57359,0.32579 c -0.002,-0.005 0.0102,-0.0398 0.0267,-0.0768 0.0167,-0.037 0.0625,-0.14055 0.10195,-0.23001 0.11495,-0.26107 0.26931,-0.6105 0.29254,-0.66221 0.0118,-0.0262 0.0215,-0.0494 0.0215,-0.0513 0,-0.002 0.0145,-0.0354 0.0321,-0.0743 0.0176,-0.0388 0.0374,-0.0829 0.044,-0.0978 0.007,-0.0149 0.0579,-0.13081 0.11397,-0.25755 0.0561,-0.12673 0.12277,-0.27922 0.14818,-0.33886 0.0255,-0.0597 0.0513,-0.11251 0.0577,-0.11748 0.007,-0.005 0.0813,-0.01 0.17999,-0.01 h 0.16847 l 0.0157,0.0317 c 0.009,0.0174 0.0361,0.0784 0.0609,0.13555 0.0249,0.0571 0.059,0.13362 0.0757,0.16991 0.0168,0.0363 0.0305,0.0678 0.0305,0.0698 0,0.003 0.0184,0.0455 0.0769,0.1744 0.0165,0.0364 0.03,0.0681 0.03,0.0704 0,0.002 0.018,0.0432 0.0401,0.0907 0.022,0.0476 0.0401,0.0878 0.0401,0.0893 0,0.002 0.11944,0.27403 0.18253,0.41519 0.0139,0.0312 0.13881,0.31434 0.22873,0.51865 0.0337,0.0765 0.0612,0.14259 0.0612,0.14685 0,0.004 -0.0757,0.007 -0.16831,0.007 h -0.16831 l -0.0874,-0.19655 c -0.0481,-0.1081 -0.0912,-0.20162 -0.0957,-0.20784 -0.006,-0.009 -0.11672,-0.0113 -0.49776,-0.0113 h -0.48934 l -0.0226,0.052 c -0.0423,0.0974 -0.0619,0.14138 -0.11152,0.2503 l -0.0496,0.10891 -0.16772,0.004 c -0.11254,0.003 -0.16889,0.002 -0.17128,-0.005 z m 1.35679,-0.74736 c -0.0155,-0.0373 -0.14091,-0.31749 -0.23167,-0.51734 -0.0204,-0.0447 -0.0528,-0.11688 -0.0722,-0.16032 -0.0194,-0.0435 -0.0373,-0.0789 -0.0396,-0.0788 -0.003,9e-5 -0.0163,0.0275 -0.0309,0.0609 -0.0145,0.0334 -0.0436,0.0985 -0.0647,0.14469 -0.021,0.0462 -0.0383,0.0853 -0.0383,0.0871 0,0.002 -0.0183,0.0433 -0.0406,0.0923 -0.0464,0.10191 -0.0388,0.0849 -0.11505,0.25623 -0.032,0.072 -0.0584,0.13402 -0.0584,0.1378 0,0.003 0.15826,0.007 0.35168,0.007 h 0.35169 z m 3.01064,-0.20557 0.003,-0.96241 0.13818,-7.8e-4 c 0.076,-3.9e-4 0.14517,8.7e-4 0.1537,0.003 0.0145,0.003 0.0157,0.0327 0.0178,0.40184 l 0.003,0.39776 0.16047,-0.002 0.16045,-0.002 0.39672,-0.4012 0.39671,-0.40119 0.19168,-4e-4 c 0.10542,-3e-4 0.19693,0.002 0.20337,0.007 0.009,0.005 -0.11762,0.13991 -0.45021,0.48001 -0.25404,0.25978 -0.46339,0.4764 -0.46521,0.48137 -0.002,0.005 0.20478,0.22103 0.45911,0.48015 l 0.46244,0.47112 -0.2093,0.002 -0.20929,0.002 -0.3925,-0.3978 -0.3925,-0.39777 h -0.15845 -0.15846 l 7.7e-4,0.39789 7.8e-4,0.3979 -0.15659,0.002 -0.1566,0.002 0.003,-0.96239 z m -12.91371,0.95206 c -0.003,-0.003 -0.006,-0.43468 -0.006,-0.95831 v -0.95206 l 0.15378,0.002 0.15379,0.002 0.003,0.39987 0.003,0.39986 h 0.15865 0.15864 l 0.39501,-0.40212 0.39501,-0.40213 h 0.20402 c 0.1122,0 0.20401,0.003 0.20401,0.007 0,0.003 -0.20861,0.21824 -0.46357,0.47666 -0.25497,0.25841 -0.46358,0.47392 -0.46358,0.47895 0,0.005 0.2066,0.21849 0.45913,0.47441 0.25251,0.25592 0.45911,0.46838 0.45911,0.47212 0,0.003 -0.0913,0.007 -0.20286,0.007 h -0.20285 l -0.39217,-0.39761 -0.39219,-0.39761 h -0.15818 -0.15818 l -0.003,0.39534 -0.003,0.39536 -0.14764,0.002 c -0.0812,8.7e-4 -0.1504,-3.4e-4 -0.15378,-0.003 z m 4.23734,-0.95185 v -0.9581 h 0.1583 0.1583 l 0.0802,0.0969 c 0.36511,0.44134 0.67737,0.8117 0.68617,0.81388 0.0102,0.002 0.0617,-0.0558 0.22309,-0.25192 0.10554,-0.12825 0.39835,-0.4793 0.48004,-0.5755 l 0.0712,-0.0838 0.15023,0.002 0.15022,0.002 -9e-5,0.94658 c 0,0.52062 -1.1e-4,0.95065 -1.5e-4,0.95562 0,0.005 -0.0566,0.01 -0.1516,0.01 h -0.15156 v -0.68301 c 0,-0.41407 -0.003,-0.68183 -0.009,-0.68 -0.004,0.002 -0.0532,0.0558 -0.10799,0.12048 -0.15866,0.18686 -0.23886,0.28061 -0.47405,0.55416 -0.0441,0.0513 -0.10003,0.11739 -0.12418,0.14685 -0.0242,0.0295 -0.0489,0.0533 -0.0548,0.053 -0.009,-3.9e-4 -0.10988,-0.11713 -0.34463,-0.40092 -0.0413,-0.05 -0.10358,-0.1238 -0.13818,-0.1639 -0.0345,-0.0401 -0.11279,-0.13236 -0.17378,-0.20505 -0.061,-0.0728 -0.11422,-0.13008 -0.11827,-0.12754 -0.004,0.002 -0.007,0.31442 -0.007,0.69304 l 3.8e-4,0.6884 -0.15189,0.002 -0.15188,0.002 v -0.95808 z m 6.55664,0.94657 c -0.003,-0.006 -0.003,-0.43645 -0.002,-0.95582 l 0.003,-0.94433 h 0.156 0.15602 l 0.003,0.39761 0.003,0.39761 0.55486,-0.002 0.55485,-0.002 0.003,-0.39775 0.003,-0.39775 h 0.15596 0.15596 l -0.003,0.95562 -0.003,0.95562 h -0.15408 -0.15405 l -0.002,-0.3931 -0.002,-0.39308 -0.55486,-0.002 -0.55485,-0.002 -0.003,0.39541 -0.003,0.39542 -0.15398,0.002 c -0.11829,0.002 -0.15498,-1.8e-4 -0.1583,-0.01 z M 118.15173,161.2 c -0.2308,-0.0117 -0.40573,-0.0271 -0.51707,-0.0459 -0.0564,-0.01 -0.12257,-0.0172 -0.1471,-0.0172 -0.0245,-1e-4 -0.0766,-0.007 -0.11588,-0.017 -0.0392,-0.01 -0.11145,-0.0218 -0.16048,-0.0278 -0.049,-0.006 -0.12123,-0.0205 -0.16046,-0.0323 -0.0392,-0.0119 -0.0983,-0.0257 -0.13127,-0.0311 -0.033,-0.005 -0.0697,-0.0133 -0.0817,-0.0179 -0.012,-0.004 -0.0532,-0.0147 -0.0916,-0.0226 -0.0385,-0.007 -0.096,-0.0239 -0.12785,-0.036 -0.0319,-0.0119 -0.0981,-0.0368 -0.14708,-0.0551 -0.049,-0.0183 -0.11122,-0.0428 -0.13818,-0.0546 -0.027,-0.0117 -0.059,-0.0239 -0.0713,-0.0271 -0.0122,-0.003 -0.0464,-0.0163 -0.0758,-0.0289 -0.11858,-0.0511 -0.19943,-0.0871 -0.263,-0.11715 -0.0368,-0.0174 -0.0929,-0.0437 -0.12481,-0.0584 -0.11041,-0.0511 -0.13865,-0.0665 -0.27626,-0.15113 -0.0761,-0.0468 -0.16786,-0.10244 -0.20402,-0.12373 -0.0362,-0.0213 -0.0743,-0.0463 -0.0847,-0.0555 -0.0104,-0.01 -0.041,-0.0322 -0.0679,-0.0511 -0.027,-0.0188 -0.0711,-0.0521 -0.0981,-0.0739 -0.027,-0.0219 -0.0808,-0.0632 -0.11938,-0.0918 -0.0387,-0.0286 -0.10643,-0.0846 -0.15051,-0.12432 -0.0441,-0.0398 -0.10496,-0.0926 -0.13529,-0.11747 -0.22018,-0.1805 -0.47465,-0.4393 -0.613,-0.62352 -0.0224,-0.0298 -0.0482,-0.0632 -0.0573,-0.0739 -0.009,-0.0109 -0.0386,-0.0512 -0.0656,-0.0896 -0.027,-0.0383 -0.0618,-0.0865 -0.0774,-0.10675 -0.0434,-0.0565 -0.15798,-0.2302 -0.18525,-0.28094 -0.0134,-0.0248 -0.0315,-0.0533 -0.0402,-0.0633 -0.009,-0.01 -0.0255,-0.0359 -0.0371,-0.0577 -0.0248,-0.0466 -0.0303,-0.0556 -0.0658,-0.10948 -0.0285,-0.0431 -0.04,-0.0662 -0.15881,-0.31682 -0.0928,-0.19595 -0.12607,-0.27235 -0.14787,-0.33999 -0.009,-0.0289 -0.0317,-0.0932 -0.0497,-0.14292 -0.0603,-0.16607 -0.0941,-0.27048 -0.11113,-0.34339 -0.028,-0.12006 -0.0543,-0.22197 -0.077,-0.2982 -0.0118,-0.0398 -0.0257,-0.10686 -0.0309,-0.1491 -0.005,-0.0422 -0.0148,-0.10116 -0.0215,-0.13104 -0.0155,-0.0689 -0.0214,-0.10705 -0.032,-0.20784 -0.004,-0.0448 -0.0123,-0.10287 -0.017,-0.1291 -0.0128,-0.073 -0.0296,-0.43007 -0.0285,-0.60738 8.7e-4,-0.18862 0.0154,-0.43087 0.0326,-0.55574 0.007,-0.0497 0.015,-0.11478 0.0181,-0.14459 0.003,-0.0298 0.015,-0.10709 0.0265,-0.1717 0.0115,-0.0647 0.0233,-0.13937 0.0265,-0.16613 0.003,-0.0267 0.0151,-0.0776 0.0267,-0.11297 0.0115,-0.0353 0.0238,-0.0826 0.0274,-0.10499 0.003,-0.0223 0.0136,-0.0611 0.0225,-0.0858 0.009,-0.0249 0.0208,-0.0696 0.0266,-0.0994 0.0115,-0.0599 0.0591,-0.2086 0.11539,-0.36146 0.0202,-0.0547 0.0442,-0.12177 0.0533,-0.14909 0.0211,-0.0631 0.0646,-0.16788 0.0906,-0.21848 0.011,-0.0215 0.0257,-0.0504 0.0326,-0.0642 0.067,-0.13495 0.18136,-0.35469 0.20276,-0.38969 0.0349,-0.0571 0.16484,-0.27571 0.17769,-0.29899 0.0207,-0.0375 0.0597,-0.0961 0.0745,-0.11183 0.009,-0.009 0.0353,-0.0435 0.0599,-0.0767 0.0245,-0.0332 0.0686,-0.0914 0.0981,-0.12929 0.0294,-0.0379 0.0743,-0.0966 0.0995,-0.13033 0.0876,-0.11696 0.33627,-0.3814 0.47074,-0.50066 0.0691,-0.0613 0.14398,-0.12888 0.16514,-0.1491 0.0529,-0.0505 0.15031,-0.13269 0.21851,-0.18424 0.0441,-0.0333 0.11033,-0.0837 0.1471,-0.11204 0.0659,-0.0506 0.17253,-0.12561 0.22647,-0.15916 0.0152,-0.01 0.0589,-0.0368 0.097,-0.061 0.0382,-0.0241 0.0725,-0.0438 0.0766,-0.0438 0.003,0 0.0296,-0.0163 0.0569,-0.0362 0.0274,-0.0199 0.0536,-0.0362 0.0582,-0.0362 0.004,0 0.018,-0.007 0.0298,-0.0171 0.0118,-0.01 0.0755,-0.0443 0.1416,-0.0774 0.0661,-0.0332 0.14621,-0.0738 0.17807,-0.0903 0.0319,-0.0165 0.0679,-0.0331 0.0802,-0.0367 0.0122,-0.003 0.0275,-0.0109 0.0339,-0.0161 0.0174,-0.0142 0.16202,-0.0781 0.19784,-0.0876 0.0172,-0.004 0.0814,-0.027 0.14264,-0.0501 0.0613,-0.0231 0.12949,-0.0474 0.15155,-0.0542 0.0221,-0.007 0.0703,-0.0223 0.10698,-0.0345 0.0965,-0.0319 0.26359,-0.0782 0.28262,-0.0782 0.009,0 0.0383,-0.007 0.0652,-0.0181 0.0619,-0.023 0.33972,-0.077 0.46615,-0.0907 0.053,-0.006 0.11917,-0.0162 0.14709,-0.0232 0.0602,-0.0151 0.33302,-0.0292 0.62827,-0.0326 0.18047,-0.002 0.21324,-3.9e-4 0.22051,0.0112 0.007,0.0106 0.0171,1.82939 0.0113,1.97406 -3.8e-4,0.0147 -0.007,0.0313 -0.0146,0.0367 -0.008,0.006 -0.10477,0.0143 -0.23919,0.0206 -0.12412,0.006 -0.26378,0.0164 -0.31036,0.0236 -0.0466,0.007 -0.13684,0.0178 -0.20059,0.0235 -0.0718,0.006 -0.13964,0.0184 -0.17829,0.0313 -0.0343,0.0115 -0.0805,0.0236 -0.10252,0.027 -0.0458,0.007 -0.25891,0.0738 -0.29349,0.0921 -0.0126,0.007 -0.0266,0.0122 -0.031,0.0122 -0.0102,7e-5 -0.14511,0.0564 -0.21492,0.0897 -0.0294,0.0139 -0.0715,0.0334 -0.0936,0.0431 -0.0697,0.0306 -0.20788,0.10361 -0.2513,0.13285 -0.023,0.0155 -0.0731,0.0476 -0.11144,0.0714 -0.0848,0.0526 -0.16063,0.10605 -0.2275,0.1601 -0.0277,0.0223 -0.0727,0.0567 -0.10022,0.0764 -0.0517,0.0368 -0.27879,0.26772 -0.38544,0.39178 -0.0882,0.10265 -0.23566,0.29479 -0.25999,0.33884 -0.0115,0.021 -0.0261,0.044 -0.0324,0.0516 -0.006,0.007 -0.0196,0.0298 -0.0293,0.0497 -0.0102,0.0199 -0.0315,0.0565 -0.048,0.0814 -0.0313,0.047 -0.13138,0.24948 -0.16983,0.34339 -0.0972,0.23732 -0.13813,0.34969 -0.15479,0.42472 -0.008,0.0348 -0.0216,0.0876 -0.0309,0.11747 -0.009,0.0298 -0.021,0.0864 -0.0262,0.12557 -0.005,0.0393 -0.0152,0.0941 -0.0222,0.12198 -0.0265,0.10425 -0.0333,0.21561 -0.033,0.53412 2.4e-4,0.24549 0.003,0.33989 0.014,0.40213 0.0375,0.22351 0.0595,0.33852 0.0723,0.37953 0.008,0.0248 0.0204,0.0756 0.0281,0.11296 0.008,0.0373 0.0198,0.0794 0.027,0.0936 0.007,0.0142 0.0184,0.0426 0.025,0.0632 0.0138,0.0432 0.0858,0.21511 0.14255,0.34022 0.0894,0.19724 0.10299,0.22406 0.14145,0.28013 0.0221,0.0322 0.0531,0.0811 0.0686,0.10844 0.0156,0.0273 0.041,0.0659 0.0566,0.0858 0.0156,0.0199 0.0349,0.0463 0.0432,0.0587 0.0555,0.0836 0.126,0.17073 0.23926,0.29526 0.17432,0.19167 0.3259,0.33073 0.48581,0.44573 0.038,0.0273 0.0815,0.0602 0.0966,0.0732 0.0151,0.013 0.0375,0.0288 0.0497,0.0352 0.0122,0.006 0.0624,0.0383 0.11145,0.0706 0.049,0.0324 0.10318,0.0681 0.12034,0.0793 0.0295,0.0192 0.10923,0.0582 0.2719,0.13288 0.0392,0.0181 0.0893,0.0373 0.1114,0.043 0.022,0.005 0.0543,0.0177 0.0717,0.0266 0.0174,0.009 0.0474,0.0194 0.0666,0.0231 0.0192,0.003 0.0517,0.0142 0.0722,0.0233 0.0205,0.01 0.0688,0.023 0.10728,0.0307 0.0385,0.007 0.0841,0.0199 0.10125,0.027 0.0172,0.007 0.0533,0.0167 0.0802,0.0213 0.027,0.004 0.0972,0.0186 0.15603,0.0314 0.1603,0.0347 0.4581,0.0582 0.66522,0.0526 0.0867,-0.002 0.10596,-3.8e-4 0.11823,0.012 0.0135,0.0136 0.0145,0.0983 0.0123,1.02997 -8.8e-4,0.5583 -0.005,1.01789 -0.009,1.02131 -0.0102,0.0106 -0.13662,0.012 -0.29253,0.004 z m 1.18633,-0.15923 -0.0184,-0.0238 v -1.35287 c 0,-1.277 -7.8e-4,-1.35366 -0.0156,-1.36708 -0.0137,-0.0126 -0.0877,-0.0146 -0.63519,-0.0181 -0.5907,-0.003 -0.62414,-0.004 -0.71714,-0.0233 -0.0537,-0.0107 -0.12045,-0.0196 -0.14844,-0.0196 -0.052,0 -0.26593,-0.0575 -0.38941,-0.10467 -0.033,-0.0126 -0.084,-0.0311 -0.11344,-0.041 -0.0526,-0.0178 -0.072,-0.0264 -0.21397,-0.0951 -0.0584,-0.0283 -0.21342,-0.12411 -0.24962,-0.1543 -0.005,-0.004 -0.0491,-0.0378 -0.0981,-0.0747 -0.24859,-0.18749 -0.43506,-0.38428 -0.57055,-0.60211 -0.0102,-0.0157 -0.0255,-0.0403 -0.0349,-0.0545 -0.0499,-0.075 -0.0944,-0.14869 -0.11655,-0.19299 -0.0365,-0.073 -0.10252,-0.23536 -0.10253,-0.25211 0,-0.007 -0.0115,-0.0389 -0.0255,-0.0689 -0.014,-0.03 -0.0283,-0.0739 -0.0319,-0.0978 -0.003,-0.0238 -0.0158,-0.0685 -0.0272,-0.0992 -0.0114,-0.0308 -0.0232,-0.0763 -0.0264,-0.10095 -0.008,-0.0625 -0.0307,-0.22305 -0.0419,-0.29354 -0.0182,-0.1144 -0.0207,-0.37612 -0.004,-0.47944 0.0405,-0.25707 0.0536,-0.31949 0.085,-0.40614 0.0102,-0.0273 0.0181,-0.0611 0.0183,-0.0749 1.6e-4,-0.0138 0.009,-0.0419 0.0191,-0.0624 0.0103,-0.0205 0.0244,-0.058 0.0315,-0.0832 0.0117,-0.0424 0.0255,-0.0739 0.0929,-0.21321 0.0131,-0.0273 0.0269,-0.0591 0.0305,-0.0708 0.005,-0.0183 0.0472,-0.0867 0.0695,-0.11438 0.004,-0.005 0.0291,-0.043 0.0558,-0.0842 0.0997,-0.1547 0.27529,-0.36817 0.35459,-0.4311 0.046,-0.0366 0.11157,-0.0909 0.1476,-0.12261 0.0164,-0.0145 0.0331,-0.0263 0.0371,-0.0263 0.004,0 0.0361,-0.0244 0.0713,-0.0541 0.0351,-0.0298 0.0673,-0.0542 0.0715,-0.0542 0.004,0 0.0127,-0.005 0.0192,-0.0119 0.0119,-0.0119 0.10633,-0.0753 0.17225,-0.11542 0.0196,-0.0119 0.0553,-0.0287 0.0794,-0.0373 0.024,-0.009 0.0501,-0.0211 0.058,-0.0275 0.008,-0.006 0.0364,-0.0196 0.0633,-0.0287 0.0269,-0.01 0.0632,-0.0237 0.0802,-0.0322 0.0172,-0.009 0.047,-0.0184 0.0664,-0.022 0.0194,-0.003 0.0503,-0.0144 0.0688,-0.0238 0.033,-0.017 0.0836,-0.0329 0.19013,-0.0594 0.0294,-0.007 0.0735,-0.019 0.0981,-0.0261 0.1323,-0.0379 0.32918,-0.0476 0.98213,-0.0488 0.30085,-3.9e-4 0.55643,-0.004 0.56796,-0.01 0.0115,-0.004 0.0235,-0.0149 0.0267,-0.0231 0.003,-0.007 0.005,-0.62372 0.005,-1.36773 0,-1.54454 -0.009,-1.39865 0.0802,-1.39051 0.0279,0.002 0.0784,0.0132 0.11237,0.0236 0.0338,0.0106 0.10374,0.0292 0.15521,0.0419 0.10314,0.0255 0.34662,0.10211 0.36167,0.11389 0.005,0.004 0.037,0.0139 0.0704,0.0217 0.0335,0.007 0.0754,0.0218 0.093,0.0308 0.0176,0.01 0.0526,0.0228 0.0778,0.0302 0.0251,0.007 0.0592,0.0209 0.0758,0.0297 0.0166,0.009 0.0542,0.0249 0.0836,0.0358 0.10023,0.0373 0.20299,0.0848 0.262,0.1208 0.0324,0.0198 0.0669,0.0388 0.0767,0.0423 0.0102,0.003 0.0238,0.0113 0.0312,0.0173 0.007,0.006 0.0527,0.0318 0.10074,0.0571 0.0481,0.0253 0.0988,0.0543 0.1128,0.0645 0.014,0.0106 0.029,0.0184 0.0336,0.0184 0.004,0 0.0279,0.0143 0.052,0.0317 0.0241,0.0174 0.0465,0.0317 0.0497,0.0317 0.003,0 0.0414,0.0237 0.0847,0.0527 0.0434,0.029 0.0989,0.0653 0.12345,0.0808 0.0519,0.0327 0.0882,0.0598 0.17269,0.12851 0.0336,0.0273 0.0844,0.068 0.11299,0.0903 0.1672,0.13096 0.46162,0.40951 0.65635,0.62095 0.1345,0.14605 0.17755,0.19725 0.28377,0.33751 0.0269,0.0356 0.0595,0.0774 0.0722,0.0931 0.0127,0.0155 0.0649,0.0935 0.1159,0.17313 0.11234,0.17549 0.11048,0.1725 0.13257,0.21381 0.0102,0.0183 0.022,0.0359 0.0271,0.0391 0.005,0.003 0.0205,0.0288 0.0341,0.0571 0.0136,0.0282 0.0389,0.0777 0.056,0.10999 0.0608,0.11446 0.0583,0.10944 0.14764,0.28886 0.0358,0.0719 0.0652,0.13697 0.0652,0.14459 0,0.007 0.005,0.0247 0.0124,0.0379 0.007,0.0132 0.0211,0.0478 0.0318,0.0768 0.0107,0.029 0.027,0.0661 0.0364,0.0823 0.009,0.0163 0.0236,0.0529 0.0318,0.0814 0.008,0.0285 0.0203,0.0628 0.027,0.0763 0.007,0.0135 0.0184,0.0538 0.0258,0.0897 0.008,0.0359 0.0174,0.0699 0.0221,0.0755 0.0178,0.0217 0.11361,0.37053 0.13279,0.48346 0.004,0.0273 0.0167,0.0802 0.0269,0.11748 0.0102,0.0373 0.0207,0.0963 0.0232,0.13103 0.0112,0.15274 0.0148,0.18155 0.0314,0.25204 0.049,0.20932 0.0488,1.12461 -3.9e-4,1.33247 -0.0102,0.0414 -0.022,0.12321 -0.0269,0.18165 -0.005,0.0585 -0.0173,0.13431 -0.0275,0.1686 -0.0102,0.0344 -0.0239,0.0929 -0.0308,0.1301 -0.0231,0.12693 -0.10023,0.40885 -0.12998,0.47501 -0.009,0.0202 -0.0165,0.0415 -0.0165,0.0474 0,0.016 -0.0788,0.25556 -0.0878,0.26725 -0.004,0.005 -0.0164,0.0336 -0.0268,0.0623 -0.0105,0.0287 -0.0246,0.0613 -0.0316,0.0723 -0.007,0.011 -0.0177,0.0378 -0.0239,0.0594 -0.006,0.0216 -0.0373,0.0907 -0.0688,0.15361 -0.0316,0.0629 -0.0708,0.14136 -0.087,0.17444 -0.0162,0.0331 -0.0334,0.0627 -0.0382,0.0656 -0.004,0.003 -0.0154,0.0257 -0.0235,0.0505 -0.008,0.0248 -0.0179,0.0451 -0.0218,0.0451 -0.004,0 -0.0203,0.026 -0.0363,0.0578 -0.0161,0.0318 -0.0525,0.0897 -0.081,0.12878 -0.0284,0.039 -0.0616,0.0896 -0.0738,0.11225 -0.012,0.0227 -0.0283,0.0465 -0.036,0.0531 -0.008,0.006 -0.0141,0.0165 -0.0141,0.0223 0,0.006 -0.0119,0.0247 -0.0264,0.0419 -0.0145,0.0172 -0.0266,0.0339 -0.0267,0.0372 -3.9e-4,0.006 -0.10656,0.154 -0.13223,0.1838 -0.009,0.01 -0.0295,0.0375 -0.0466,0.0612 -0.0722,0.10041 -0.12332,0.16137 -0.21366,0.25511 -0.0527,0.0547 -0.12341,0.128 -0.15717,0.16296 -0.0981,0.10159 -0.31532,0.30606 -0.37813,0.35591 -0.0317,0.0251 -0.0617,0.049 -0.0666,0.053 -0.0661,0.053 -0.162,0.12655 -0.17699,0.13572 -0.0105,0.006 -0.0452,0.0316 -0.0771,0.0558 -0.0558,0.0426 -0.2706,0.19398 -0.30146,0.21249 -0.009,0.005 -0.029,0.0191 -0.0461,0.0317 -0.0172,0.0124 -0.0553,0.0353 -0.0847,0.0507 -0.0294,0.0155 -0.0917,0.0483 -0.13823,0.073 -0.22541,0.11939 -0.37684,0.19249 -0.3991,0.19265 -0.009,9e-5 -0.0319,0.01 -0.0519,0.0213 -0.0201,0.0116 -0.0482,0.024 -0.0624,0.0275 -0.0143,0.003 -0.052,0.0181 -0.0838,0.0322 -0.0319,0.0141 -0.076,0.0316 -0.0981,0.0387 -0.11688,0.0378 -0.34499,0.11632 -0.35659,0.1229 -0.007,0.004 -0.0414,0.013 -0.0758,0.0196 -0.0343,0.007 -0.0664,0.015 -0.0714,0.0185 -0.005,0.003 -0.0471,0.0154 -0.0936,0.0263 -0.0466,0.0108 -0.10959,0.0255 -0.14001,0.0325 -0.0759,0.0175 -0.0877,0.0165 -0.10895,-0.011 z"
       id="path10969" /><path
       style="fill:#ffffff;fill-opacity:1;stroke-width:0.0198922"
       d="m 138.8463,160.70266 v -2.19205 l 1.15035,-1.08436 1.15034,-1.08436 v 1.08506 1.08504 l 1.13515,-1.08343 1.13514,-1.08344 h 1.1452 1.14519 v 2.19136 2.19135 l -1.13514,1.08344 c -0.62434,0.59589 -1.14199,1.08343 -1.15036,1.08343 -0.009,0 -0.0152,-0.48754 -0.0152,-1.08343 v -1.08344 l -1.13515,1.08344 -1.13514,1.08343 h -1.14518 -1.1452 z m 4.56067,-1.07303 v -1.08836 h -1.12998 -1.13 v 1.08836 1.08836 h 1.13 1.12998 z m 11.35078,2.27142 c -0.58916,-0.0702 -1.19541,-0.40548 -1.55963,-0.86238 -0.71704,-0.89951 -0.6576,-2.20218 0.13791,-3.02236 0.26044,-0.26854 0.69348,-0.5109 1.09596,-0.61339 0.27177,-0.0692 0.79881,-0.0885 1.07318,-0.0392 0.47435,0.0851 0.88953,0.28907 1.24067,0.6093 0.088,0.0802 0.15991,0.15551 0.15991,0.16734 0,0.0118 -0.16193,0.17627 -0.35982,0.3654 l -0.35984,0.34387 -0.14204,-0.12552 c -0.25791,-0.22795 -0.58058,-0.34581 -0.94018,-0.34341 -0.40928,0.003 -0.74054,0.16223 -0.95084,0.45784 -0.17333,0.24364 -0.25234,0.53574 -0.23475,0.86793 0.0356,0.67078 0.46822,1.11037 1.14161,1.15979 0.42739,0.0314 0.88515,-0.16489 1.12385,-0.48182 0.0429,-0.0571 0.0813,-0.10771 0.0853,-0.11256 0.0117,-0.0146 0.73857,0.68671 0.73857,0.71263 0,0.0132 -0.0888,0.11235 -0.19741,0.22033 -0.54181,0.53884 -1.27793,0.78853 -2.05239,0.69619 z m -6.76975,-2.28114 v -2.18643 h 2.11746 2.11745 v 2.18643 2.18643 h -0.6005 -0.60052 l -0.005,-1.68598 -0.005,-1.68598 h -0.90603 -0.90603 l -0.005,1.68598 -0.005,1.68598 h -0.6005 -0.60052 z m 9.42675,8.6e-4 v -2.18733 h 1.75098 1.75096 v 0.49543 0.49543 l -1.14525,0.005 -1.14526,0.005 -0.006,0.31343 -0.006,0.31343 0.68765,0.0102 c 0.75193,0.0112 0.91255,0.0301 1.18648,0.13992 0.56682,0.22717 0.83652,0.66402 0.80923,1.3108 -0.0129,0.30748 -0.0722,0.49789 -0.22104,0.71028 -0.12419,0.17723 -0.27798,0.30142 -0.49939,0.40324 -0.35499,0.16325 -0.29441,0.15772 -1.81432,0.16551 l -1.34887,0.007 v -2.18733 z m 2.34964,1.21974 c 0.43542,-0.11662 0.44215,-0.66937 0.01,-0.79197 -0.0846,-0.024 -0.21594,-0.0302 -0.63239,-0.0302 h -0.52566 v 0.42756 0.42757 h 0.51275 c 0.41987,0 0.53502,-0.006 0.63564,-0.0329 z"
       id="path12810" /></g></svg>
