<?xml version="1.0" encoding="UTF-8" standalone="no"?>
<!-- Created with Inkscape (http://www.inkscape.org/) -->

<svg
   width="36.081184mm"
   height="36.217743mm"
   viewBox="0 0 36.081184 36.217743"
   version="1.1"
   id="svg3044"
   xml:space="preserve"
   inkscape:version="1.2.2 (732a01da63, 2022-12-09)"
   sodipodi:docname="icon2.svg"
   xmlns:inkscape="http://www.inkscape.org/namespaces/inkscape"
   xmlns:sodipodi="http://sodipodi.sourceforge.net/DTD/sodipodi-0.dtd"
   xmlns="http://www.w3.org/2000/svg"
   xmlns:svg="http://www.w3.org/2000/svg"><sodipodi:namedview
     id="namedview3046"
     pagecolor="#ffffff"
     bordercolor="#000000"
     borderopacity="0.25"
     inkscape:showpageshadow="2"
     inkscape:pageopacity="0.0"
     inkscape:pagecheckerboard="0"
     inkscape:deskcolor="#d1d1d1"
     inkscape:document-units="mm"
     showgrid="false"
     inkscape:zoom="2.9006173"
     inkscape:cx="45.507555"
     inkscape:cy="84.637157"
     inkscape:window-width="1920"
     inkscape:window-height="1001"
     inkscape:window-x="-9"
     inkscape:window-y="-9"
     inkscape:window-maximized="1"
     inkscape:current-layer="layer1" /><defs
     id="defs3041" /><g
     inkscape:label="Слой 1"
     inkscape:groupmode="layer"
     id="layer1"
     transform="translate(-41.732353,-73.233146)"><path
       style="fill:#ffffff;stroke-width:0.290588;fill-opacity:1"
       d="m 56.580396,109.04399 c -3.224977,-0.83132 -5.490626,-2.29456 -7.407061,-4.78375 -2.719228,-3.53192 -3.256056,-8.594211 -1.329338,-12.535665 4.7852,-9.788997 19.075385,-9.783492 23.862388,0.0092 1.233648,2.52365 1.487186,6.182558 0.611389,8.823235 -2.123884,6.40388 -9.140062,10.18762 -15.737378,8.48699 z m 8.313049,-1.74795 c 7.851148,-3.5603 9.349384,-13.231269 2.931057,-18.919715 -2.497992,-2.213924 -4.393006,-2.895381 -8.051557,-2.895381 -3.658552,0 -5.553566,0.681457 -8.051558,2.895381 -4.055191,3.59404 -5.165284,8.965097 -2.803156,13.562735 1.420808,2.76546 3.312083,4.40654 6.597211,5.72449 1.495731,0.60007 2.119307,0.68465 4.554502,0.6178 2.461298,-0.0676 3.07708,-0.19337 4.823501,-0.98531 z m -8.682899,-0.54528 c -5.317743,-1.84561 -8.372112,-7.225514 -7.004181,-12.337018 0.869289,-3.248249 3.061315,-5.750288 6.283741,-7.172437 2.101485,-0.927446 6.464192,-0.927446 8.565677,0 6.931147,3.058915 8.794307,11.345679 3.740969,16.638695 -2.133275,2.23444 -4.220457,3.12748 -7.578308,3.2425 -1.926983,0.066 -3.045559,-0.0377 -4.007898,-0.37174 z m 7.898167,-1.39128 c 2.02108,-0.94659 4.067629,-3.1273 4.881249,-5.20124 0.496295,-1.265077 0.612919,-2.089341 0.531067,-3.75343 -0.178106,-3.621006 -2.081092,-6.398321 -5.482368,-8.001249 -3.901937,-1.838874 -8.422577,-1.024024 -11.453484,2.064504 -4.976095,5.070695 -2.49742,13.618445 4.500085,15.518595 2.005653,0.54463 5.114165,0.26705 7.023451,-0.62718 z m -9.919366,-2.47228 c -0.498931,-0.47763 -0.498931,-9.075369 0,-9.552989 0.511747,-0.489889 1.733085,-0.420225 2.374481,0.135439 0.676183,0.585802 0.87227,0.404353 1.744027,-1.613876 0.371494,-0.860053 0.802653,-1.723659 0.958132,-1.919126 0.45759,-0.575278 1.908185,-0.416727 2.601217,0.284315 0.537908,0.544125 0.606063,0.860705 0.456143,2.118772 l -0.176257,1.479064 1.826781,0.08462 c 1.552036,0.07198 1.910612,0.192481 2.38418,0.801485 0.545638,0.701694 0.545149,0.773676 -0.0232,3.411777 -0.70594,3.276759 -0.841702,3.630519 -1.528327,3.982289 -0.296743,0.15203 -2.271469,0.27642 -4.38828,0.27642 -3.147129,0 -3.879912,0.0777 -4.019701,0.42647 -0.204991,0.51138 -1.703658,0.56924 -2.209197,0.0853 z m 1.5741,-4.800196 c 0,-3.4539 -0.0701,-4.098864 -0.4455,-4.098864 -0.369789,0 -0.459653,0.649853 -0.528783,3.823902 -0.08773,4.028038 4.16e-4,4.684598 0.603189,4.492258 0.273911,-0.0874 0.371094,-1.19184 0.371094,-4.217296 z m 8.508922,3.080086 c 0.429008,-0.33512 1.440571,-4.211404 1.440571,-5.520221 0,-0.788343 -0.509968,-0.947947 -3.028928,-0.947947 -2.028607,0 -2.083472,-0.0186 -1.887264,-0.639709 0.511139,-1.618041 0.524884,-2.936159 0.03468,-3.325616 -0.624331,-0.496018 -0.858954,-0.256549 -1.655885,1.690096 -0.770567,1.882243 -1.084053,2.275229 -1.814965,2.275229 -0.51271,0 -0.557634,0.259595 -0.557634,3.222231 0,1.772246 0.0891,3.307537 0.198001,3.411787 0.373628,0.35768 6.788538,0.21135 7.271424,-0.16585 z M 43.593683,86.180673 c -0.159918,-0.247702 0.181962,-1.884124 0.624027,-2.986925 0.0916,-0.228512 -0.397591,-0.74387 -1.220713,-1.286005 -0.755463,-0.497573 -1.322434,-1.053639 -1.259935,-1.235701 0.0625,-0.182063 0.894328,-0.394994 1.84851,-0.47318 l 1.734873,-0.142158 0.495141,-1.421574 c 0.282813,-0.811974 0.675185,-1.421575 0.915003,-1.421575 0.243353,0 0.616869,0.597627 0.88848,1.421575 l 0.468617,1.421574 1.833132,0.08464 c 2.258911,0.104306 2.36792,0.507472 0.486867,1.800646 -0.740445,0.509036 -1.284578,1.079407 -1.209183,1.26749 0.07539,0.188082 0.302703,0.871159 0.505132,1.517947 0.54129,1.729505 0.06959,1.952843 -1.579172,0.747691 l -1.357835,-0.992504 -1.144586,0.787951 c -1.672329,1.151254 -1.827669,1.220954 -2.028358,0.910104 z m 4.05667,-2.248635 c 0.61497,0.419195 0.888729,0.500491 0.783256,0.232597 -0.574184,-1.458391 -0.555476,-1.638824 0.231355,-2.231311 l 0.793093,-0.597203 h -0.956851 c -0.790432,0 -1.015345,-0.148348 -1.293166,-0.852944 -0.184974,-0.46912 -0.411362,-0.852945 -0.503088,-0.852945 -0.09172,0 -0.318114,0.383825 -0.503087,0.852945 -0.277822,0.704596 -0.502735,0.852944 -1.293166,0.852944 h -0.956851 l 0.793093,0.597203 c 0.78683,0.592487 0.805539,0.77292 0.231354,2.231311 -0.105473,0.267894 0.168286,0.186598 0.783257,-0.232597 l 0.9454,-0.644433 z m 22.040255,2.118397 c -0.09687,-0.241668 0.03772,-1.040219 0.299098,-1.774558 0.261377,-0.734338 0.475232,-1.354652 0.475232,-1.378474 0,-0.02382 -0.601425,-0.456776 -1.336499,-0.962121 -1.87122,-1.286414 -1.75956,-1.689752 0.496632,-1.793933 l 1.833132,-0.08464 0.468616,-1.421574 c 0.271612,-0.823948 0.645128,-1.421575 0.88848,-1.421575 0.239819,0 0.632191,0.609601 0.915004,1.421575 l 0.49514,1.421574 1.734874,0.142158 c 0.95418,0.07819 1.786011,0.291117 1.848508,0.47318 0.06251,0.182062 -0.504472,0.738128 -1.259934,1.235701 -0.823121,0.542135 -1.312312,1.057493 -1.220711,1.286005 0.4898,1.221885 0.78821,2.797042 0.56955,3.006363 -0.139925,0.13395 -0.899773,-0.197276 -1.696454,-0.739504 l -1.44301,-0.982125 -1.072412,0.797787 c -1.587235,1.180768 -1.799276,1.26304 -1.995246,0.774166 z m 4.095729,-2.118397 c 0.614971,0.419195 0.888727,0.500491 0.783257,0.232597 -0.574183,-1.458391 -0.555475,-1.638824 0.231354,-2.231311 l 0.793094,-0.597203 h -0.956853 c -0.79043,0 -1.015345,-0.148348 -1.293164,-0.852944 -0.184975,-0.46912 -0.411363,-0.852945 -0.503089,-0.852945 -0.09172,0 -0.318113,0.383825 -0.503087,0.852945 -0.27782,0.704596 -0.502735,0.852944 -1.293164,0.852944 h -0.956853 l 0.793093,0.597203 c 0.78683,0.592487 0.805538,0.77292 0.231354,2.231311 -0.105471,0.267894 0.168286,0.186598 0.783256,-0.232597 l 0.945401,-0.644433 z M 56.622616,82.070025 c -0.09687,-0.241667 0.03772,-1.040218 0.299097,-1.774557 0.261378,-0.734339 0.475233,-1.354652 0.475233,-1.378474 0,-0.02382 -0.608177,-0.461419 -1.351506,-0.972437 -0.743328,-0.511019 -1.300935,-1.076459 -1.239128,-1.256536 0.06181,-0.180076 0.893071,-0.391381 1.847252,-0.469568 l 1.734873,-0.142157 0.495141,-1.421576 c 0.272327,-0.781866 0.672542,-1.421574 0.889367,-1.421574 0.216823,0 0.617039,0.639708 0.889365,1.421574 l 0.495141,1.421576 1.734874,0.142157 c 0.982702,0.08053 1.786496,0.292436 1.853938,0.488772 0.06549,0.190638 -0.495606,0.76137 -1.24687,1.268293 -0.751264,0.506924 -1.305158,1.073295 -1.230877,1.258603 0.07428,0.185308 0.300682,0.866114 0.50311,1.512902 0.525064,1.67766 0.08018,1.946001 -1.457944,0.87938 -1.490042,-1.03328 -1.618653,-1.04194 -2.822803,-0.190069 -1.468174,1.038652 -1.677475,1.109644 -1.868263,0.633691 z m 4.054759,-2.09544 c 0.993715,0.545957 0.991476,0.548099 0.560722,-0.53648 -0.282917,-0.712348 -0.227262,-0.866402 0.51975,-1.438672 l 0.836596,-0.640896 -0.991048,-0.0015 c -0.827823,-0.0012 -1.046439,-0.141883 -1.327363,-0.854348 -0.184973,-0.46912 -0.411362,-0.852945 -0.503087,-0.852945 -0.09172,0 -0.318115,0.383825 -0.503089,0.852945 -0.277821,0.704597 -0.502734,0.852944 -1.293165,0.852944 H 57.01984 l 0.793094,0.597203 c 0.785439,0.59144 0.804883,0.773994 0.236333,2.218889 -0.114726,0.291562 0.100405,0.253766 0.796686,-0.139974 0.90542,-0.512001 0.998412,-0.514908 1.831422,-0.05724 z"
       id="path4629" /></g></svg>
