<?xml version="1.0" encoding="UTF-8" standalone="no"?>
<!-- Created with Inkscape (http://www.inkscape.org/) -->

<svg
   width="33.620403mm"
   height="33.857708mm"
   viewBox="0 0 33.620403 33.857708"
   version="1.1"
   id="svg5365"
   xml:space="preserve"
   inkscape:version="1.2.2 (732a01da63, 2022-12-09)"
   sodipodi:docname="icon3.svg"
   xmlns:inkscape="http://www.inkscape.org/namespaces/inkscape"
   xmlns:sodipodi="http://sodipodi.sourceforge.net/DTD/sodipodi-0.dtd"
   xmlns="http://www.w3.org/2000/svg"
   xmlns:svg="http://www.w3.org/2000/svg"><sodipodi:namedview
     id="namedview5367"
     pagecolor="#ffffff"
     bordercolor="#000000"
     borderopacity="0.25"
     inkscape:showpageshadow="2"
     inkscape:pageopacity="0.0"
     inkscape:pagecheckerboard="0"
     inkscape:deskcolor="#d1d1d1"
     inkscape:document-units="mm"
     showgrid="false"
     inkscape:zoom="2.0510461"
     inkscape:cx="43.880046"
     inkscape:cy="88.978983"
     inkscape:window-width="1920"
     inkscape:window-height="1001"
     inkscape:window-x="-9"
     inkscape:window-y="-9"
     inkscape:window-maximized="1"
     inkscape:current-layer="layer1" /><defs
     id="defs5362" /><g
     inkscape:label="Слой 1"
     inkscape:groupmode="layer"
     id="layer1"
     transform="translate(-73.176899,-93.941321)"><path
       style="fill:#ffffff;stroke-width:0.264583;fill-opacity:1"
       d="m 94.87273,127.14653 c -0.44395,-0.47256 -0.89876,-0.66145 -1.592612,-0.66145 -0.635187,0 -1.136892,-0.18309 -1.450095,-0.52917 -0.46034,-0.50867 -0.814908,-0.52917 -9.154129,-0.52917 -8.66481,0 -8.675734,-7e-4 -9.087117,-0.58804 -0.360722,-0.515 -0.411878,-2.40454 -0.411878,-15.21354 0,-14.272728 0.01276,-14.63827 0.529167,-15.154672 0.508905,-0.508906 0.881944,-0.529167 9.74265,-0.529167 H 92.6622 l 2.1636,2.21663 2.1636,2.21663 v 4.242689 4.24267 l 0.78718,-0.29712 c 0.59249,-0.22364 1.00613,-0.21796 1.67243,0.023 0.48689,0.17606 1.19508,0.32011 1.57377,0.32011 0.37868,0 1.02508,0.27252 1.43642,0.60561 0.41135,0.33309 1.07708,0.74805 1.47941,0.92215 0.40232,0.17409 0.87153,0.6457 1.04268,1.04803 0.17115,0.40232 0.5451,0.99701 0.83099,1.32151 1.33748,1.5181 1.30545,6.65411 -0.0505,8.09745 -0.31367,0.33388 -0.57031,0.73572 -0.57031,0.89297 0,0.15725 -0.28294,0.55822 -0.62876,0.89106 l -0.62875,0.60516 0.78755,1.73772 c 1.22957,2.71302 1.04339,3.44527 -0.87809,3.45345 -0.60715,0.003 -1.12218,0.19301 -1.42396,0.52647 -1.16974,1.29255 -2.20597,0.89279 -3.04512,-1.17476 -0.32688,-0.80537 -0.68573,-1.46432 -0.79745,-1.46432 -0.11172,0 -0.47057,0.65895 -0.79745,1.46432 -0.84062,2.07115 -1.79148,2.50092 -2.90672,1.3138 z m 2.57587,-4.14988 c -0.1798,-0.1142 -0.70067,-0.20946 -1.15749,-0.21169 -0.45683,-0.002 -1.11167,-0.23194 -1.45521,-0.51046 l -0.62463,-0.50641 -0.7276,1.60069 c -0.400183,0.88038 -0.727605,1.70357 -0.727605,1.82933 0,0.12575 0.410079,0.22863 0.911285,0.22863 0.58922,0 1.17366,0.22937 1.65365,0.64899 l 0.74236,0.64899 0.85607,-1.76021 c 0.64082,-1.31762 0.77388,-1.81243 0.52917,-1.96786 z m 6.04339,2.43009 c 0.49816,0 0.90608,-0.0893 0.9065,-0.19844 5.3e-4,-0.10914 -0.31337,-0.93852 -0.69732,-1.84307 l -0.69808,-1.64464 -0.66128,0.52016 c -0.3637,0.28609 -1.03217,0.52198 -1.48549,0.52421 -1.47177,0.007 -1.54267,0.24705 -0.64449,2.18018 l 0.82156,1.76825 0.77643,-0.65333 c 0.49471,-0.41626 1.10507,-0.65332 1.68217,-0.65332 z m -10.949826,-2.60299 0.666486,-1.54466 -0.623167,-0.59978 c -0.342743,-0.32988 -0.623168,-0.72843 -0.623168,-0.88568 0,-0.15725 -0.256639,-0.55909 -0.570308,-0.89297 -1.355947,-1.44334 -1.387974,-6.57935 -0.05049,-8.09745 0.285897,-0.3245 0.66168,-0.92321 0.835073,-1.33046 0.173393,-0.40725 0.6426,-0.8835 1.042682,-1.05834 0.400078,-0.17483 1.114368,-0.60816 1.587318,-0.96294 l 0.85989,-0.64507 v -3.919 -3.918996 h -1.4142 c -1.817429,0 -2.334167,-0.521116 -2.500031,-2.521215 l -0.120633,-1.454681 -8.632044,0.06972 -8.632044,0.06972 -0.06875,14.287502 c -0.03781,7.85813 -0.01179,14.43633 0.05784,14.61823 0.09773,0.25531 2.109749,0.33073 8.822831,0.33073 h 8.696235 z m -15.875313,-1.82878 c 0.07946,-0.41259 0.462973,-0.46302 3.521506,-0.46302 3.058533,0 3.442047,0.0504 3.521506,0.46302 0.08141,0.42271 -0.225187,0.46302 -3.521506,0.46302 -3.296319,0 -3.602912,-0.0403 -3.521506,-0.46302 z m 0.130693,-2.35453 c -0.09958,-0.0996 -0.181062,-0.34193 -0.181062,-0.53854 0,-0.29237 1.168574,-0.34458 6.416146,-0.28663 5.495362,0.0607 6.416145,0.1278 6.416145,0.46772 0,0.33955 -0.900651,0.40711 -6.235083,0.4677 -3.429296,0.0389 -6.316561,-0.0107 -6.416146,-0.11025 z m -0.131642,-3.19679 c 0.08307,-0.43136 0.565695,-0.46795 6.171912,-0.46795 5.229649,0 6.081793,0.0556 6.081793,0.39688 0,0.3394 -0.893745,0.40716 -6.171912,0.46794 -5.781706,0.0666 -6.166214,0.0415 -6.081793,-0.39687 z m 9.49e-4,-2.91534 c 0.129391,-0.67188 2.415705,-0.67188 2.545095,0 0.0756,0.39254 -0.118093,0.46302 -1.272547,0.46302 -1.154454,0 -1.348145,-0.0705 -1.272548,-0.46302 z m 3.968431,0 c 0.0789,-0.41115 0.514225,-0.47127 3.88592,-0.53662 3.672139,-0.0712 4.777367,0.12188 4.379877,0.76503 -0.07975,0.12903 -1.992166,0.23461 -4.249821,0.23461 -3.766818,0 -4.09751,-0.0381 -4.015976,-0.46302 z m -3.834891,-2.35169 c -0.10115,-0.10115 -0.183909,-0.34265 -0.183909,-0.53668 0,-0.27666 0.774935,-0.35278 3.591275,-0.35278 3.277699,0 3.583523,0.0404 3.502484,0.46302 -0.07802,0.40683 -0.491518,0.47196 -3.407366,0.53669 -1.825217,0.0405 -3.401335,-0.009 -3.502484,-0.11025 z m 8.468665,0.002 c -0.102249,-0.10226 -0.185908,-0.34466 -0.185908,-0.53869 0,-0.26942 0.598546,-0.35278 2.532942,-0.35278 2.26966,0 2.523741,0.0481 2.444419,0.46302 -0.07467,0.39053 -0.442096,0.47487 -2.347034,0.53869 -1.242181,0.0416 -2.342169,-0.008 -2.444419,-0.11025 z m -8.6023,-3.20657 c 0.08204,-0.42646 0.700039,-0.46857 7.824608,-0.53317 7.601678,-0.0689 7.735534,-0.0609 7.735534,0.46302 0,0.52248 -0.156839,0.53317 -7.824608,0.53317 -7.309552,0 -7.818745,-0.0305 -7.735534,-0.46302 z m 8e-6,-2.91042 c 0.08219,-0.4272 0.713071,-0.46799 8.155337,-0.52728 4.43644,-0.0353 8.230337,0.0406 8.430882,0.16886 1.087737,0.69541 -0.191362,0.82144 -8.337141,0.82144 -7.798653,0 -8.332397,-0.03 -8.249078,-0.46302 z m 3.448173,-3.12386 c -0.741328,-0.51924 -0.799316,-1.960741 -0.104184,-2.589827 0.410688,-0.371668 1.170857,-0.437882 5.027083,-0.437882 4.190451,0 4.584318,0.04109 5.072395,0.529166 0.73841,0.73841 0.669812,1.703043 -0.167973,2.362053 -0.639885,0.50333 -1.047914,0.54837 -4.968211,0.54837 -3.437435,0 -4.385847,-0.0804 -4.85911,-0.41188 z m 9.173953,-0.8884 c 0.203106,-0.128596 0.29614,-0.424426 0.206741,-0.657396 -0.139701,-0.364057 -0.759756,-0.42358 -4.412483,-0.42358 -3.652726,0 -4.272781,0.05952 -4.412483,0.42358 -0.0894,0.23297 0.0036,0.5288 0.206742,0.657396 0.481303,0.30477 7.930179,0.30477 8.411483,0 z m 11.0078,21.74003 c 0.58208,-0.0801 1.38511,-0.41731 1.78451,-0.7494 0.3994,-0.33208 0.95885,-0.67763 1.24324,-0.76789 0.28438,-0.0903 0.59091,-0.39679 0.68117,-0.68117 0.0903,-0.28439 0.43581,-0.84384 0.76789,-1.24324 1.19492,-1.43713 1.28805,-5.53247 0.15491,-6.81159 -0.25783,-0.29104 -0.66436,-0.91612 -0.9034,-1.38906 -0.23904,-0.47295 -0.60102,-0.8599 -0.8044,-0.8599 -0.20338,0 -0.70634,-0.28192 -1.11768,-0.62648 -1.56115,-1.30768 -5.49092,-1.30768 -7.05206,0 -0.41135,0.34456 -0.91431,0.62648 -1.11769,0.62648 -0.20338,0 -0.565355,0.38695 -0.804395,0.8599 -0.23904,0.47294 -0.645567,1.09802 -0.903394,1.38906 -1.133144,1.27912 -1.040011,5.37446 0.154904,6.81159 0.332083,0.3994 0.675505,0.95214 0.76316,1.22832 0.08765,0.27617 0.503995,0.64488 0.925195,0.81935 0.4212,0.17447 0.97148,0.54446 1.22284,0.82221 0.25135,0.27774 0.82551,0.51335 1.27589,0.52358 0.45039,0.0102 1.05702,0.12097 1.34806,0.24608 0.29104,0.12512 0.70776,0.16455 0.92604,0.0876 0.21828,-0.0769 0.87313,-0.20539 1.45521,-0.28547 z m -3.96875,-1.89136 c -3.941102,-1.82468 -4.475788,-7.1028 -0.97633,-9.63779 0.95055,-0.68858 1.43242,-0.84085 2.90985,-0.91951 1.46425,-0.078 1.96988,0.0124 2.922,0.52195 3.1788,1.70133 3.92561,5.89392 1.53489,8.61681 -1.60411,1.82698 -4.243,2.41276 -6.39041,1.41854 z m 4.3762,-1.16599 c 0.78749,-0.41643 1.34497,-0.97392 1.76141,-1.76141 2.11412,-3.99785 -2.1966,-8.22907 -6.13761,-6.0244 -1.23887,0.69304 -2.24896,2.44989 -2.24896,3.91161 0,1.48781 1.02474,3.16245 2.37067,3.8742 1.46177,0.773 2.79273,0.773 4.25449,0 z m -3.97653,-2.16549 c -0.44878,-0.54075 -0.13132,-1.27045 0.46972,-1.07968 0.33038,0.10486 0.83119,-0.21201 1.64389,-1.04009 1.23553,-1.25891 1.85234,-1.49827 1.85234,-0.71883 0,0.58296 -2.63681,3.23211 -3.21706,3.23211 -0.23227,0 -0.56927,-0.17708 -0.74889,-0.39351 z M 94.06474,96.965921 c -0.845993,-0.876007 -0.918084,-0.903262 -0.99887,-0.377633 -0.146093,0.950552 0.150691,1.321783 1.05671,1.321783 h 0.85396 z"
       id="path6950" /></g></svg>
