<?xml version="1.0" encoding="UTF-8" standalone="no"?>
<!-- Created with Inkscape (http://www.inkscape.org/) -->

<svg
   width="33.866665mm"
   height="33.866665mm"
   viewBox="0 0 33.866665 33.866665"
   version="1.1"
   id="svg8412"
   xml:space="preserve"
   inkscape:version="1.2.2 (732a01da63, 2022-12-09)"
   sodipodi:docname="icon4.svg"
   xmlns:inkscape="http://www.inkscape.org/namespaces/inkscape"
   xmlns:sodipodi="http://sodipodi.sourceforge.net/DTD/sodipodi-0.dtd"
   xmlns="http://www.w3.org/2000/svg"
   xmlns:svg="http://www.w3.org/2000/svg"><sodipodi:namedview
     id="namedview8414"
     pagecolor="#ffffff"
     bordercolor="#000000"
     borderopacity="0.25"
     inkscape:showpageshadow="2"
     inkscape:pageopacity="0.0"
     inkscape:pagecheckerboard="0"
     inkscape:deskcolor="#d1d1d1"
     inkscape:document-units="mm"
     showgrid="false"
     inkscape:zoom="2.9006173"
     inkscape:cx="87.912322"
     inkscape:cy="69.123218"
     inkscape:window-width="1920"
     inkscape:window-height="1001"
     inkscape:window-x="-9"
     inkscape:window-y="-9"
     inkscape:window-maximized="1"
     inkscape:current-layer="layer1" /><defs
     id="defs8409" /><g
     inkscape:label="Слой 1"
     inkscape:groupmode="layer"
     id="layer1"
     transform="translate(-84.134232,-118.43153)"><path
       style="fill:#ffffff;stroke-width:0.264583;fill-opacity:1"
       d="m 84.663396,151.33107 c 0,-0.4584 0.17639,-0.52916 1.31898,-0.52916 h 1.31898 l 0.0701,-7.87136 0.0701,-7.87135 2.56953,-0.0756 2.56952,-0.0756 0.0763,-2.30565 0.0763,-2.30564 5.1961,-0.0716 c 4.924054,-0.0679 5.203274,-0.0991 5.333044,-0.59532 0.0753,-0.28801 0.32668,-0.52367 0.55859,-0.52367 0.30758,0 0.42164,-0.25721 0.42164,-0.95081 0,-0.71946 0.12527,-0.98357 0.51482,-1.08544 0.3697,-0.0967 0.5375,-0.40664 0.59531,-1.09971 l 0.0805,-0.96508 1.52135,-0.0794 1.52136,-0.0793 v -2.89721 c 0,-2.72082 0.0322,-2.89721 0.52916,-2.89721 0.49695,0 0.52917,0.17639 0.52917,2.89721 v 2.89721 l 1.52135,0.0793 1.52136,0.0794 0.0805,0.96508 c 0.0578,0.69307 0.22561,1.00303 0.59531,1.09971 0.38551,0.10081 0.51481,0.3657 0.51481,1.05458 0,0.69744 0.128,0.95343 0.52917,1.05834 0.5182,0.13551 0.52917,0.36089 0.52917,10.87877 v 10.7404 h 1.32291 c 1.14653,0 1.32292,0.0705 1.32292,0.52916 0,0.52348 -0.17639,0.52917 -16.40417,0.52917 -16.227774,0 -16.404164,-0.006 -16.404164,-0.52917 z m 9.05526,-4.69635 0.0729,-4.16719 0.99219,-0.0821 0.99219,-0.0821 v -2.1007 c 0,-1.92431 -0.0444,-2.10069 -0.52917,-2.10069 -0.47037,0 -0.52916,0.17638 -0.52916,1.5875 0,1.41111 -0.0588,1.5875 -0.52917,1.5875 -0.47037,0 -0.52917,-0.17639 -0.52917,-1.5875 0,-1.41112 -0.0588,-1.5875 -0.52916,-1.5875 -0.51314,0 -0.52917,0.17638 -0.52917,5.82083 0,5.64444 -0.016,5.82083 -0.52917,5.82083 -0.51313,0 -0.52916,-0.17639 -0.52916,-5.82083 0,-5.64445 -0.016,-5.82083 -0.52917,-5.82083 -0.51313,0 -0.52917,0.17638 -0.52917,5.82083 0,5.66184 -0.0146,5.82083 -0.53395,5.82083 -0.52256,0 -0.53244,-0.13417 -0.46302,-6.28385 l 0.0709,-6.28386 h 3.57187 3.57188 l 0.0757,2.57969 c 0.0693,2.36174 0.11962,2.57969 0.59531,2.57969 0.48752,0 0.51958,-0.19591 0.51958,-3.175 v -3.175 h -4.7625 -4.7625 v 7.40833 7.40834 h 2.63912 2.63911 z m 12.640574,0.46302 v -3.70417 h -5.82083 -5.820834 v 3.70417 3.70417 h 5.820834 5.82083 z m -10.526764,0.0661 0.0757,-2.57968 4.696344,-0.0722 c 4.56163,-0.0702 4.69636,-0.0569 4.69636,0.46302 0,0.515 -0.1603,0.53527 -4.23334,0.53527 h -4.233324 v 2.11667 c 0,1.95282 -0.0417,2.11666 -0.53875,2.11666 -0.51028,0 -0.53475,-0.1363 -0.46302,-2.57969 z m 2.11304,1.05834 0.0794,-1.52136 3.638024,-0.0736 c 3.5027,-0.0709 3.63802,-0.0537 3.63802,0.46302 0,0.50931 -0.16167,0.53664 -3.175,0.53664 h -3.175004 v 1.05833 c 0,0.89053 -0.086,1.05833 -0.54237,1.05833 -0.49309,0 -0.53516,-0.13824 -0.46302,-1.52135 z m 2.063724,0.99219 c 0,-0.49389 0.17639,-0.52917 2.64583,-0.52917 2.46945,0 2.64584,0.0353 2.64584,0.52917 0,0.49388 -0.17639,0.52916 -2.64584,0.52916 -2.46944,0 -2.64583,-0.0353 -2.64583,-0.52916 z m 13.75833,-8.73125 v -10.31871 h -4.7625 -4.7625 v 6.06191 6.06192 l 1.58799,0.0896 c 1.14198,0.0645 1.58784,-0.003 1.5875,-0.24108 -2.7e-4,-0.1819 0.23764,-0.33073 0.52868,-0.33073 0.35278,0 0.52917,0.17639 0.52917,0.52917 0,0.35278 -0.17639,0.52917 -0.52917,0.52917 -0.50565,0 -0.52917,0.17638 -0.52917,3.96875 v 3.96875 h 3.175 3.175 z m -4.23333,8.20208 c 0,-0.35278 0.17639,-0.52917 0.52917,-0.52917 0.35278,0 0.52916,0.17639 0.52916,0.52917 0,0.35278 -0.17638,0.52917 -0.52916,0.52917 -0.35278,0 -0.52917,-0.17639 -0.52917,-0.52917 z m 2.11667,0 c 0,-0.35278 0.17639,-0.52917 0.52916,-0.52917 0.35278,0 0.52917,0.17639 0.52917,0.52917 0,0.35278 -0.17639,0.52917 -0.52917,0.52917 -0.35277,0 -0.52916,-0.17639 -0.52916,-0.52917 z m -2.11667,-2.11667 c 0,-0.35277 0.17639,-0.52916 0.52917,-0.52916 0.35278,0 0.52916,0.17639 0.52916,0.52916 0,0.35278 -0.17638,0.52917 -0.52916,0.52917 -0.35278,0 -0.52917,-0.17639 -0.52917,-0.52917 z m 2.11667,0 c 0,-0.35277 0.17639,-0.52916 0.52916,-0.52916 0.35278,0 0.52917,0.17639 0.52917,0.52916 0,0.35278 -0.17639,0.52917 -0.52917,0.52917 -0.35277,0 -0.52916,-0.17639 -0.52916,-0.52917 z m -2.11667,-2.11666 c 0,-0.35278 0.17639,-0.52917 0.52917,-0.52917 0.35278,0 0.52916,0.17639 0.52916,0.52917 0,0.35277 -0.17638,0.52916 -0.52916,0.52916 -0.35278,0 -0.52917,-0.17639 -0.52917,-0.52916 z m 2.11667,0 c 0,-0.35278 0.17639,-0.52917 0.52916,-0.52917 0.35278,0 0.52917,0.17639 0.52917,0.52917 0,0.35277 -0.17639,0.52916 -0.52917,0.52916 -0.35277,0 -0.52916,-0.17639 -0.52916,-0.52916 z m -2.11667,-2.11667 c 0,-0.35278 0.17639,-0.52917 0.52917,-0.52917 0.35278,0 0.52916,0.17639 0.52916,0.52917 0,0.35278 -0.17638,0.52917 -0.52916,0.52917 -0.35278,0 -0.52917,-0.17639 -0.52917,-0.52917 z m 2.11667,0 c 0,-0.35278 0.17639,-0.52917 0.52916,-0.52917 0.35278,0 0.52917,0.17639 0.52917,0.52917 0,0.35278 -0.17639,0.52917 -0.52917,0.52917 -0.35277,0 -0.52916,-0.17639 -0.52916,-0.52917 z m -6.35,-2.11667 c 0,-0.35278 0.17639,-0.52916 0.52916,-0.52916 0.35278,0 0.52917,0.17638 0.52917,0.52916 0,0.35278 -0.17639,0.52917 -0.52917,0.52917 -0.35277,0 -0.52916,-0.17639 -0.52916,-0.52917 z m 2.11666,0 c 0,-0.35278 0.17639,-0.52916 0.52917,-0.52916 0.35278,0 0.52917,0.17638 0.52917,0.52916 0,0.35278 -0.17639,0.52917 -0.52917,0.52917 -0.35278,0 -0.52917,-0.17639 -0.52917,-0.52917 z m 2.11667,0 c 0,-0.35278 0.17639,-0.52916 0.52917,-0.52916 0.35278,0 0.52916,0.17638 0.52916,0.52916 0,0.35278 -0.17638,0.52917 -0.52916,0.52917 -0.35278,0 -0.52917,-0.17639 -0.52917,-0.52917 z m 2.11667,0 c 0,-0.35278 0.17639,-0.52916 0.52916,-0.52916 0.35278,0 0.52917,0.17638 0.52917,0.52916 0,0.35278 -0.17639,0.52917 -0.52917,0.52917 -0.35277,0 -0.52916,-0.17639 -0.52916,-0.52917 z m -6.35,-2.11666 c 0,-0.35278 0.17639,-0.52917 0.52916,-0.52917 0.35278,0 0.52917,0.17639 0.52917,0.52917 0,0.35277 -0.17639,0.52916 -0.52917,0.52916 -0.35277,0 -0.52916,-0.17639 -0.52916,-0.52916 z m 2.11666,0 c 0,-0.35278 0.17639,-0.52917 0.52917,-0.52917 0.35278,0 0.52917,0.17639 0.52917,0.52917 0,0.35277 -0.17639,0.52916 -0.52917,0.52916 -0.35278,0 -0.52917,-0.17639 -0.52917,-0.52916 z m 2.11667,0 c 0,-0.35278 0.17639,-0.52917 0.52917,-0.52917 0.35278,0 0.52916,0.17639 0.52916,0.52917 0,0.35277 -0.17638,0.52916 -0.52916,0.52916 -0.35278,0 -0.52917,-0.17639 -0.52917,-0.52916 z m 2.11667,0 c 0,-0.35278 0.17639,-0.52917 0.52916,-0.52917 0.35278,0 0.52917,0.17639 0.52917,0.52917 0,0.35277 -0.17639,0.52916 -0.52917,0.52916 -0.35277,0 -0.52916,-0.17639 -0.52916,-0.52916 z m -6.35,-2.11667 c 0,-0.35278 0.17639,-0.52917 0.52916,-0.52917 0.35278,0 0.52917,0.17639 0.52917,0.52917 0,0.35278 -0.17639,0.52917 -0.52917,0.52917 -0.35277,0 -0.52916,-0.17639 -0.52916,-0.52917 z m 2.11666,0 c 0,-0.35278 0.17639,-0.52917 0.52917,-0.52917 0.35278,0 0.52917,0.17639 0.52917,0.52917 0,0.35278 -0.17639,0.52917 -0.52917,0.52917 -0.35278,0 -0.52917,-0.17639 -0.52917,-0.52917 z m 2.11667,0 c 0,-0.35278 0.17639,-0.52917 0.52917,-0.52917 0.35278,0 0.52916,0.17639 0.52916,0.52917 0,0.35278 -0.17638,0.52917 -0.52916,0.52917 -0.35278,0 -0.52917,-0.17639 -0.52917,-0.52917 z m 2.11667,0 c 0,-0.35278 0.17639,-0.52917 0.52916,-0.52917 0.35278,0 0.52917,0.17639 0.52917,0.52917 0,0.35278 -0.17639,0.52917 -0.52917,0.52917 -0.35277,0 -0.52916,-0.17639 -0.52916,-0.52917 z m -6.35,-2.11667 c 0,-0.35278 0.17639,-0.52916 0.52916,-0.52916 0.35278,0 0.52917,0.17638 0.52917,0.52916 0,0.35278 -0.17639,0.52917 -0.52917,0.52917 -0.35277,0 -0.52916,-0.17639 -0.52916,-0.52917 z m 2.11666,0 c 0,-0.35278 0.17639,-0.52916 0.52917,-0.52916 0.35278,0 0.52917,0.17638 0.52917,0.52916 0,0.35278 -0.17639,0.52917 -0.52917,0.52917 -0.35278,0 -0.52917,-0.17639 -0.52917,-0.52917 z m 2.11667,0 c 0,-0.35278 0.17639,-0.52916 0.52917,-0.52916 0.35278,0 0.52916,0.17638 0.52916,0.52916 0,0.35278 -0.17638,0.52917 -0.52916,0.52917 -0.35278,0 -0.52917,-0.17639 -0.52917,-0.52917 z m 2.11667,0 c 0,-0.35278 0.17639,-0.52916 0.52916,-0.52916 0.35278,0 0.52917,0.17638 0.52917,0.52916 0,0.35278 -0.17639,0.52917 -0.52917,0.52917 -0.35277,0 -0.52916,-0.17639 -0.52916,-0.52917 z m -6.35,-2.11666 c 0,-0.35278 0.17639,-0.52917 0.52916,-0.52917 0.35278,0 0.52917,0.17639 0.52917,0.52917 0,0.35277 -0.17639,0.52916 -0.52917,0.52916 -0.35277,0 -0.52916,-0.17639 -0.52916,-0.52916 z m 2.11666,0 c 0,-0.35278 0.17639,-0.52917 0.52917,-0.52917 0.35278,0 0.52917,0.17639 0.52917,0.52917 0,0.35277 -0.17639,0.52916 -0.52917,0.52916 -0.35278,0 -0.52917,-0.17639 -0.52917,-0.52916 z m 2.11667,0 c 0,-0.35278 0.17639,-0.52917 0.52917,-0.52917 0.35278,0 0.52916,0.17639 0.52916,0.52917 0,0.35277 -0.17638,0.52916 -0.52916,0.52916 -0.35278,0 -0.52917,-0.17639 -0.52917,-0.52916 z m 2.11667,0 c 0,-0.35278 0.17639,-0.52917 0.52916,-0.52917 0.35278,0 0.52917,0.17639 0.52917,0.52917 0,0.35277 -0.17639,0.52916 -0.52917,0.52916 -0.35277,0 -0.52916,-0.17639 -0.52916,-0.52916 z m -8.46667,5.02708 v -5.55625 h -4.762494 -4.7625 v 1.8425 1.8425 l 2.57968,0.0757 2.57969,0.0757 0.0736,3.63802 0.0736,3.63802 h 2.109194 2.1092 z m -3.175,4.49792 c 0,-0.44098 0.17639,-0.52917 1.05833,-0.52917 0.88195,0 1.05834,0.0882 1.05834,0.52917 0,0.44097 -0.17639,0.52916 -1.05834,0.52916 -0.88194,0 -1.05833,-0.0882 -1.05833,-0.52916 z m 0,-2.11667 c 0,-0.44097 0.17639,-0.52917 1.05833,-0.52917 0.88195,0 1.05834,0.0882 1.05834,0.52917 0,0.44097 -0.17639,0.52917 -1.05834,0.52917 -0.88194,0 -1.05833,-0.0882 -1.05833,-0.52917 z m 0,-2.11667 c 0,-0.44097 0.17639,-0.52916 1.05833,-0.52916 0.88195,0 1.05834,0.0882 1.05834,0.52916 0,0.44097 -0.17639,0.52917 -1.05834,0.52917 -0.88194,0 -1.05833,-0.0882 -1.05833,-0.52917 z m 0,-2.11666 c 0,-0.44098 0.17639,-0.52917 1.05833,-0.52917 0.88195,0 1.05834,0.0882 1.05834,0.52917 0,0.44097 -0.17639,0.52916 -1.05834,0.52916 -0.88194,0 -1.05833,-0.0882 -1.05833,-0.52916 z m -5.291664,-2.11667 c 0,-0.50397 0.17639,-0.52917 3.70417,-0.52917 3.527774,0 3.704164,0.0252 3.704164,0.52917 0,0.50397 -0.17639,0.52917 -3.704164,0.52917 -3.52778,0 -3.70417,-0.0252 -3.70417,-0.52917 z m 17.991664,-4.23333 c 0,-0.50397 -0.17639,-0.52917 -3.70417,-0.52917 -3.52777,0 -3.70416,0.0252 -3.70416,0.52917 0,0.50396 0.17639,0.52916 3.70416,0.52916 3.52778,0 3.70417,-0.0252 3.70417,-0.52916 z m -1.05833,-2.11667 c 0,-0.49389 -0.17639,-0.52917 -2.64584,-0.52917 -2.46944,0 -2.64583,0.0353 -2.64583,0.52917 0,0.49389 0.17639,0.52917 2.64583,0.52917 2.46945,0 2.64584,-0.0353 2.64584,-0.52917 z"
       id="path10723" /></g></svg>
