<?xml version="1.0" encoding="UTF-8" standalone="no"?>
<!-- Created with Inkscape (http://www.inkscape.org/) -->

<svg
   width="30.767393mm"
   height="27.552876mm"
   viewBox="0 0 30.767393 27.552876"
   version="1.1"
   id="svg5"
   xml:space="preserve"
   inkscape:version="1.2.2 (732a01da63, 2022-12-09)"
   sodipodi:docname="icon1.svg"
   xmlns:inkscape="http://www.inkscape.org/namespaces/inkscape"
   xmlns:sodipodi="http://sodipodi.sourceforge.net/DTD/sodipodi-0.dtd"
   xmlns="http://www.w3.org/2000/svg"
   xmlns:svg="http://www.w3.org/2000/svg"><sodipodi:namedview
     id="namedview7"
     pagecolor="#ffffff"
     bordercolor="#000000"
     borderopacity="0.25"
     inkscape:showpageshadow="2"
     inkscape:pageopacity="0.0"
     inkscape:pagecheckerboard="0"
     inkscape:deskcolor="#d1d1d1"
     inkscape:document-units="mm"
     showgrid="false"
     inkscape:zoom="2.0510461"
     inkscape:cx="-43.636269"
     inkscape:cy="72.889634"
     inkscape:window-width="1920"
     inkscape:window-height="1001"
     inkscape:window-x="-9"
     inkscape:window-y="-9"
     inkscape:window-maximized="1"
     inkscape:current-layer="layer1" /><defs
     id="defs2" /><g
     inkscape:label="Слой 1"
     inkscape:groupmode="layer"
     id="layer1"
     transform="translate(-70.099427,-128.8517)"><path
       style="fill:#ffffff;fill-opacity:1;stroke-width:0.239578"
       d="m 70.679758,156.11311 c -0.07143,-0.18345 -0.09548,-0.74621 -0.05345,-1.25054 l 0.07641,-0.91697 h 15.082056 15.082046 v 1.18927 1.1893 l -15.02859,0.0613 c -12.712567,0.0518 -15.048611,0.01 -15.158462,-0.27233 z m 29.583772,-0.97824 c 0,-0.31316 -1.769619,-0.35679 -14.478766,-0.35679 -12.709146,0 -14.478773,0.0436 -14.478773,0.35679 0,0.31319 1.769627,0.3568 14.478773,0.3568 12.709147,0 14.478766,-0.0436 14.478766,-0.3568 z m -29.628576,-5.64908 0.06775,-2.91374 h 1.568534 1.568533 l 0.06776,2.91374 0.06775,2.91375 H 72.271236 70.56719 Z m 2.601541,0.0594 v -2.14072 h -0.965252 -0.965252 v 2.14072 2.14071 h 0.965252 0.965252 z m 2.709445,-1.60553 0.06566,-4.45981 h 1.689191 1.689191 l 0.06566,4.45981 0.06566,4.4598 h -1.820506 -1.820497 z m 2.786707,0 0.06661,-3.62731 H 77.82772 76.856182 v 3.70112 3.70113 l 0.904925,-0.0738 0.904923,-0.0739 z m 2.708485,-1.72447 v -6.18427 h 1.689191 1.68919 v 6.18427 6.18427 h -1.68919 -1.689191 z m 2.654442,0 v -5.47066 h -0.965251 -0.965252 v 5.4707 5.4707 h 0.965252 0.965251 z m 6.757968,5.78347 c -1.585424,-0.57187 -3.670722,-2.71388 -4.215279,-4.32989 -0.928241,-2.75465 -0.03676,-6.21993 2.034142,-7.90701 1.565896,-1.27566 2.847042,-1.73722 4.834368,-1.74163 2.978679,-0.005 5.307129,1.39392 6.704197,4.03258 0.52045,0.98297 0.63196,1.51937 0.64277,3.09212 0.0111,1.61677 -0.0881,2.10604 -0.66022,3.25427 -0.735724,1.47676 -1.798941,2.52454 -3.375398,3.3264 -1.361206,0.69237 -4.414727,0.83221 -5.96458,0.27316 z m 4.731462,-0.6642 c 4.542966,-1.32979 6.024336,-7.33999 2.623854,-10.64551 -1.376181,-1.33774 -2.696427,-1.87704 -4.595165,-1.87704 -3.680453,0 -6.622367,2.87433 -6.622367,6.47026 0,1.4565 0.844236,3.33333 2.004117,4.45538 1.818661,1.75929 4.125205,2.31826 6.589561,1.59691 z m -4.376056,-0.80715 c -1.125103,-0.50378 -2.375166,-1.66501 -2.929198,-2.72105 -0.671113,-1.27919 -0.704997,-3.44053 -0.07652,-4.88054 1.073573,-2.45983 3.871027,-3.94913 6.429167,-3.42271 4.922446,1.01292 6.525413,6.90829 2.745542,10.09738 -1.654995,1.39633 -4.249892,1.78622 -6.168989,0.92692 z m 2.685811,-0.80597 c 0.122442,0.43582 0.265597,0.50565 0.785793,0.38335 0.89981,-0.21153 1.048155,-0.32551 0.90437,-0.69483 -0.170242,-0.43731 0.279287,-0.68202 0.668285,-0.36379 0.462664,0.37846 1.539211,-0.78045 1.152091,-1.24023 -0.319546,-0.3795 -0.132857,-0.63918 0.459509,-0.63918 0.229125,0 0.482501,-0.16931 0.563062,-0.37625 0.259942,-0.66768 0.156088,-1.28875 -0.215489,-1.28875 -0.478507,0 -0.462445,-0.39665 0.027,-0.66664 0.293818,-0.16207 0.347646,-0.39999 0.220051,-0.97262 -0.140337,-0.62981 -0.253012,-0.73175 -0.665969,-0.60256 -0.444852,0.13917 -0.481825,0.0806 -0.352142,-0.55861 0.184371,-0.90865 -0.564265,-1.73002 -1.144347,-1.25549 -0.463103,0.37886 -0.918505,0.094 -0.739334,-0.46241 0.195826,-0.60818 -1.288342,-0.96118 -1.61585,-0.38435 -0.273906,0.48245 -0.676321,0.49826 -0.676321,0.0266 0,-0.36625 -0.630098,-0.46861 -1.307486,-0.21239 -0.209935,0.0794 -0.381701,0.32915 -0.381701,0.55499 0,0.58388 -0.263464,0.76789 -0.648484,0.45294 -0.466458,-0.3816 -1.642208,0.67955 -1.258236,1.13558 0.322849,0.38342 0.07462,0.82652 -0.369078,0.65871 -0.374697,-0.14172 -0.490327,0.004 -0.704941,0.89142 -0.124066,0.51274 -0.05316,0.65383 0.388934,0.77455 l 0.540644,0.14757 -0.510135,0.41475 c -0.424823,0.34538 -0.475105,0.54025 -0.300667,1.16526 0.165583,0.59323 0.310398,0.72449 0.691124,0.62635 0.532079,-0.13714 0.709719,0.53032 0.186859,0.70211 -0.185646,0.0611 -0.03585,0.35205 0.404477,0.78611 0.440363,0.43405 0.735639,0.58165 0.797513,0.39867 0.165026,-0.48797 0.743602,-0.32337 0.825532,0.23487 0.113304,0.77206 1.161467,0.97555 1.704446,0.33091 l 0.420764,-0.49955 z m -1.232579,-4.54819 c -0.265444,-0.16696 -0.956274,-0.59894 -1.535188,-0.95993 -0.73192,-0.45641 -0.975746,-0.73209 -0.800395,-0.90492 0.175349,-0.17284 0.676821,-0.0124 1.646138,0.52688 1.334536,0.74238 1.40678,0.75641 1.694805,0.32899 0.755578,-1.12124 0.98981,-1.34112 1.255973,-1.17898 0.392883,0.23934 -0.87792,2.52079 -1.394759,2.50399 -0.211177,-0.007 -0.601131,-0.14907 -0.866574,-0.31603 z m -22.562753,-2.96461 c 0,-0.11054 0.190034,-0.36452 0.422298,-0.56438 0.564874,-0.48606 14.506143,-9.93027 14.763724,-10.00135 0.1111,-0.0306 0.915932,0.45794 1.788526,1.08579 l 1.586536,1.14156 2.774005,-1.58287 c 2.771543,-1.58148 2.77366,-1.58339 2.396591,-2.1506 -0.762536,-1.14712 -0.408981,-1.28499 3.29536,-1.28499 2.599396,0 3.422313,0.074 3.516563,0.31604 0.12061,0.30981 -2.53353,5.16618 -3.207151,5.86823 -0.302024,0.31478 -0.40858,0.27583 -0.905035,-0.33088 l -0.562706,-0.68766 -3.803791,2.16396 -3.8038,2.16397 -1.189931,-1.0006 c -2.407384,-2.02428 -1.313044,-2.21729 -9.326631,1.6448 -3.902901,1.88099 -7.242069,3.41996 -7.420372,3.41996 -0.178301,0 -0.324186,-0.0905 -0.324186,-0.20098 z m 10.640762,-5.51892 4.361546,-2.15205 1.524835,1.31955 c 0.838664,0.72578 1.671038,1.31684 1.849716,1.31353 0.178688,-0.004 2.008048,-0.96218 4.065239,-2.1308 l 3.740349,-2.12474 0.405797,0.5217 c 0.223179,0.28693 0.457447,0.46979 0.520589,0.40633 0.182582,-0.1835 2.331343,-3.80381 2.331343,-3.92793 0,-0.0617 -1.085914,-0.11209 -2.413136,-0.11209 -1.327223,0 -2.413127,0.0606 -2.413127,0.13456 0,0.074 0.106308,0.33037 0.23624,0.56968 0.297301,0.54755 0.346285,0.50912 -3.336366,2.61761 l -2.979463,1.7059 -0.88154,-0.60785 c -0.484845,-0.33432 -1.206304,-0.86592 -1.603245,-1.18135 l -0.721706,-0.57352 -3.742582,2.51999 c -4.580072,3.0839 -5.67165,3.85353 -5.46544,3.85353 0.08767,0 2.122099,-0.96842 4.520951,-2.15205 z"
       id="path1582" /></g></svg>
