<?xml version="1.0" encoding="UTF-8" standalone="no"?>
<!-- Created with Inkscape (http://www.inkscape.org/) -->

<svg
   width="51.052284mm"
   height="37.3111mm"
   viewBox="0 0 51.052284 37.311099"
   version="1.1"
   id="svg5"
   xml:space="preserve"
   inkscape:version="1.2.2 (732a01da63, 2022-12-09)"
   sodipodi:docname="logo.svg"
   xmlns:inkscape="http://www.inkscape.org/namespaces/inkscape"
   xmlns:sodipodi="http://sodipodi.sourceforge.net/DTD/sodipodi-0.dtd"
   xmlns="http://www.w3.org/2000/svg"
   xmlns:svg="http://www.w3.org/2000/svg"><sodipodi:namedview
     id="namedview7"
     pagecolor="#ffffff"
     bordercolor="#000000"
     borderopacity="0.25"
     inkscape:showpageshadow="2"
     inkscape:pageopacity="0.0"
     inkscape:pagecheckerboard="0"
     inkscape:deskcolor="#d1d1d1"
     inkscape:document-units="mm"
     showgrid="false"
     inkscape:zoom="2.0510461"
     inkscape:cx="-18.527131"
     inkscape:cy="86.053646"
     inkscape:window-width="1920"
     inkscape:window-height="1001"
     inkscape:window-x="-9"
     inkscape:window-y="-9"
     inkscape:window-maximized="1"
     inkscape:current-layer="layer1" /><defs
     id="defs2" /><g
     inkscape:label="Слой 1"
     inkscape:groupmode="layer"
     id="layer1"
     transform="translate(-74.105992,-137.41474)"><path
       style="fill:#ffffff;fill-opacity:1;stroke-width:0.406854"
       d="m 92.733761,174.53119 c -0.502579,-0.52384 -0.283627,-3.90971 0.333241,-5.15306 l 0.607981,-1.2255 h -8.976656 c -5.718769,0 -8.976663,0.15072 -8.976663,0.41537 0,0.26235 2.789557,0.41537 7.571651,0.41537 7.305975,0 7.571648,0.0292 7.571648,0.83076 0,0.8016 -0.265673,0.83076 -7.571648,0.83076 -7.305979,0 -7.571651,0.0292 -7.571651,0.83074 0,0.8016 0.265672,0.83075 7.571651,0.83075 7.331324,0 7.571648,0.0267 7.571648,0.83919 0,0.81862 -0.202444,0.83642 -8.269035,0.72691 l -8.269041,-0.11225 v -3.5307 -3.53069 l 3.088436,-0.12136 3.088437,-0.12135 v -4.29775 -4.29773 l -1.494404,-0.29204 c -2.141322,-0.41843 -3.579407,-1.42682 -4.303704,-3.01778 -1.297978,-2.85106 -0.863202,-3.06068 5.100719,-2.4593 2.814529,0.28379 3.088312,0.24541 3.08702,-0.43281 -9.31e-4,-0.4882 -0.720678,-1.10148 -2.092168,-1.78267 -2.449136,-1.21644 -3.884077,-3.48041 -4.006593,-6.32139 -0.08867,-2.05624 -0.431645,-1.97588 5.976194,-1.40018 l 3.661837,0.32899 0.275087,-2.53434 c 0.227613,-2.09694 0.40376,-2.53435 1.020628,-2.53435 0.410055,0 0.74554,0.25701 0.74554,0.57114 0,0.31413 0.537989,0.68329 1.195524,0.82038 0.840925,0.1753 1.195523,0.49096 1.195523,1.06423 0,0.69184 -0.200923,0.78104 -1.329392,0.59017 -1.295925,-0.21921 -1.338776,-0.17933 -1.701824,1.58377 l -0.372416,1.80863 -4.375429,-0.0948 c -4.112471,-0.089 -4.288273,-0.0601 -2.925234,0.48153 3.805947,1.51243 9.091547,2.07597 19.471481,2.07597 10.366241,0 15.634581,-0.56021 19.471461,-2.07053 1.3592,-0.53501 1.17569,-0.56522 -2.92485,-0.48151 l -4.37503,0.0893 -0.36406,-1.76535 c -0.20023,-0.97095 -0.48869,-1.76535 -0.64102,-1.76535 -0.15234,0 -2.05465,0.27928 -4.22735,0.62061 -6.4901,1.01964 -14.112295,0.70687 -14.112295,-0.57905 0,-0.59017 0.778932,-0.67048 6.475741,-0.66774 6.985784,0.003 11.855614,-0.69715 11.855614,-1.70542 0,-0.31681 0.33549,-0.57602 0.74554,-0.57602 0.61687,0 0.79302,0.43741 1.02063,2.53433 l 0.27509,2.53434 3.66183,-0.32898 c 6.40784,-0.5757 6.06487,-0.65605 5.97619,1.40019 -0.12246,2.84096 -1.55746,5.10493 -4.00659,6.32139 -1.37149,0.68119 -2.09124,1.29446 -2.09216,1.78266 -0.001,0.67823 0.27248,0.71661 3.08702,0.4328 5.96391,-0.60137 6.39868,-0.39174 5.10071,2.45932 -0.72429,1.59094 -2.16238,2.59934 -4.3037,3.01778 l -1.49441,0.29202 v 4.29775 4.29774 l 3.08845,0.12136 3.08843,0.12135 v 3.5307 3.5307 l -6.675,0.11397 c -6.4719,0.11037 -6.67501,0.0884 -6.67501,-0.7269 0,-0.8068 0.24186,-0.84082 5.9776,-0.84082 5.71195,0 5.97762,-0.0369 5.97762,-0.83074 0,-0.80161 -0.26567,-0.83076 -7.57164,-0.83076 -7.30597,0 -7.57165,-0.0292 -7.57165,-0.83076 0,-0.80158 0.26568,-0.83074 7.57165,-0.83074 4.78209,0 7.57164,-0.15307 7.57164,-0.41538 0,-0.26461 -3.25788,-0.41537 -8.97665,-0.41537 h -8.97666 l 0.62898,1.2678 c 0.38477,0.77555 0.58215,2.02546 0.50836,3.21916 l -0.12064,1.95137 -6.798748,0.11335 c -3.739313,0.0623 -6.922397,-0.0157 -7.073511,-0.17308 z m 2.082178,-4.094 c 0.01672,-0.95166 -0.06943,-1.09889 -0.364404,-0.62306 -0.21246,0.34268 -0.376437,1.27727 -0.364388,2.07688 0.01792,1.1879 0.0845,1.30186 0.364388,0.62306 0.188377,-0.45691 0.352354,-1.3915 0.364404,-2.07688 z m 8.402771,2.28458 c 0,-0.24615 -1.46119,-0.41539 -3.586561,-0.41539 -2.125389,0 -3.586572,0.16924 -3.586572,0.41539 0,0.24615 1.461183,0.41537 3.586572,0.41537 2.125371,0 3.586561,-0.16922 3.586561,-0.41537 z m 1.63075,-2.79484 c -0.36134,-0.64698 -0.4118,-0.61043 -0.41767,0.30257 -0.003,0.57115 0.12531,1.50575 0.28677,2.07688 0.28114,0.99497 0.29863,0.98231 0.41766,-0.30258 0.0684,-0.73755 -0.0607,-1.67214 -0.28676,-2.07687 z m -2.02926,-0.52817 v -1.24613 H 99.632149 96.44408 v 1.24613 1.24613 h 3.188069 3.188051 z m -19.052805,-4.46529 0.123687,-1.55766 h 2.988807 2.988802 l 0.123657,1.55766 0.123656,1.55765 h 2.345155 2.345155 l 0.121398,-1.97303 0.121548,-1.97304 h 4.582844 4.582826 l 0.12155,1.97304 0.12139,1.97303 h 2.34516 2.34515 l 0.12366,-1.55765 0.12366,-1.55766 h 2.9888 2.98881 l 0.12366,1.55766 c 0.0968,1.22027 0.2911,1.55765 0.89664,1.55765 0.67905,0 0.77295,-0.30276 0.77295,-2.49225 0,-2.21534 -0.0886,-2.49226 -0.79702,-2.49226 -0.53133,0 -0.79701,-0.27692 -0.79701,-0.83074 0,-0.55384 0.26568,-0.83076 0.79701,-0.83076 0.5282,0 0.79702,-0.27691 0.79702,-0.82102 0,-0.78702 -0.18571,-0.80853 -4.48321,-0.51922 -5.7699,0.38843 -20.332363,0.38843 -26.102267,0 -4.297492,-0.28931 -4.483208,-0.2678 -4.483208,0.51922 0,0.80258 0.32232,0.82102 14.346285,0.82102 14.08061,0 14.34628,0.0157 14.34628,0.83076 0,0.81536 -0.26567,0.83074 -14.34628,0.83074 H 82.097675 v 2.49226 c 0,2.18949 0.09391,2.49225 0.77296,2.49225 0.605539,0 0.799751,-0.33738 0.896644,-1.55765 z m 28.616995,-4.2576 c 0,-0.55384 0.26567,-0.83076 0.79701,-0.83076 0.53135,0 0.79703,0.27692 0.79703,0.83076 0,0.55382 -0.26568,0.83074 -0.79703,0.83074 -0.53134,0 -0.79701,-0.27692 -0.79701,-0.83074 z m -23.910474,4.98451 c 0,-0.69231 -0.265674,-0.83076 -1.594027,-0.83076 -1.328361,0 -1.594033,0.13847 -1.594033,0.83076 0,0.69229 0.265672,0.83074 1.594033,0.83074 1.328353,0 1.594027,-0.13847 1.594027,-0.83074 z m 14.346284,-0.41539 v -1.24612 H 99.632149 96.44408 v 1.24612 1.24613 h 3.188069 3.188051 z m 11.15823,0.41539 c 0,-0.69231 -0.26568,-0.83076 -1.59404,-0.83076 -1.32835,0 -1.59403,0.13847 -1.59403,0.83076 0,0.69229 0.26568,0.83074 1.59403,0.83074 1.32836,0 1.59404,-0.13847 1.59404,-0.83074 z m 2.5903,-9.13503 c 3.8314,-0.51386 6.30554,-1.47197 6.48899,-2.51283 0.0971,-0.5513 -0.29104,-0.59822 -2.78957,-0.33722 -1.59633,0.16676 -8.86508,0.31475 -16.1528,0.32888 -12.992921,0.0251 -13.250387,0.009 -13.250387,-0.80507 0,-0.8123 0.265674,-0.83076 11.955237,-0.83076 7.70449,0 11.95523,-0.14773 11.95523,-0.41537 0,-0.22845 -0.35865,-0.41538 -0.797,-0.41538 -0.53135,0 -0.79703,-0.27692 -0.79703,-0.83075 0,-0.55383 0.26568,-0.83075 0.79703,-0.83075 0.64601,0 0.797,-0.27692 0.797,-1.46173 0,-1.3028 -0.0974,-1.4383 -0.89664,-1.24625 -0.74585,0.17924 -8.99085,1.04501 -9.96269,1.04614 -0.16438,1.8e-4 -0.29888,0.37417 -0.29888,0.83108 0,0.77537 0.26567,0.83076 3.98507,0.83076 3.71942,0 3.98509,0.0554 3.98509,0.83075 0,0.81447 -0.26567,0.83075 -13.549273,0.83075 -8.76717,0 -13.549268,0.14663 -13.549268,0.41538 0,0.22846 0.358658,0.41537 0.797017,0.41537 0.531344,0 0.797012,0.27692 0.797012,0.83076 0,0.73691 -0.258846,0.82834 -2.291416,0.80942 -1.260282,-0.011 -3.501889,-0.16162 -4.981351,-0.33309 -2.074556,-0.24045 -2.689928,-0.19024 -2.689928,0.21944 0,2.38513 8.593536,3.47313 25.703757,3.25425 6.13703,-0.0785 12.77218,-0.3592 14.7448,-0.62378 z m -28.89182,-3.32624 c 0,-0.55384 0.265658,-0.83076 0.797006,-0.83076 0.531347,0 0.797021,0.27692 0.797021,0.83076 0,0.55382 -0.265674,0.83074 -0.797021,0.83074 -0.531348,0 -0.797006,-0.27692 -0.797006,-0.83074 z m 7.970149,-4.15377 c 0,-0.45691 -0.134501,-0.8309 -0.298885,-0.83108 -0.971842,-0.001 -9.216838,-0.8669 -9.962691,-1.04614 -0.799151,-0.19205 -0.896644,-0.0565 -0.896644,1.24625 v 1.46173 h 5.579119 c 5.313428,0 5.579101,-0.0396 5.579101,-0.83076 z m 6.376141,0 c 0,-0.73844 -0.26568,-0.83074 -2.391051,-0.83074 -2.125389,0 -2.391048,0.0923 -2.391048,0.83074 0,0.73845 0.265659,0.83076 2.391048,0.83076 2.125371,0 2.391051,-0.0923 2.391051,-0.83076 z M 82.894808,147.8692 c 0,-1.06279 -0.182388,-1.21964 -1.892326,-1.62749 -1.040778,-0.24825 -1.968017,-0.37247 -2.060529,-0.27604 -0.262485,0.27359 1.669617,2.30035 2.558077,2.68339 1.260596,0.54349 1.394778,0.46847 1.394778,-0.77986 z m 36.443032,-0.5142 c 0.6463,-0.65486 1.09435,-1.2748 0.99568,-1.37765 -0.0986,-0.10283 -1.03094,0.0162 -2.07172,0.26436 -1.72267,0.41088 -1.89234,0.5593 -1.89234,1.65548 0,1.05414 0.11176,1.16953 0.89665,0.92631 0.49315,-0.15276 1.42543,-0.81362 2.07173,-1.4685 z m -10.93853,25.78214 c 0,-0.55384 0.26568,-0.83076 0.79702,-0.83076 0.53134,0 0.79701,0.27692 0.79701,0.83076 0,0.55384 -0.26567,0.83076 -0.79701,0.83076 -0.53134,0 -0.79702,-0.27692 -0.79702,-0.83076 z"
       id="path179" /></g></svg>
