<?xml version="1.0" encoding="UTF-8" standalone="no"?>
<!-- Created with Inkscape (http://www.inkscape.org/) -->

<svg
   width="92.74588mm"
   height="103.66496mm"
   viewBox="0 0 92.74588 103.66496"
   version="1.1"
   id="svg22248"
   xml:space="preserve"
   inkscape:version="1.2.2 (732a01da63, 2022-12-09)"
   sodipodi:docname="plus3.svg"
   xmlns:inkscape="http://www.inkscape.org/namespaces/inkscape"
   xmlns:sodipodi="http://sodipodi.sourceforge.net/DTD/sodipodi-0.dtd"
   xmlns="http://www.w3.org/2000/svg"
   xmlns:svg="http://www.w3.org/2000/svg"><sodipodi:namedview
     id="namedview22250"
     pagecolor="#ffffff"
     bordercolor="#000000"
     borderopacity="0.25"
     inkscape:showpageshadow="2"
     inkscape:pageopacity="0.0"
     inkscape:pagecheckerboard="0"
     inkscape:deskcolor="#d1d1d1"
     inkscape:document-units="mm"
     showgrid="false"
     inkscape:zoom="1.4503086"
     inkscape:cx="166.86103"
     inkscape:cy="236.15663"
     inkscape:window-width="1920"
     inkscape:window-height="1001"
     inkscape:window-x="-9"
     inkscape:window-y="-9"
     inkscape:window-maximized="1"
     inkscape:current-layer="layer1" /><defs
     id="defs22245" /><g
     inkscape:label="Слой 1"
     inkscape:groupmode="layer"
     id="layer1"
     transform="translate(-61.262196,-89.370224)"><rect
       style="fill:#ffffff;fill-opacity:1;stroke-width:0.326673"
       id="rect2360-0"
       width="92.74588"
       height="103.66496"
       x="61.262196"
       y="89.370224"
       ry="7.505343" /><rect
       style="fill:#72cbaa;fill-opacity:1;stroke-width:0.307727"
       id="rect2360"
       width="86.725609"
       height="98.37442"
       x="64.448738"
       y="92.057068"
       ry="7.1223078" /><rect
       style="fill:#4f9f81;fill-opacity:1;stroke-width:0.190131"
       id="rect2621-2"
       width="80.452705"
       height="15.871619"
       x="68.211121"
       y="153.00684"
       ry="3.1222854" /><rect
       style="fill:#ffffff;fill-opacity:1;stroke-width:0.190131"
       id="rect2621"
       width="80.452705"
       height="15.871619"
       x="68.29866"
       y="148.7406"
       ry="3.1222854" /><text
       xml:space="preserve"
       style="font-size:5.34247px;font-family:'Century Gothic';-inkscape-font-specification:'Century Gothic, Normal';fill:#4f9f81;fill-opacity:1;stroke-width:0.445207"
       x="78.907074"
       y="153.62909"
       id="text2691"
       transform="scale(0.99414429,1.0058902)"><tspan
         id="tspan2689"
         style="fill:#4f9f81;fill-opacity:1;stroke-width:0.445207"
         x="78.907074"
         y="153.62909"
         sodipodi:role="line">Быстрое оформление </tspan><tspan
         style="fill:#4f9f81;fill-opacity:1;stroke-width:0.445207"
         x="78.907074"
         y="160.30717"
         sodipodi:role="line"
         id="tspan23182">         документов</tspan></text><path
       style="fill:#ffffff;fill-opacity:1;stroke-width:0.291394"
       d="m 96.409412,140.67116 c -0.192162,-0.19249 -0.349374,-0.71745 -0.349374,-1.16658 0,-0.69994 -0.116466,-0.8166 -0.815214,-0.8166 -1.487003,0 -1.513952,-0.1435 -1.513952,-8.06131 0,-4.59299 -0.109489,-7.42915 -0.291142,-7.54161 -0.446043,-0.27615 -0.390341,-16.26184 0.05821,-16.71117 0.192151,-0.19249 0.719018,-0.34997 1.170817,-0.34997 0.600054,0 0.913512,-0.2024 1.163036,-0.75098 0.390408,-0.85832 1.610188,-1.58217 2.666156,-1.58217 0.815507,0 2.511521,1.29764 2.511521,1.92161 0,0.33652 0.81946,0.41154 4.49556,0.41154 2.683,0 4.56812,0.11758 4.67551,0.29164 0.10531,0.17067 1.77901,0.29164 4.03498,0.29164 4.17411,0 4.55381,0.12645 4.55381,1.51655 0,0.69995 0.11645,0.8166 0.8152,0.8166 0.44837,0 0.97243,0.15748 1.16458,0.34997 0.50387,0.50474 0.50387,30.87611 0,31.38084 -0.50203,0.50289 -23.837694,0.50289 -24.339721,0 z m 23.524518,-15.69042 c 0,-14.37236 -0.0185,-14.87382 -0.54834,-14.87382 -0.31262,0 -0.61723,0.26394 -0.70863,0.61402 -0.31072,1.19022 -0.92413,0.40781 -1.01394,-1.29325 l -0.0874,-1.65391 h -3.4792 -3.47922 v 7.41607 c 0,6.35304 -0.0656,7.48178 -0.45751,7.87437 -0.39194,0.39261 -1.51875,0.45831 -7.86092,0.45831 h -7.403396 v 6.99944 6.99944 h 8.734336 8.73436 v -2.1665 c 0,-2.84601 0.23638,-3.08308 3.07396,-3.08308 h 2.15891 l 0.0767,-9.84297 c 0.0663,-8.52074 0.13532,-9.84297 0.51337,-9.84297 0.37838,0 0.44696,1.35871 0.51332,10.17157 l 0.0766,10.17158 -2.82419,2.87947 -2.82419,2.87947 h -7.95199 c -7.757895,0 -7.951993,0.0142 -7.951993,0.58329 0,0.57332 0.194098,0.58328 11.354653,0.58328 h 11.35466 z m -22.569284,6.99047 c -0.318299,-0.51589 0.28235,-0.92175 1.207438,-0.81585 1.170409,0.13398 1.107129,0.94429 -0.08275,1.05999 -0.505399,0.0492 -1.011491,-0.0607 -1.124655,-0.24414 z m 4.070494,-0.009 c -0.43875,-0.71112 0.50372,-0.87025 4.69201,-0.79217 3.6318,0.0677 4.34455,0.15276 4.34455,0.51846 0,0.36611 -0.72066,0.45058 -4.41817,0.51785 -3.0103,0.0548 -4.48197,-0.023 -4.61839,-0.24414 z m -4.070494,-2.90747 c -0.318299,-0.5159 0.28235,-0.92174 1.207438,-0.81585 1.170409,0.13398 1.107129,0.94429 -0.08275,1.05999 -0.505399,0.0492 -1.011491,-0.0607 -1.124655,-0.24414 z m 4.069154,-0.0111 c -0.45951,-0.7448 0.59511,-0.86312 7.02005,-0.78756 5.70544,0.0671 6.67617,0.14214 6.67617,0.516 0,0.37402 -0.97865,0.4488 -6.74865,0.5157 -4.69191,0.0543 -6.80928,-0.0201 -6.94757,-0.24414 z m -4.069154,-2.90533 c -0.318299,-0.51589 0.28235,-0.92174 1.207438,-0.81584 1.170409,0.13397 1.107129,0.94428 -0.08275,1.05998 -0.505399,0.0492 -1.011491,-0.0607 -1.124655,-0.24414 z m 4.069154,-0.0111 c -0.45951,-0.74479 0.59511,-0.8631 7.02005,-0.78754 5.70544,0.0671 6.67617,0.14213 6.67617,0.51599 0,0.37402 -0.97865,0.44881 -6.74865,0.5157 -4.69191,0.0545 -6.80928,-0.02 -6.94757,-0.24415 z m 11.65268,-5.23847 c -0.3183,-0.51588 0.28235,-0.92173 1.20743,-0.81584 1.17042,0.13399 1.10714,0.94429 -0.0828,1.06 -0.50539,0.0492 -1.01149,-0.0607 -1.12465,-0.24416 z m 0,-2.91643 c -0.3183,-0.51589 0.28235,-0.92174 1.20743,-0.81585 1.17042,0.13398 1.10714,0.9443 -0.0828,1.05999 -0.50539,0.0492 -1.01149,-0.0607 -1.12465,-0.24414 z m 0,-2.91643 c -0.3183,-0.5159 0.28235,-0.92174 1.20743,-0.81585 1.17042,0.13398 1.10714,0.94429 -0.0828,1.05999 -0.50539,0.0492 -1.01149,-0.0607 -1.12465,-0.24414 z m 0,-2.91644 c -0.3183,-0.51589 0.28235,-0.92173 1.20743,-0.81584 1.17042,0.13398 1.10714,0.94429 -0.0828,1.05999 -0.50539,0.0492 -1.01149,-0.0607 -1.12465,-0.24415 z m 2.18912,22.90299 1.58141,-1.60404 h -1.66414 -1.66414 v 1.60404 c 0,0.88222 0.0372,1.60404 0.0827,1.60404 0.0456,0 0.79437,-0.72182 1.66414,-1.60404 z m -5.8229,-20.26306 v -7.57656 l -5.75012,-0.079 c -4.882028,-0.0671 -5.750105,-0.14512 -5.750105,-0.51655 0,-0.29703 0.359377,-0.46704 1.119521,-0.52963 1.086784,-0.0895 1.104614,-0.10868 0.609937,-0.65619 -0.624657,-0.69143 -1.792422,-0.72932 -2.507181,-0.0814 -0.461786,0.41862 -0.532431,0.96699 -0.532431,4.13294 0,4.00351 0.256574,4.71698 1.696282,4.71698 1.31464,0 1.797447,-0.75635 1.797447,-2.81582 0,-1.63685 -0.0653,-1.85047 -0.564707,-1.85047 -0.442397,0 -0.584277,0.23688 -0.655079,1.09365 -0.123783,1.49821 -0.92917,1.51092 -1.053163,0.0166 -0.160525,-1.93445 1.601605,-2.94936 2.886339,-1.66242 0.53239,0.5333 0.59839,0.88032 0.49981,2.62786 -0.0969,1.71918 -0.22917,2.12923 -0.90454,2.80576 -1.181284,1.18332 -2.889039,1.11817 -4.02333,-0.15351 -0.817073,-0.91603 -0.843637,-1.0421 -0.843637,-4.00347 0,-2.86322 -0.03697,-3.05765 -0.582294,-3.05765 -0.567362,0 -0.582283,0.19443 -0.582283,7.58273 v 7.58272 h 7.569754 7.56978 z m -12.67629,3.1833 c -0.445511,-0.72208 0.527352,-0.86793 5.27391,-0.79069 4.15045,0.0676 4.92764,0.1492 4.92764,0.51766 0,0.36879 -0.78512,0.44999 -5.00088,0.51717 -3.43101,0.0547 -5.063594,-0.0219 -5.20067,-0.24414 z m 6.40916,-2.90998 c -0.37788,-0.61247 0.34983,-0.89491 2.07587,-0.80568 1.29233,0.0668 1.71652,0.19684 1.71652,0.5262 0,0.54944 -3.46814,0.80504 -3.79239,0.27948 z m 0,-2.91643 c -0.37788,-0.61247 0.34983,-0.89491 2.07587,-0.80568 1.29233,0.0668 1.71652,0.19683 1.71652,0.52619 0,0.54945 -3.46814,0.80505 -3.79239,0.27949 z"
       id="path23922" /></g></svg>
