<?xml version="1.0" encoding="UTF-8" standalone="no"?>
<!-- Created with Inkscape (http://www.inkscape.org/) -->

<svg
   width="92.74588mm"
   height="103.66496mm"
   viewBox="0 0 92.74588 103.66496"
   version="1.1"
   id="svg5"
   xml:space="preserve"
   inkscape:version="1.2.2 (732a01da63, 2022-12-09)"
   sodipodi:docname="plus.svg"
   xmlns:inkscape="http://www.inkscape.org/namespaces/inkscape"
   xmlns:sodipodi="http://sodipodi.sourceforge.net/DTD/sodipodi-0.dtd"
   xmlns="http://www.w3.org/2000/svg"
   xmlns:svg="http://www.w3.org/2000/svg"><sodipodi:namedview
     id="namedview7"
     pagecolor="#ffffff"
     bordercolor="#000000"
     borderopacity="0.25"
     inkscape:showpageshadow="2"
     inkscape:pageopacity="0.0"
     inkscape:pagecheckerboard="0"
     inkscape:deskcolor="#d1d1d1"
     inkscape:document-units="mm"
     showgrid="false"
     inkscape:zoom="1.4503086"
     inkscape:cx="164.79251"
     inkscape:cy="235.46712"
     inkscape:window-width="1920"
     inkscape:window-height="1001"
     inkscape:window-x="-9"
     inkscape:window-y="-9"
     inkscape:window-maximized="1"
     inkscape:current-layer="layer1" /><defs
     id="defs2" /><g
     inkscape:label="Слой 1"
     inkscape:groupmode="layer"
     id="layer1"
     transform="translate(-54.260822,-135.12074)"><rect
       style="fill:#ffffff;fill-opacity:1;stroke-width:0.326673"
       id="rect2360-0"
       width="92.74588"
       height="103.66496"
       x="54.260822"
       y="135.12074"
       ry="7.505343" /><rect
       style="fill:#72cbaa;fill-opacity:1;stroke-width:0.307727"
       id="rect2360"
       width="86.725609"
       height="98.37442"
       x="57.447369"
       y="137.80759"
       ry="7.1223078" /><rect
       style="fill:#4f9f81;fill-opacity:1;stroke-width:0.190131"
       id="rect2621-2"
       width="80.452705"
       height="15.871619"
       x="61.209751"
       y="198.75735"
       ry="3.1222854" /><rect
       style="fill:#ffffff;fill-opacity:1;stroke-width:0.190131"
       id="rect2621"
       width="80.452705"
       height="15.871619"
       x="61.297291"
       y="194.49112"
       ry="3.1222854" /><path
       style="fill:#ffffff;fill-opacity:1;stroke-width:0.264583"
       d="m 84.406609,187.34366 c -0.0778,-0.20275 -0.10418,-0.88828 -0.0586,-1.52339 0.0745,-1.03789 0.15625,-1.1632 0.80823,-1.23826 l 0.72539,-0.0835 0.0684,-14.73316 0.0684,-14.73316 h 6.74688 6.74687 l 0.0757,2.57969 0.0757,2.57968 h 1.039171 1.03917 l 0.0757,-2.57968 0.0757,-2.57969 h 6.74688 6.74687 l 0.0684,14.73316 0.0684,14.73316 0.72539,0.0835 c 0.69275,0.0797 0.72539,0.14899 0.72539,1.53872 v 1.45521 l -16.21324,0.0682 c -13.661301,0.0574 -16.235521,0.0102 -16.354711,-0.30046 z m 31.641921,-1.22293 c 0,-0.52309 -0.17639,-0.52917 -15.34583,-0.52917 -15.169441,0 -15.345831,0.006 -15.345831,0.52917 0,0.52308 0.17639,0.52917 15.345831,0.52917 15.16944,0 15.34583,-0.006 15.34583,-0.52917 z m -27.988081,-4.69636 0.0745,-3.10885 h 4.63021 4.63021 l 0.0745,3.10885 c 0.0693,2.89051 0.11112,3.10886 0.59531,3.10886 0.51154,0 0.52077,-0.25318 0.52077,-14.2875 v -14.2875 h -5.82083 -5.82084 v 14.2875 c 0,14.03432 0.009,14.2875 0.52077,14.2875 0.4842,0 0.52601,-0.21835 0.59532,-3.10886 z m 0.054,-5.71274 c -0.0798,-0.20806 -0.10788,-0.89792 -0.0623,-1.53303 l 0.0828,-1.15475 h 1.98438 1.98437 v 1.45521 1.45521 l -1.92205,0.0778 c -1.47559,0.0597 -1.95578,-0.0101 -2.06722,-0.30045 z m 3.06323,-1.23257 c 0,-0.44097 -0.17639,-0.52916 -1.05834,-0.52916 -0.88194,0 -1.05833,0.0882 -1.05833,0.52916 0,0.44097 0.17639,0.52917 1.05833,0.52917 0.88195,0 1.05834,-0.0882 1.05834,-0.52917 z m 2.22844,1.23257 c -0.0798,-0.20806 -0.10788,-0.89792 -0.0623,-1.53303 l 0.0828,-1.15475 h 1.98437 1.98438 v 1.45521 1.45521 l -1.92206,0.0778 c -1.47558,0.0597 -1.95577,-0.0101 -2.06721,-0.30045 z m 3.06322,-1.23257 c 0,-0.44097 -0.17639,-0.52916 -1.05833,-0.52916 -0.88194,0 -1.05833,0.0882 -1.05833,0.52916 0,0.44097 0.17639,0.52917 1.05833,0.52917 0.88194,0 1.05833,-0.0882 1.05833,-0.52917 z m -8.35489,-4.0591 c -0.0798,-0.20805 -0.10788,-0.89791 -0.0623,-1.53302 l 0.0828,-1.15475 h 1.98438 1.98437 v 1.45521 1.4552 l -1.92205,0.0778 c -1.47559,0.0597 -1.95578,-0.0101 -2.06722,-0.30046 z m 3.06323,-1.23256 c 0,-0.44098 -0.17639,-0.52917 -1.05834,-0.52917 -0.88194,0 -1.05833,0.0882 -1.05833,0.52917 0,0.44097 0.17639,0.52916 1.05833,0.52916 0.88195,0 1.05834,-0.0882 1.05834,-0.52916 z m 2.22844,1.23256 c -0.0798,-0.20805 -0.10788,-0.89791 -0.0623,-1.53302 l 0.0828,-1.15475 h 1.98437 1.98438 v 1.45521 1.4552 l -1.92206,0.0778 c -1.47558,0.0597 -1.95577,-0.0101 -2.06721,-0.30046 z m 3.06322,-1.23256 c 0,-0.44098 -0.17639,-0.52917 -1.05833,-0.52917 -0.88194,0 -1.05833,0.0882 -1.05833,0.52917 0,0.44097 0.17639,0.52916 1.05833,0.52916 0.88194,0 1.05833,-0.0882 1.05833,-0.52916 z m -8.35489,-4.05911 c -0.0798,-0.20805 -0.10788,-0.89791 -0.0623,-1.53302 l 0.0828,-1.15475 h 1.98438 1.98437 v 1.45521 1.45521 l -1.92205,0.0778 c -1.47559,0.0597 -1.95578,-0.0101 -2.06722,-0.30046 z m 3.06323,-1.23256 c 0,-0.44097 -0.17639,-0.52917 -1.05834,-0.52917 -0.88194,0 -1.05833,0.0882 -1.05833,0.52917 0,0.44097 0.17639,0.52917 1.05833,0.52917 0.88195,0 1.05834,-0.0882 1.05834,-0.52917 z m 2.22844,1.23256 c -0.0798,-0.20805 -0.10788,-0.89791 -0.0623,-1.53302 l 0.0828,-1.15475 h 1.98437 1.98438 v 1.45521 1.45521 l -1.92206,0.0778 c -1.47558,0.0597 -1.95577,-0.0101 -2.06721,-0.30046 z m 3.06322,-1.23256 c 0,-0.44097 -0.17639,-0.52917 -1.05833,-0.52917 -0.88194,0 -1.05833,0.0882 -1.05833,0.52917 0,0.44097 0.17639,0.52917 1.05833,0.52917 0.88194,0 1.05833,-0.0882 1.05833,-0.52917 z m -8.35489,-4.0591 c -0.0798,-0.20805 -0.10788,-0.89792 -0.0623,-1.53303 l 0.0828,-1.15475 h 1.98438 1.98437 v 1.45521 1.45521 l -1.92205,0.0778 c -1.47559,0.0597 -1.95578,-0.0101 -2.06722,-0.30046 z m 3.06323,-1.23257 c 0,-0.44097 -0.17639,-0.52916 -1.05834,-0.52916 -0.88194,0 -1.05833,0.0882 -1.05833,0.52916 0,0.44098 0.17639,0.52917 1.05833,0.52917 0.88195,0 1.05834,-0.0882 1.05834,-0.52917 z m 2.22844,1.23257 c -0.0798,-0.20805 -0.10788,-0.89792 -0.0623,-1.53303 l 0.0828,-1.15475 h 1.98437 1.98438 v 1.45521 1.45521 l -1.92206,0.0778 c -1.47558,0.0597 -1.95577,-0.0101 -2.06721,-0.30046 z m 3.06322,-1.23257 c 0,-0.44097 -0.17639,-0.52916 -1.05833,-0.52916 -0.88194,0 -1.05833,0.0882 -1.05833,0.52916 0,0.44098 0.17639,0.52917 1.05833,0.52917 0.88194,0 1.05833,-0.0882 1.05833,-0.52917 z m -4.23333,23.28334 v -2.64584 h -1.5875 -1.5875 v 2.64584 2.64583 h 1.5875 1.5875 z m 4.23333,0 v -2.64584 h -1.5875 -1.5875 v 2.64584 2.64583 h 1.5875 1.5875 z m 5.291661,0.52916 v -2.11666 h -1.05832 -1.058341 v 2.11666 2.11667 h 1.058341 1.05832 z m 2.17442,-0.99219 0.0745,-3.10885 h 4.63021 4.6302 l 0.0746,3.10885 c 0.0693,2.89051 0.11111,3.10886 0.59531,3.10886 0.51153,0 0.52077,-0.25318 0.52077,-14.2875 v -14.2875 h -5.82084 -5.82084 v 14.2875 c 0,14.03432 0.009,14.2875 0.52077,14.2875 0.4842,0 0.52601,-0.21835 0.59532,-3.10886 z m 0.054,-5.71274 c -0.0798,-0.20806 -0.10788,-0.89792 -0.0623,-1.53303 l 0.0828,-1.15475 h 1.98437 1.98438 v 1.45521 1.45521 l -1.92206,0.0778 c -1.47558,0.0597 -1.95577,-0.0101 -2.06721,-0.30045 z m 3.06323,-1.23257 c 0,-0.44097 -0.17638,-0.52916 -1.05834,-0.52916 -0.88194,0 -1.05833,0.0882 -1.05833,0.52916 0,0.44097 0.17639,0.52917 1.05833,0.52917 0.88196,0 1.05834,-0.0882 1.05834,-0.52917 z m 2.22845,1.23257 c -0.0798,-0.20806 -0.10788,-0.89792 -0.0623,-1.53303 l 0.0828,-1.15475 h 1.98438 1.98437 v 1.45521 1.45521 l -1.92205,0.0778 c -1.47559,0.0597 -1.95577,-0.0101 -2.06721,-0.30045 z m 3.06322,-1.23257 c 0,-0.44097 -0.17639,-0.52916 -1.05833,-0.52916 -0.88194,0 -1.05833,0.0882 -1.05833,0.52916 0,0.44097 0.17639,0.52917 1.05833,0.52917 0.88194,0 1.05833,-0.0882 1.05833,-0.52917 z m -8.35489,-4.0591 c -0.0798,-0.20805 -0.10788,-0.89791 -0.0623,-1.53302 l 0.0828,-1.15475 h 1.98437 1.98438 v 1.45521 1.4552 l -1.92206,0.0778 c -1.47558,0.0597 -1.95577,-0.0101 -2.06721,-0.30046 z m 3.06323,-1.23256 c 0,-0.44098 -0.17639,-0.52917 -1.05834,-0.52917 -0.88194,0 -1.05833,0.0882 -1.05833,0.52917 0,0.44097 0.17639,0.52916 1.05833,0.52916 0.88195,0 1.05834,-0.0882 1.05834,-0.52916 z m 2.22844,1.23256 c -0.0798,-0.20805 -0.10788,-0.89791 -0.0623,-1.53302 l 0.0828,-1.15475 h 1.98438 1.98437 v 1.45521 1.4552 l -1.92205,0.0778 c -1.47559,0.0597 -1.95577,-0.0101 -2.06721,-0.30046 z m 3.06322,-1.23256 c 0,-0.44098 -0.17639,-0.52917 -1.05833,-0.52917 -0.88194,0 -1.05833,0.0882 -1.05833,0.52917 0,0.44097 0.17639,0.52916 1.05833,0.52916 0.88194,0 1.05833,-0.0882 1.05833,-0.52916 z m -8.35489,-4.05911 c -0.0798,-0.20805 -0.10788,-0.89791 -0.0623,-1.53302 l 0.0828,-1.15475 h 1.98437 1.98438 v 1.45521 1.45521 l -1.92206,0.0778 c -1.47558,0.0597 -1.95577,-0.0101 -2.06721,-0.30046 z m 3.06323,-1.23256 c 0,-0.44097 -0.17639,-0.52917 -1.05834,-0.52917 -0.88194,0 -1.05833,0.0882 -1.05833,0.52917 0,0.44097 0.17639,0.52917 1.05833,0.52917 0.88195,0 1.05834,-0.0882 1.05834,-0.52917 z m 2.22844,1.23256 c -0.0798,-0.20805 -0.10788,-0.89791 -0.0623,-1.53302 l 0.0828,-1.15475 h 1.98438 1.98437 v 1.45521 1.45521 l -1.92205,0.0778 c -1.47559,0.0597 -1.95577,-0.0101 -2.06721,-0.30046 z m 3.06322,-1.23256 c 0,-0.44097 -0.17639,-0.52917 -1.05833,-0.52917 -0.88194,0 -1.05833,0.0882 -1.05833,0.52917 0,0.44097 0.17639,0.52917 1.05833,0.52917 0.88194,0 1.05833,-0.0882 1.05833,-0.52917 z m -8.35489,-4.0591 c -0.0798,-0.20805 -0.10788,-0.89792 -0.0623,-1.53303 l 0.0828,-1.15475 h 1.98437 1.98438 v 1.45521 1.45521 l -1.92206,0.0778 c -1.47558,0.0597 -1.95577,-0.0101 -2.06721,-0.30046 z m 3.06323,-1.23257 c 0,-0.44097 -0.17639,-0.52916 -1.05834,-0.52916 -0.88194,0 -1.05833,0.0882 -1.05833,0.52916 0,0.44098 0.17639,0.52917 1.05833,0.52917 0.88195,0 1.05834,-0.0882 1.05834,-0.52917 z m 2.22844,1.23257 c -0.0798,-0.20805 -0.10788,-0.89792 -0.0623,-1.53303 l 0.0828,-1.15475 h 1.98438 1.98437 v 1.45521 1.45521 l -1.92205,0.0778 c -1.47559,0.0597 -1.95577,-0.0101 -2.06721,-0.30046 z m 3.06322,-1.23257 c 0,-0.44097 -0.17639,-0.52916 -1.05833,-0.52916 -0.88194,0 -1.05833,0.0882 -1.05833,0.52916 0,0.44098 0.17639,0.52917 1.05833,0.52917 0.88194,0 1.05833,-0.0882 1.05833,-0.52917 z m -4.23333,23.28334 v -2.64584 h -1.5875 -1.5875 v 2.64584 2.64583 h 1.5875 1.5875 z m 4.23333,0 v -2.64584 h -1.5875 -1.5875 v 2.64584 2.64583 h 1.5875 1.5875 z m -10.58333,-5.29167 v -2.64583 h -1.05833 -1.058341 v 2.64583 2.64583 h 1.058341 1.05833 z m 0,-6.35 v -2.64583 h -1.05833 -1.058341 v 2.64583 2.64583 h 1.058341 1.05833 z m 0,-6.35 v -2.64583 h -1.05833 -1.058341 v 2.64583 2.64583 h 1.058341 1.05833 z"
       id="path2635" /><text
       xml:space="preserve"
       style="font-size:5.34247px;font-family:'Century Gothic';-inkscape-font-specification:'Century Gothic, Normal';fill:#4f9f81;fill-opacity:1;stroke-width:0.445207"
       x="65.423477"
       y="202.92036"
       id="text2691"
       transform="scale(0.99414429,1.0058902)"><tspan
         sodipodi:role="line"
         id="tspan2689"
         style="fill:#4f9f81;fill-opacity:1;stroke-width:0.445207"
         x="65.423477"
         y="202.92036">Лучшие жилищные условия</tspan></text></g></svg>
