<?xml version="1.0" encoding="UTF-8" standalone="no"?>
<!-- Created with Inkscape (http://www.inkscape.org/) -->

<svg
   width="92.74588mm"
   height="103.66496mm"
   viewBox="0 0 92.74588 103.66496"
   version="1.1"
   id="svg16852"
   xml:space="preserve"
   inkscape:version="1.2.2 (732a01da63, 2022-12-09)"
   sodipodi:docname="plus2.svg"
   xmlns:inkscape="http://www.inkscape.org/namespaces/inkscape"
   xmlns:sodipodi="http://sodipodi.sourceforge.net/DTD/sodipodi-0.dtd"
   xmlns="http://www.w3.org/2000/svg"
   xmlns:svg="http://www.w3.org/2000/svg"><sodipodi:namedview
     id="namedview16854"
     pagecolor="#ffffff"
     bordercolor="#000000"
     borderopacity="0.25"
     inkscape:showpageshadow="2"
     inkscape:pageopacity="0.0"
     inkscape:pagecheckerboard="0"
     inkscape:deskcolor="#d1d1d1"
     inkscape:document-units="mm"
     showgrid="false"
     inkscape:zoom="1.4503086"
     inkscape:cx="90.325601"
     inkscape:cy="210.64482"
     inkscape:window-width="1920"
     inkscape:window-height="1001"
     inkscape:window-x="-9"
     inkscape:window-y="-9"
     inkscape:window-maximized="1"
     inkscape:current-layer="layer1" /><defs
     id="defs16849" /><g
     inkscape:label="Слой 1"
     inkscape:groupmode="layer"
     id="layer1"
     transform="translate(-66.735168,-128.41077)"><rect
       style="fill:#ffffff;fill-opacity:1;stroke-width:0.326673"
       id="rect2360-0"
       width="92.74588"
       height="103.66496"
       x="66.735168"
       y="128.41077"
       ry="7.505343" /><rect
       style="fill:#72cbaa;fill-opacity:1;stroke-width:0.307727"
       id="rect2360"
       width="86.725609"
       height="98.37442"
       x="69.921715"
       y="131.09761"
       ry="7.1223078" /><rect
       style="fill:#4f9f81;fill-opacity:1;stroke-width:0.190131"
       id="rect2621-2"
       width="80.452705"
       height="15.871619"
       x="73.684097"
       y="192.04738"
       ry="3.1222854" /><rect
       style="fill:#ffffff;fill-opacity:1;stroke-width:0.190131"
       id="rect2621"
       width="80.452705"
       height="15.871619"
       x="73.771637"
       y="187.78114"
       ry="3.1222854" /><text
       xml:space="preserve"
       style="font-size:5.34247px;font-family:'Century Gothic';-inkscape-font-specification:'Century Gothic, Normal';fill:#4f9f81;fill-opacity:1;stroke-width:0.445207"
       x="86.06385"
       y="196.43105"
       id="text2691"
       transform="scale(0.99414429,1.0058902)"><tspan
         id="tspan2689"
         style="fill:#4f9f81;fill-opacity:1;stroke-width:0.445207"
         x="86.06385"
         y="196.43105"
         sodipodi:role="line">Надежная перевозка</tspan></text><path
       style="fill:#ffffff;fill-opacity:1;stroke-width:0.459653"
       d="m 102.25291,180.9585 c -0.49315,-0.21444 -1.38572,-0.94325 -1.9835,-1.61959 -0.943275,-1.0673 -1.449631,-1.22974 -3.833101,-1.22974 -1.538224,0 -2.982901,-0.24877 -3.284238,-0.56554 -0.813509,-0.85517 -0.645944,-2.18324 0.358656,-2.84275 0.726488,-0.47693 0.896641,-1.09904 0.896641,-3.2783 v -2.68966 l -2.353676,-0.14249 c -1.294517,-0.0783 -2.303226,-0.35453 -2.241587,-0.61374 0.06627,-0.27847 2.129508,-0.47126 5.043578,-0.47126 2.91406,0 4.977342,0.19279 5.043564,0.47126 0.06164,0.25921 -0.846188,0.53592 -2.017425,0.61493 l -2.129508,0.14356 v 2.80183 2.80184 h 1.712425 c 1.273821,0 1.965337,-0.30578 2.699881,-1.19385 2.10706,-2.54743 5.4624,-2.63975 7.41215,-0.20396 l 1.11887,1.39781 h 6.52955 6.52955 v -11.7819 -11.78188 H 108.75352 95.752314 v 1.64947 1.64946 h 2.241587 c 1.232876,0 2.241579,0.21208 2.241579,0.47129 0,0.29174 -2.391014,0.47126 -6.276438,0.47126 -3.885413,0 -6.276445,-0.17952 -6.276445,-0.47126 0,-0.2723 1.419679,-0.47129 3.362385,-0.47129 h 3.362386 v -2.363 -2.36299 l 14.234072,0.12451 14.2341,0.1245 0.13131,3.12044 0.13132,3.12042 3.23113,0.22034 c 3.56558,0.24313 5.34183,1.01412 7.45567,3.2362 2.43731,2.56213 2.89041,3.9712 3.09325,9.61974 0.15791,4.40009 0.31281,5.27226 1.02936,5.79985 1.91717,1.41161 0.68515,3.39517 -2.1088,3.39517 -1.47386,0 -2.02403,0.23715 -2.56551,1.1059 -0.37912,0.60825 -1.32062,1.38078 -2.09223,1.71676 -1.83409,0.79861 -4.55207,-0.006 -5.57631,-1.6478 l -0.73229,-1.17486 h -8.23559 c -6.89292,0 -8.27748,0.1149 -8.49264,0.70422 -0.3461,0.94812 -2.98398,2.598 -4.09788,2.56309 -0.49315,-0.016 -1.30012,-0.20355 -1.79327,-0.41797 z m 4.11805,-1.98892 c 0.70252,-0.69378 1.03761,-1.5591 1.03761,-2.67946 0,-3.55142 -3.7255,-5.14686 -6.12599,-2.62344 -0.96123,1.01046 -1.10971,1.5019 -0.88989,2.94546 0.48519,3.18627 3.811,4.49775 5.97827,2.35744 z m -3.80422,-1.42595 c -1.20589,-1.26763 -0.267,-3.20465 1.55334,-3.20465 1.3285,0 2.14688,1.54766 1.49523,2.82765 -0.53209,1.0451 -2.21504,1.25324 -3.04857,0.377 z m 1.92777,-1.31956 c 0,-0.3456 -0.25218,-0.71673 -0.56041,-0.82473 -0.33336,-0.11684 -0.56039,0.21731 -0.56039,0.82473 0,0.60743 0.22703,0.94155 0.56039,0.82473 0.30823,-0.10793 0.56041,-0.47912 0.56041,-0.82473 z m 27.28691,2.79345 c 0.88671,-0.7332 1.18125,-1.40134 1.18125,-2.67947 0,-3.55271 -3.70471,-5.21662 -6.07266,-2.72743 -3.24125,3.40726 1.27385,8.39819 4.89141,5.4069 z m -4.01421,-2.08547 c -0.42491,-1.77971 0.0703,-2.59307 1.57908,-2.59307 1.65623,0 2.55389,1.39226 1.82312,2.82765 -0.73661,1.44681 -3.03864,1.28809 -3.4022,-0.23458 z m 2.30555,-0.27776 c 0.462,-0.78581 -0.57709,-1.68694 -1.19555,-1.0368 -0.51731,0.54379 -0.19355,1.54914 0.49893,1.54914 0.21747,0 0.53093,-0.23056 0.69662,-0.51234 z M 98.890544,175.9638 c 0,-0.58526 -0.463597,-0.70306 -2.318437,-0.58909 -3.320638,0.20401 -3.476791,1.32063 -0.184676,1.32063 1.963565,0 2.503113,-0.15763 2.503113,-0.73154 z m 25.554096,0.0143 c 0,-0.62033 -1.04735,-0.7005 -7.69655,-0.5891 -5.66919,0.0949 -7.74563,0.28412 -7.88291,0.71803 -0.14439,0.45638 1.58969,0.5891 7.69654,0.5891 6.76247,0 7.88292,-0.10206 7.88292,-0.71803 z m 13.44953,0.29719 c 0,-0.54466 -1.12982,-0.99298 -2.50241,-0.99298 -0.66479,0 -1.08413,0.27342 -1.08413,0.70691 0,0.51055 0.49812,0.70691 1.79328,0.70691 0.98629,0 1.79326,-0.18938 1.79326,-0.42084 z m -12.12856,-3.32236 c 2.21287,-2.49022 5.02087,-2.47593 7.25383,0.0369 1.92959,2.1714 2.82824,1.69029 2.9918,-1.60181 0.43147,-8.68382 -3.00042,-13.5435 -10.10957,-14.31544 l -2.80198,-0.30426 v 8.78572 c 0,7.73664 0.0856,8.78574 0.71676,8.78574 0.39422,0 1.27135,-0.62407 1.94916,-1.38684 z m -1.12217,-5.34622 c -0.13064,-0.35779 -0.17832,-2.43542 -0.10608,-4.61696 l 0.13149,-3.96644 1.56911,-0.13359 c 2.09008,-0.17794 5.32467,1.58832 6.59816,3.60302 0.91411,1.44622 1.81333,4.60977 1.41328,4.97215 -0.0911,0.0827 -2.23647,0.29476 -4.76716,0.47132 -3.70844,0.25874 -4.64739,0.19479 -4.83877,-0.32946 z m 8.31755,-1.63209 c -0.005,-2.38314 -3.48759,-5.76786 -5.93853,-5.77137 -1.2277,-0.002 -1.23286,0.0125 -1.23286,3.29718 v 3.29891 h 3.58654 c 3.11752,0 3.58631,-0.10794 3.58485,-0.82472 z m -31.0639,2.41434 c -0.81548,-0.85724 -0.0433,-1.11833 3.30726,-1.11833 2.69906,0 3.57661,0.15034 3.43859,0.58908 -0.20217,0.64273 -6.19093,1.11258 -6.74585,0.52925 z m -14.214493,-4.88853 c 0,-0.25921 0.907841,-0.47127 2.017429,-0.47127 1.109589,0 2.017429,0.21206 2.017429,0.47127 0,0.25919 -0.90784,0.47126 -2.017429,0.47126 -1.109588,0 -2.017429,-0.21207 -2.017429,-0.47126 z m 5.82813,0 c 0,-0.29253 2.465745,-0.47127 6.500603,-0.47127 4.03486,0 6.50061,0.17874 6.50061,0.47127 0,0.2925 -2.46575,0.47126 -6.50061,0.47126 -4.034858,0 -6.500603,-0.17876 -6.500603,-0.47126 z m -3.350722,-4.22165 c -0.160947,-0.27378 -3.33e-4,-0.61568 0.356954,-0.75982 1.019345,-0.41119 4.562882,-0.0196 4.562882,0.50435 0,0.64358 -4.552659,0.87998 -4.919836,0.25547 z m 6.71904,-0.009 c -0.157805,-0.26843 -0.01088,-0.59943 0.326759,-0.73558 1.109115,-0.4474 11.550866,-0.006 11.550646,0.48985 -2.6e-4,0.65274 -11.498253,0.89063 -11.877405,0.24573 z m 5.149705,-4.72285 c 0,-0.2592 1.00872,-0.47129 2.2416,-0.47129 1.23288,0 2.24159,0.21209 2.24159,0.47129 0,0.2592 -1.00871,0.47127 -2.24159,0.47127 -1.23288,0 -2.2416,-0.21207 -2.2416,-0.47127 z"
       id="path19302" /></g></svg>
