<?xml version="1.0" encoding="UTF-8" standalone="no"?>
<!-- Created with Inkscape (http://www.inkscape.org/) -->

<svg
   width="92.74588mm"
   height="103.66496mm"
   viewBox="0 0 92.74588 103.66496"
   version="1.1"
   id="svg27597"
   xml:space="preserve"
   inkscape:version="1.2.2 (732a01da63, 2022-12-09)"
   sodipodi:docname="plus4.svg"
   xmlns:inkscape="http://www.inkscape.org/namespaces/inkscape"
   xmlns:sodipodi="http://sodipodi.sourceforge.net/DTD/sodipodi-0.dtd"
   xmlns="http://www.w3.org/2000/svg"
   xmlns:svg="http://www.w3.org/2000/svg"><sodipodi:namedview
     id="namedview27599"
     pagecolor="#ffffff"
     bordercolor="#000000"
     borderopacity="0.25"
     inkscape:showpageshadow="2"
     inkscape:pageopacity="0.0"
     inkscape:pagecheckerboard="0"
     inkscape:deskcolor="#d1d1d1"
     inkscape:document-units="mm"
     showgrid="false"
     inkscape:zoom="1.4503086"
     inkscape:cx="173.06661"
     inkscape:cy="190.64907"
     inkscape:window-width="1920"
     inkscape:window-height="1001"
     inkscape:window-x="-9"
     inkscape:window-y="-9"
     inkscape:window-maximized="1"
     inkscape:current-layer="layer1" /><defs
     id="defs27594" /><g
     inkscape:label="Слой 1"
     inkscape:groupmode="layer"
     id="layer1"
     transform="translate(-58.890572,-96.849953)"><rect
       style="fill:#ffffff;fill-opacity:1;stroke-width:0.326673"
       id="rect2360-0"
       width="92.74588"
       height="103.66496"
       x="58.890572"
       y="96.849953"
       ry="7.505343" /><rect
       style="fill:#72cbaa;fill-opacity:1;stroke-width:0.307727"
       id="rect2360"
       width="86.725609"
       height="98.37442"
       x="62.077114"
       y="99.536797"
       ry="7.1223078" /><rect
       style="fill:#4f9f81;fill-opacity:1;stroke-width:0.190131"
       id="rect2621-2"
       width="80.452705"
       height="15.871619"
       x="65.8395"
       y="160.48656"
       ry="3.1222854" /><rect
       style="fill:#ffffff;fill-opacity:1;stroke-width:0.190131"
       id="rect2621"
       width="80.452705"
       height="15.871619"
       x="65.92704"
       y="156.22032"
       ry="3.1222854" /><text
       xml:space="preserve"
       style="font-size:5.34247px;font-family:'Century Gothic';-inkscape-font-specification:'Century Gothic, Normal';fill:#4f9f81;fill-opacity:1;stroke-width:0.445207"
       x="69.749969"
       y="165.037"
       id="text2691"
       transform="scale(0.99414429,1.0058902)"><tspan
         style="fill:#4f9f81;fill-opacity:1;stroke-width:0.445207"
         x="69.749969"
         y="165.037"
         sodipodi:role="line"
         id="tspan23182">Защита интересов клиента</tspan></text><path
       style="fill:#ffffff;fill-opacity:1;stroke-width:0.309987"
       d="m 104.92544,149.72434 c -0.95827,-0.38707 -5.527896,-4.0813 -7.207596,-5.82685 -3.378696,-3.51117 -5.523445,-7.24562 -7.040462,-12.25889 -0.739267,-2.44303 -0.855096,-3.43916 -0.9894,-8.5089 l -0.152107,-5.74194 0.767717,-0.75514 c 0.580911,-0.5714 1.255422,-0.8102 2.771991,-0.98138 3.675071,-0.41483 7.522927,-1.87175 10.912187,-4.13171 1.76725,-1.17841 2.60856,-1.17841 4.37582,0 3.38924,2.25996 7.23711,3.71688 10.91217,4.13171 1.51658,0.17118 2.1911,0.40998 2.77201,0.98138 l 0.76772,0.75514 -0.15212,5.74194 c -0.13431,5.06974 -0.25013,6.06587 -0.98939,8.5089 -2.0551,6.79143 -5.56434,11.7219 -11.53822,16.21115 -2.4099,1.81099 -3.97429,2.37383 -5.21032,1.87459 z m 4.591,-2.83401 c 6.13968,-4.55436 10.03442,-10.42196 11.47153,-17.28239 0.64003,-3.05538 0.99523,-10.60305 0.55111,-11.71069 -0.25601,-0.63851 -0.60485,-0.86937 -1.51859,-1.00505 -5.11232,-0.75906 -8.59605,-1.98389 -11.78953,-4.14508 -0.76259,-0.51608 -1.68746,-0.93833 -2.05529,-0.93833 -0.36781,0 -1.29269,0.42225 -2.05528,0.93833 -3.19348,2.16119 -6.677196,3.38602 -11.789536,4.14508 -1.718469,0.25516 -1.890287,0.92397 -1.6429,6.3949 0.389742,8.61914 2.786573,14.64946 7.93525,19.96468 2.565016,2.648 6.447746,5.44967 7.552466,5.44967 0.61251,0 1.67768,-0.57745 3.34077,-1.81112 z m -6.50115,-3.03104 c -3.055917,-2.46118 -5.478226,-5.45359 -7.168326,-8.85546 -1.987397,-4.00027 -3.186557,-9.66773 -2.045565,-9.66773 0.303741,0 0.558245,0.69232 0.819365,2.22893 1.061051,6.24386 4.51175,11.94444 9.601426,15.86159 l 1.32837,1.02236 v -14.0143 c 0,-7.70787 -0.0526,-14.01431 -0.11695,-14.01431 -0.0643,0 -0.75621,0.35146 -1.53758,0.78103 -2.00636,1.10301 -6.121776,2.53392 -7.988145,2.77746 l -1.580538,0.20623 -0.09262,1.73005 c -0.06923,1.29238 -0.211208,1.73005 -0.561435,1.73005 -0.356027,0 -0.491052,-0.4558 -0.561175,-1.89428 -0.08163,-1.67561 -0.01063,-1.95066 0.61652,-2.38266 0.389872,-0.2686 1.044052,-0.48836 1.453735,-0.48836 1.551742,0 4.699261,-1.01894 7.793878,-2.5231 l 3.20808,-1.5593 2.96747,1.44874 c 3.01126,1.4701 6.53283,2.63366 7.97095,2.63366 0.43504,0 1.12424,0.22959 1.53153,0.51021 0.73124,0.50378 0.73815,0.55895 0.54906,4.381 -0.21213,4.28775 -0.9164,7.46368 -2.33986,10.55162 -1.18957,2.58059 -3.38942,5.77045 -3.97951,5.77045 -0.72172,0 -0.55954,-0.44166 1.0562,-2.87619 2.70548,-4.07648 4.11265,-8.92627 4.11265,-14.1741 v -2.85402 l -1.59499,-0.20812 c -1.88193,-0.24556 -5.99128,-1.6736 -8.01076,-2.78383 -0.78586,-0.43202 -1.47923,-0.73595 -1.54081,-0.67538 -0.0615,0.0605 -0.0754,6.35409 -0.0306,13.98559 l 0.0814,13.87545 1.82252,-1.52982 c 1.83675,-1.54178 2.70957,-1.89491 2.70957,-1.09625 0,0.57013 -4.60532,4.178 -5.33308,4.178 -0.31025,0 -1.7236,-0.93384 -3.14079,-2.07521 z"
       id="path29223" /></g></svg>
