<?xml version="1.0" encoding="UTF-8" standalone="no"?>
<!-- Created with Inkscape (http://www.inkscape.org/) -->

<svg
   width="29.552151mm"
   height="24.664803mm"
   viewBox="0 0 29.552151 24.664803"
   version="1.1"
   id="svg6964"
   xml:space="preserve"
   inkscape:version="1.2.2 (732a01da63, 2022-12-09)"
   sodipodi:docname="tg.svg"
   xmlns:inkscape="http://www.inkscape.org/namespaces/inkscape"
   xmlns:sodipodi="http://sodipodi.sourceforge.net/DTD/sodipodi-0.dtd"
   xmlns="http://www.w3.org/2000/svg"
   xmlns:svg="http://www.w3.org/2000/svg"><sodipodi:namedview
     id="namedview6966"
     pagecolor="#ffffff"
     bordercolor="#000000"
     borderopacity="0.25"
     inkscape:showpageshadow="2"
     inkscape:pageopacity="0.0"
     inkscape:pagecheckerboard="0"
     inkscape:deskcolor="#d1d1d1"
     inkscape:document-units="mm"
     showgrid="false"
     inkscape:zoom="2.0510461"
     inkscape:cx="13.65157"
     inkscape:cy="29.497142"
     inkscape:window-width="1920"
     inkscape:window-height="1001"
     inkscape:window-x="-9"
     inkscape:window-y="-9"
     inkscape:window-maximized="1"
     inkscape:current-layer="layer1" /><defs
     id="defs6961" /><g
     inkscape:label="Слой 1"
     inkscape:groupmode="layer"
     id="layer1"
     transform="translate(-84.016571,-138.45184)"><path
       style="fill:#ffffff;stroke-width:0.264583;fill-opacity:1"
       d="m 106.95969,162.80826 c -0.2847,-0.16514 -1.97852,-1.41562 -3.76404,-2.77884 l -3.246404,-2.47858 -2.099473,2.00583 c -1.422559,1.3591 -2.163405,1.90238 -2.297759,1.68499 -0.21461,-0.34725 -0.166542,-2.58903 0.110204,-5.13965 l 0.173454,-1.59864 6.161118,-5.67421 c 3.38862,-3.12083 6.04496,-5.71295 5.90297,-5.76028 -0.14198,-0.0473 -3.87684,2.12189 -8.29967,4.82048 l -8.041515,4.90653 -3.635858,-1.21539 c -2.132558,-0.71287 -3.699814,-1.38206 -3.790539,-1.61848 -0.368431,-0.96012 -1.218413,-0.59531 22.069862,-9.47231 4.88918,-1.86366 5.98068,-2.19426 6.54104,-1.98121 0.36993,0.14065 0.73939,0.52782 0.82102,0.86039 0.0816,0.33257 -0.92707,5.48173 -2.24157,11.44257 -1.31449,5.96084 -2.38998,10.93169 -2.38998,11.04635 0,0.2698 -0.99788,1.26924 -1.25677,1.25875 -0.10914,-0.004 -0.43138,-0.14316 -0.71609,-0.3083 z"
       id="path9638" /></g></svg>
