<?xml version="1.0" encoding="UTF-8" standalone="no"?>
<!-- Created with Inkscape (http://www.inkscape.org/) -->

<svg
   width="33.295551mm"
   height="27.327097mm"
   viewBox="0 0 33.295551 27.327097"
   version="1.1"
   id="svg11100"
   xml:space="preserve"
   inkscape:version="1.2.2 (732a01da63, 2022-12-09)"
   sodipodi:docname="tw.svg"
   xmlns:inkscape="http://www.inkscape.org/namespaces/inkscape"
   xmlns:sodipodi="http://sodipodi.sourceforge.net/DTD/sodipodi-0.dtd"
   xmlns="http://www.w3.org/2000/svg"
   xmlns:svg="http://www.w3.org/2000/svg"><sodipodi:namedview
     id="namedview11102"
     pagecolor="#ffffff"
     bordercolor="#000000"
     borderopacity="0.25"
     inkscape:showpageshadow="2"
     inkscape:pageopacity="0.0"
     inkscape:pagecheckerboard="0"
     inkscape:deskcolor="#d1d1d1"
     inkscape:document-units="mm"
     showgrid="false"
     inkscape:zoom="1.4503086"
     inkscape:cx="109.63184"
     inkscape:cy="27.92509"
     inkscape:window-width="1920"
     inkscape:window-height="1001"
     inkscape:window-x="-9"
     inkscape:window-y="-9"
     inkscape:window-maximized="1"
     inkscape:current-layer="layer1" /><defs
     id="defs11097" /><g
     inkscape:label="Слой 1"
     inkscape:groupmode="layer"
     id="layer1"
     transform="translate(-101.1826,-149.78505)"><path
       style="fill:#ffffff;stroke-width:0.264583;fill-opacity:1"
       d="m 108.72323,176.97081 c -0.72761,-0.11934 -1.8587,-0.36217 -2.51354,-0.53962 -1.20661,-0.32696 -5.02709,-1.99792 -5.02709,-2.19869 0,-0.0601 0.90208,-0.12644 2.00462,-0.1474 2.27573,-0.0433 5.04546,-0.88031 6.82031,-2.06121 l 1.09695,-0.72985 -1.00079,-0.21078 c -1.96223,-0.41327 -4.02271,-1.87844 -4.84262,-3.44348 -0.5224,-0.99717 -0.46872,-1.29805 0.22101,-1.23878 0.32742,0.0281 0.9525,0.03 1.38906,0.004 l 0.79375,-0.047 -1.07563,-0.48855 c -2.24486,-1.01962 -3.74861,-2.95209 -4.19173,-5.38681 -0.19812,-1.08862 -0.19561,-1.09142 0.68608,-0.76635 0.33689,0.12422 0.95833,0.30969 1.38097,0.41217 l 0.76844,0.18632 -0.87277,-0.99403 c -1.82164,-2.07473 -2.43248,-5.07913 -1.49085,-7.33275 l 0.41679,-0.99753 0.84293,0.96005 c 2.75152,3.13381 8.97419,6.21702 12.54747,6.21702 h 0.85726 v -1.55568 c 0,-5.61243 6.13693,-8.74161 10.87401,-5.54459 1.12233,0.75745 1.25003,0.78469 2.2618,0.48246 0.58978,-0.17618 1.5188,-0.5476 2.0645,-0.82538 0.54571,-0.27779 0.99219,-0.4069 0.99219,-0.28691 0,0.43598 -1.54805,2.64538 -2.14793,3.06555 -0.78935,0.55288 -0.24563,0.56886 1.49822,0.044 0.70757,-0.21294 1.33648,-0.33717 1.3976,-0.27605 0.0611,0.0611 -0.60082,0.82308 -1.47098,1.69324 l -1.58211,1.58211 -0.18388,2.06737 c -0.26193,2.945 -0.81371,4.8995 -2.15221,7.62363 -2.64405,5.38117 -6.68697,8.78679 -12.15975,10.24295 -2.11622,0.56307 -6.25123,0.81024 -8.20208,0.49028 z"
       id="path12685" /></g></svg>
