<?xml version="1.0" encoding="UTF-8" standalone="no"?>
<!-- Created with Inkscape (http://www.inkscape.org/) -->

<svg
   width="33.789574mm"
   height="19.071693mm"
   viewBox="0 0 33.789574 19.071693"
   version="1.1"
   id="svg13421"
   xml:space="preserve"
   inkscape:version="1.2.2 (732a01da63, 2022-12-09)"
   sodipodi:docname="vk.svg"
   xmlns:inkscape="http://www.inkscape.org/namespaces/inkscape"
   xmlns:sodipodi="http://sodipodi.sourceforge.net/DTD/sodipodi-0.dtd"
   xmlns="http://www.w3.org/2000/svg"
   xmlns:svg="http://www.w3.org/2000/svg"><sodipodi:namedview
     id="namedview13423"
     pagecolor="#ffffff"
     bordercolor="#000000"
     borderopacity="0.25"
     inkscape:showpageshadow="2"
     inkscape:pageopacity="0.0"
     inkscape:pagecheckerboard="0"
     inkscape:deskcolor="#d1d1d1"
     inkscape:document-units="mm"
     showgrid="false"
     inkscape:zoom="1.4503086"
     inkscape:cx="64.124282"
     inkscape:cy="-18.271973"
     inkscape:window-width="1920"
     inkscape:window-height="1001"
     inkscape:window-x="-9"
     inkscape:window-y="-9"
     inkscape:window-maximized="1"
     inkscape:current-layer="layer1" /><defs
     id="defs13418" /><g
     inkscape:label="Слой 1"
     inkscape:groupmode="layer"
     id="layer1"
     transform="translate(-48.637011,-137.31146)"><path
       style="fill:#ffffff;stroke-width:0.264583;fill-opacity:1"
       d="m 62.715124,156.00977 c -1.809708,-0.44915 -3.725886,-1.47403 -5.22061,-2.79227 -2.271933,-2.00369 -6.025521,-7.82651 -8.171537,-12.67625 -0.833529,-1.88368 -0.846194,-1.96383 -0.365797,-2.3151 0.601451,-0.4398 5.189169,-0.50794 5.972493,-0.0887 0.282775,0.15134 1.003037,1.24753 1.600582,2.43599 2.277677,4.53007 3.979052,6.61196 4.762898,5.82811 0.801005,-0.801 0.697213,-6.76442 -0.127774,-7.34133 -0.213836,-0.14954 -0.607466,-0.40948 -0.874732,-0.57766 -0.467743,-0.29433 -0.466125,-0.32126 0.04323,-0.71919 0.690817,-0.5397 7.052355,-0.62431 7.482024,-0.0995 0.148928,0.18191 0.357249,2.14443 0.462936,4.36117 0.195597,4.10257 0.403117,4.82294 1.291192,4.48215 0.672547,-0.25808 2.456628,-2.88484 3.828097,-5.63623 0.734705,-1.47393 1.528595,-2.75386 1.764199,-2.84427 0.712152,-0.27328 6.20365,-0.18421 6.752486,0.10952 0.281474,0.15064 0.511773,0.45225 0.511773,0.67025 0,0.6926 -1.224664,2.84627 -2.914465,5.1253 -1.939403,2.61567 -2.639451,3.72832 -2.640795,4.19726 -5.29e-4,0.18966 1.063971,1.46272 2.365589,2.82904 2.772984,2.91081 3.373316,3.88553 2.95652,4.8003 -0.276275,0.60636 -0.378738,0.62479 -3.473841,0.62479 -3.893617,0 -4.485901,-0.21657 -6.301667,-2.3042 -0.754263,-0.8672 -1.672506,-1.73788 -2.04054,-1.93484 -0.595879,-0.31891 -0.727973,-0.2993 -1.206317,0.17904 -0.340395,0.3404 -0.612827,1.09473 -0.743719,2.05928 -0.113605,0.83716 -0.373768,1.62797 -0.578139,1.75736 -0.528806,0.33479 -3.57185,0.25775 -5.134083,-0.12998 z"
       id="path15732" /></g></svg>
